<?xml version="1.0" standalone="no"?>
<!DOCTYPE svg PUBLIC "-//W3C//DTD SVG 1.1//EN" "http://www.w3.org/Graphics/SVG/1.1/DTD/svg11.dtd" >
<svg>
<metadata>
Created by FontForge 20120731 at Mon Jul  1 20:27:35 2019
 By www
Copyright (c) 2014 by Marin _anti_. All rights reserved.
</metadata>
<defs>
<font id="RusulicaScriptW00-Regular" horiz-adv-x="571" >
  <font-face 
    font-family="RusulicaScriptW00-Regular"
    font-weight="400"
    font-style="italic"
    font-stretch="normal"
    units-per-em="1000"
    panose-1="1 0 0 0 0 0 0 0 0 0"
    ascent="800"
    descent="-200"
    x-height="399"
    cap-height="731"
    bbox="-407 -352 1505 972"
    underline-thickness="50"
    underline-position="-125"
    slope="-30"
    unicode-range="U+0020-FB02"
  />
<missing-glyph horiz-adv-x="708" 
d="M513 -137h-707l561 973h707zM485 -89l506 877h-596l-506 -877h596zM598 698q79 0 119.5 -28t40.5 -73q0 -40 -19 -70t-51.5 -58t-75 -57t-89 -66.5t-94.5 -87.5t-91 -119l-22 11q32 59 71.5 105.5t80 84.5t79 70t68 62.5t47.5 62t18 68.5q0 32 -22.5 52t-69.5 20
q-33 0 -62.5 -13t-52 -33.5t-35.5 -45.5t-13 -49t16 -39t49 -15l-12 -22q-59 0 -88.5 21.5t-29.5 56.5q0 31 19 60.5t51.5 52.5t76 37t92.5 14zM276 -12q-22 0 -36.5 15t-14.5 36t14.5 36t36.5 15q21 0 36 -14.5t15 -36.5q0 -21 -15 -36t-36 -15z" />
    <glyph glyph-name="uniFB01" unicode="fi" horiz-adv-x="548" 
d="M241 353q-93 -180 -160.5 -297t-114 -190t-75.5 -110.5t-45 -57.5h-78q30 40 66 89.5t83.5 123.5t108 180.5t138.5 261.5h-98l26 45h94q40 81 77 138t74.5 93t77.5 52.5t86 16.5q35 0 60.5 -10.5t42.5 -27t25 -36t8 -38.5q0 -25 -14 -42.5t-41 -17.5q-26 0 -38 15.5
t-12 34.5q0 18 11.5 32.5t34.5 14.5q-5 17 -23 27t-42 10q-38 0 -70.5 -19.5t-62 -54t-57.5 -82.5t-57 -104h109l-26 -45zM639 162q-23 -39 -52 -71.5t-60.5 -55.5t-65 -35.5t-65.5 -12.5q-17 0 -34 4.5t-31 14t-22.5 25t-8.5 37.5q0 17 6.5 38.5t20.5 47.5q7 14 23 42
t36 62t41 70.5t39 68.5h77q-8 -13 -20 -33.5t-26 -45t-28.5 -50t-27.5 -48t-23 -40t-14 -25.5q-26 -49 -26 -81q0 -46 52 -46q23 0 47.5 10.5t49 29.5t47.5 46t42 60z" />
    <glyph glyph-name="uniFB02" unicode="fl" horiz-adv-x="550" 
d="M437 28q22 0 47 10.5t49 29.5t47 46t42 60l22 -11q-23 -39 -51.5 -71.5t-60 -55.5t-65 -35.5t-64.5 -12.5q-17 0 -34 4.5t-31 14t-22.5 25t-8.5 37.5q0 17 6.5 38.5t20.5 47.5q7 14 23 42t36 62t41 70.5t39 68.5q67 114 113 197q-2 29 -24.5 46t-59.5 17
q-32 0 -61.5 -19.5t-58.5 -54t-58 -82t-58 -104.5h109l-26 -45h-107q-63 -119 -114 -210t-91.5 -159.5t-71 -116.5t-53.5 -81t-38.5 -54t-26.5 -34h-78q30 40 65.5 90t82.5 124t107.5 180.5t140.5 260.5h-97l26 45h94q40 81 76.5 138t72.5 93t73 52.5t79 16.5q44 0 74.5 -19
t41.5 -52q14 25 23 43t14 29h77q-15 -28 -34.5 -63.5t-41.5 -75t-46 -81t-47 -80.5q-7 -13 -19.5 -33.5t-26.5 -45t-28.5 -50t-27.5 -48t-23 -40t-14 -25.5q-26 -49 -26 -81q0 -46 52 -46v-2z" />
    <glyph glyph-name="K_i.liga" unicode="Ki" horiz-adv-x="1098" 
d="M765 660q-34 0 -65 -14.5t-62 -45.5t-62.5 -81t-67.5 -121q-58 -116 -109.5 -194.5t-99 -126.5t-92.5 -68.5t-90 -20.5q-44 0 -70 24.5t-26 62.5q0 26 15 56t48 59l18 -19q-28 -26 -40 -49t-12 -43q0 -28 20 -45t49 -17q28 0 60.5 21t70.5 66.5t82.5 118t96.5 176.5
q63 124 121 191.5t123 92.5q-47 9 -98.5 15.5t-105.5 6.5q-56 0 -103.5 -17t-82.5 -43.5t-54.5 -59.5t-19.5 -65q0 -26 16.5 -41.5t49.5 -15.5q38 0 75 24t60 63l22 -14q-26 -45 -72.5 -71.5t-98.5 -26.5q-63 0 -95.5 23.5t-32.5 61.5t26.5 75.5t73 67t110 48t136.5 18.5
q48 0 92 -5t81 -11t66.5 -11t50.5 -5zM1185 156q-23 -39 -52 -71.5t-60.5 -55.5t-65 -35.5t-65.5 -12.5q-17 0 -34 4.5t-31 14t-22.5 25t-8.5 37.5v6q-51 -40 -107.5 -62.5t-110.5 -22.5q-48 0 -72 20t-24 55q0 38 18.5 72.5t41 64.5t41 56t18.5 48q0 20 -28 32t-100 12
l16 28q57 0 98 24.5t75 60.5t64 79t65 79t78.5 60.5t103.5 24.5q37 0 65 -12t47 -31.5t29 -44.5t10 -50q0 -30 -16.5 -44.5t-36.5 -14.5q-19 0 -34 12.5t-15 35.5q0 18 9.5 31.5t24.5 16.5q1 3 1 9q0 25 -20 45.5t-58 20.5q-41 0 -70.5 -18t-54 -46.5t-47.5 -63.5t-51 -69.5
t-65 -64.5t-89 -47q42 -9 58.5 -25t16.5 -36q0 -27 -17.5 -54t-38.5 -55.5t-38.5 -58.5t-17.5 -61q0 -23 15.5 -36.5t44.5 -13.5q42 0 90 23t92 63q6 19 18 42q7 14 23 42t36 62t41 70.5t39 68.5h77q-7 -13 -19.5 -33.5t-26.5 -45t-28.5 -50t-27.5 -48t-23 -40t-14 -25.5
q-26 -49 -26 -81q0 -46 52 -46q23 0 47.5 10.5t49 29.5t47.5 46t42 60z" />
    <glyph glyph-name="K_j.liga" unicode="Kj" horiz-adv-x="1073" 
d="M765 660q-34 0 -65 -14.5t-62 -45.5t-62.5 -81t-67.5 -121q-58 -116 -109.5 -194.5t-99 -126.5t-92.5 -68.5t-90 -20.5q-44 0 -70 24.5t-26 62.5q0 26 15 56t48 59l18 -19q-28 -26 -40 -49t-12 -43q0 -28 20 -45t49 -17q28 0 60.5 21t70.5 66.5t82.5 118t96.5 176.5
q63 124 121 191.5t123 92.5q-47 9 -98.5 15.5t-105.5 6.5q-56 0 -103.5 -17t-82.5 -43.5t-54.5 -59.5t-19.5 -65q0 -26 16.5 -41.5t49.5 -15.5q38 0 75 24t60 63l22 -14q-26 -45 -72.5 -71.5t-98.5 -26.5q-63 0 -95.5 23.5t-32.5 61.5t26.5 75.5t73 67t110 48t136.5 18.5
q48 0 92 -5t81 -11t66.5 -11t50.5 -5zM1019 701q37 0 65 -12t47 -31.5t29 -44.5t10 -50q0 -31 -16.5 -45.5t-36.5 -14.5q-19 0 -34 12.5t-15 35.5q0 18 9.5 31.5t24.5 16.5q1 3 1 9q0 25 -20 45.5t-58 20.5q-41 0 -70.5 -18t-54 -46.5t-47.5 -63.5t-51 -69.5t-65 -64.5
t-89 -47q42 -9 58.5 -25t16.5 -36q0 -27 -17.5 -54t-38.5 -55.5t-38.5 -58.5t-17.5 -61q0 -23 15.5 -36.5t44.5 -13.5q40 0 86 21t88 58q42 73 84.5 145.5t84.5 146.5h77q-74 -129 -148 -255.5t-146 -256.5q-52 -93 -122 -140.5t-142 -47.5q-54 0 -81.5 19.5t-27.5 49.5
q0 28 19.5 55.5t53.5 49t79.5 34.5t97.5 13v-24q-45 0 -82.5 -10t-65.5 -27.5t-43.5 -40t-15.5 -46.5q0 -20 15 -33.5t46 -13.5q23 0 48.5 12t51.5 34t50.5 53t45.5 69l90 159q-45 -29 -92.5 -45.5t-92.5 -16.5q-48 0 -72 20t-24 55q0 38 18.5 72.5t41 64.5t41 56t18.5 48
q0 20 -28 32t-100 12l16 28q57 0 98 24.5t75 60.5t64 79t65 79t78.5 60.5t103.5 24.5z" />
    <glyph glyph-name="T_h.liga" unicode="Th" horiz-adv-x="1094" 
d="M1189 159q-23 -39 -52.5 -71.5t-62 -55.5t-67.5 -35.5t-68 -12.5q-46 0 -70 19.5t-24 55.5q0 39 18.5 73t40 65t40 59t18.5 55q0 25 -17.5 39t-43.5 14q-41 0 -85 -35t-76 -92l-139 -243h-78q52 90 83.5 145.5t50.5 88.5t29 50.5t18.5 32t18.5 32t30 51.5
q32 56 60.5 105.5t51.5 89.5q-26 -6 -48 -6q-43 0 -74.5 12.5t-60.5 29.5q-35 -23 -76 -78.5t-89 -149.5q-58 -116 -109.5 -194.5t-99 -126.5t-92.5 -68.5t-90 -20.5q-44 0 -70 24.5t-26 62.5q0 26 15 56t48 59l18 -19q-28 -26 -40 -49t-12 -43q0 -28 20 -45t49 -17t61.5 21
t70.5 66.5t82 118t96 176.5q30 58 56 101.5t50.5 74t48 50.5t46.5 31q-32 20 -68.5 34.5t-90.5 14.5q-51 0 -98.5 -16.5t-83.5 -43t-57.5 -60.5t-21.5 -68q0 -25 16 -39.5t48 -14.5q42 0 80.5 24t61.5 63l19 -12q-26 -45 -74.5 -72.5t-101.5 -27.5q-62 0 -94 22.5t-32 59.5
q0 40 27.5 78t75 68t111.5 48t137 18q45 0 79.5 -5.5t62.5 -14t51.5 -18t47.5 -18.5t50 -15t58 -6q48 0 96.5 16.5t81.5 42.5l14 -14q-31 -34 -67 -58q-29 -54 -65.5 -117.5t-72.5 -124.5q-6 -11 -24 -40q62 50 130 50q48 0 75.5 -24t27.5 -61q0 -34 -18 -63.5t-39.5 -58
t-39.5 -57.5t-18 -62q0 -24 14.5 -39t43.5 -15q22 0 47 10.5t49 30t47 46.5t42 60z" />
    <glyph glyph-name="T_i.liga" unicode="Ti" horiz-adv-x="822" 
d="M1034 696q-23 -25 -50 -47.5t-55.5 -39.5t-57.5 -27t-55 -10q-45 0 -77.5 15t-61.5 35q-35 -25 -74.5 -79t-84.5 -145q-58 -116 -109.5 -194.5t-99 -126.5t-92.5 -68.5t-90 -20.5q-44 0 -70 24.5t-26 62.5q0 26 15 56t48 59l18 -19q-28 -26 -40 -49t-12 -43q0 -28 20 -45
t49 -17t61.5 21t70.5 66.5t82 118t96 176.5q29 57 54.5 100t49.5 73.5t47 50t46 31.5q-31 20 -67.5 35.5t-87.5 15.5t-98.5 -16.5t-83.5 -43t-57.5 -60.5t-21.5 -68q0 -25 16 -39.5t48 -14.5q42 0 80.5 24t61.5 63l19 -12q-26 -45 -74.5 -72.5t-101.5 -27.5q-62 0 -94 22.5
t-32 59.5q0 40 27.5 78t75 68t111.5 48t137 18q45 0 79.5 -5.5t62.5 -14t51.5 -18t47.5 -18.5t50 -15t58 -6q48 0 96.5 16.5t81.5 42.5zM706 25q23 0 47.5 10.5t49 29.5t47.5 46t42 60l22 -11q-23 -39 -52 -71.5t-60.5 -55.5t-65 -35.5t-65.5 -12.5q-17 0 -34 4.5t-31 14
t-22.5 25t-8.5 37.5q0 17 6.5 38.5t20.5 47.5q7 14 23 42t36 62t41 70.5t39 68.5h77q-8 -13 -20 -33.5t-26 -45t-28.5 -50t-27.5 -48t-23 -40t-14 -25.5q-26 -49 -26 -81q0 -46 52 -46z" />
    <glyph glyph-name="T_j.liga" unicode="Tj" horiz-adv-x="793" 
d="M1034 696q-23 -25 -50 -47.5t-55.5 -39.5t-57.5 -27t-55 -10q-45 0 -77.5 15t-61.5 35q-35 -25 -74.5 -79t-84.5 -145q-58 -116 -109.5 -194.5t-99 -126.5t-92.5 -68.5t-90 -20.5q-44 0 -70 24.5t-26 62.5q0 26 15 56t48 59l18 -19q-28 -26 -40 -49t-12 -43q0 -28 20 -45
t49 -17t61.5 21t70.5 66.5t82 118t96 176.5q29 57 54.5 100t49.5 73.5t47 50t46 31.5q-31 20 -67.5 35.5t-87.5 15.5t-98.5 -16.5t-83.5 -43t-57.5 -60.5t-21.5 -68q0 -25 16 -39.5t48 -14.5q42 0 80.5 24t61.5 63l19 -12q-26 -45 -74.5 -72.5t-101.5 -27.5q-62 0 -94 22.5
t-32 59.5q0 40 27.5 78t75 68t111.5 48t137 18q45 0 79.5 -5.5t62.5 -14t51.5 -18t47.5 -18.5t50 -15t58 -6q48 0 96.5 16.5t81.5 42.5zM450 -110q72 128 145 253t146 253h77q-74 -129 -148 -255.5t-146 -256.5q-52 -93 -122 -140.5t-142 -47.5q-54 0 -81.5 19.5t-27.5 49.5
q0 28 19.5 55.5t53.5 49t79.5 34.5t97.5 13v-24q-45 0 -82.5 -10t-65.5 -27.5t-43.5 -40t-15.5 -46.5q0 -20 15 -33.5t46 -13.5q23 0 48.5 12t51.5 34t50.5 53t45.5 69h-1z" />
    <glyph glyph-name="f_f.liga" unicode="ff" horiz-adv-x="554" 
d="M746 699q28 0 48.5 -7.5t33.5 -20t19 -28t6 -30.5q0 -14 -5.5 -28t-16 -26t-25 -19.5t-32.5 -7.5q-21 0 -29.5 10.5t-8.5 23.5q0 17 13 31t36 14q11 0 19 -4.5t13 -10.5q3 4 3 12q0 15 -15.5 32.5t-47.5 17.5q-29 0 -57.5 -19.5t-57 -54t-56.5 -82t-57 -103.5h109
l-26 -45h-107q-63 -119 -114 -210t-91.5 -159.5t-71 -116.5t-53.5 -81t-38.5 -54t-26.5 -34h-78q30 40 65.5 90t82.5 124t107.5 180.5t140.5 260.5h-187q-63 -119 -114 -210t-91.5 -159.5t-71 -116.5t-53.5 -81t-38.5 -54t-26.5 -34h-78q30 40 65.5 90t82.5 124t107.5 180.5
t140.5 260.5h-97l26 45h94q40 81 76.5 138t71.5 93t71 52.5t76 16.5q43 0 72 -21t38 -56q38 41 75.5 59.5t79.5 18.5zM450 399q32 65 61.5 114t58.5 84q-2 28 -23 44.5t-54 16.5q-29 0 -57.5 -19.5t-57 -54t-56.5 -82t-57 -103.5h185z" />
    <glyph glyph-name="f_f_i.liga" unicode="ffi" horiz-adv-x="812" 
d="M504 353q-93 -180 -160.5 -297t-114 -190t-75.5 -110.5t-45 -57.5h-78q30 40 66 89.5t83.5 123.5t108 180.5t138.5 261.5h-188q-63 -119 -114 -210t-91.5 -159.5t-71 -116.5t-53.5 -81t-38.5 -54t-26.5 -34h-78q30 40 65.5 90t82.5 124t107.5 180.5t140.5 260.5h-97
l26 45h94q40 81 76.5 138t71.5 93t71 52.5t76 16.5q44 0 73.5 -21.5t37.5 -58.5q40 42 82 61t92 19q35 0 60.5 -10.5t42.5 -27t25 -36t8 -38.5q0 -25 -14 -42.5t-41 -17.5q-26 0 -38 15.5t-12 34.5q0 18 11.5 32.5t34.5 14.5q-5 17 -23 27t-42 10q-38 0 -70.5 -19.5t-62 -54
t-57.5 -82.5t-57 -104h109l-26 -45zM449 398q63 127 120 196q-2 29 -23 46t-55 17q-29 0 -57.5 -19.5t-57 -54t-56.5 -82t-57 -103.5h186zM902 162q-23 -39 -52 -71.5t-60.5 -55.5t-65 -35.5t-65.5 -12.5q-17 0 -34 4.5t-31 14t-22.5 25t-8.5 37.5q0 17 6.5 38.5t20.5 47.5
q7 14 23 42t36 62t41 70.5t39 68.5h77q-8 -13 -20 -33.5t-26 -45t-28.5 -50t-27.5 -48t-23 -40t-14 -25.5q-26 -49 -26 -81q0 -46 52 -46q23 0 47.5 10.5t49 29.5t47.5 46t42 60z" />
    <glyph glyph-name="f_f_l.liga" unicode="ffl" horiz-adv-x="814" 
d="M702 28q22 0 47 10.5t49 29.5t47 46t42 60l22 -11q-23 -39 -51.5 -71.5t-60 -55.5t-65 -35.5t-64.5 -12.5q-17 0 -34 4.5t-31 14t-22.5 25t-8.5 37.5q0 17 6.5 38.5t20.5 47.5q7 14 23 42t36 62t41 70.5t39 68.5q67 114 113 197q-2 29 -24.5 46t-59.5 17
q-32 0 -61.5 -19.5t-58.5 -54t-58 -82t-58 -104.5h109l-26 -45h-107q-63 -119 -114 -210t-91.5 -159.5t-71 -116.5t-53.5 -81t-38.5 -54t-26.5 -34h-78q30 40 65.5 90t82.5 124t107.5 180.5t140.5 260.5h-187q-63 -119 -114 -210t-91.5 -159.5t-71 -116.5t-53.5 -81
t-38.5 -54t-26.5 -34h-78q30 40 65.5 90t82.5 124t107.5 180.5t140.5 260.5h-97l26 45h94q40 81 76.5 138t71.5 93t71 52.5t76 16.5q43 0 72 -21t38 -57q38 41 76 59.5t83 18.5q44 0 74.5 -19t41.5 -52q14 25 23 43t14 29h77q-15 -28 -34.5 -63.5t-41.5 -75t-46 -81
t-47 -80.5q-7 -13 -19.5 -33.5t-26.5 -45t-28.5 -50t-27.5 -48t-23 -40t-14 -25.5q-26 -49 -26 -81q0 -46 52 -46zM452 398q32 65 61.5 114t58.5 84q-2 28 -23 44.5t-54 16.5q-29 0 -57.5 -19.5t-57 -54t-56.5 -82t-57 -103.5h185z" />
    <glyph glyph-name="f_h.liga" unicode="fh" horiz-adv-x="811" 
d="M906 163q-23 -39 -52.5 -71.5t-62 -55.5t-67.5 -35.5t-68 -12.5q-46 0 -70 19.5t-24 55.5q0 39 18.5 73t40 65t40 59t18.5 55q0 25 -17.5 39t-43.5 14q-41 0 -85 -35t-76 -92l-139 -243h-78q52 90 83.5 145.5t50.5 88.5t29 50.5t18.5 32t18.5 32t30 51.5q34 58 64 109.5
t53 92.5q-4 26 -26.5 42t-57.5 16q-32 0 -61.5 -19.5t-58.5 -54t-58 -82t-58 -104.5h109l-26 -45h-107q-63 -119 -114 -210t-91.5 -159.5t-71 -116.5t-53.5 -81t-38.5 -54t-26.5 -34h-78q30 40 65.5 90t82.5 124t107.5 180.5t140.5 260.5h-97l26 45h94q40 81 76.5 138
t72.5 93t73 52.5t79 16.5t72 -18t42 -49q26 47 35 67h77q-15 -28 -34.5 -63.5t-41.5 -75t-46 -81t-48 -80.5q-3 -5 -9.5 -15t-14.5 -24q62 50 130 50q48 0 75.5 -24t27.5 -61q0 -34 -18 -63.5t-39.5 -58t-39.5 -57.5t-18 -62q0 -24 14.5 -39t43.5 -15q22 0 47 10.5t49 30
t47 46.5t42 60z" />
    <glyph glyph-name="f_lcaron.liga" unicode="f&#x13e;" horiz-adv-x="550" 
d="M437 28q22 0 47 10.5t49 29.5t47 46t42 60l22 -11q-23 -39 -51.5 -71.5t-60 -55.5t-65 -35.5t-64.5 -12.5q-17 0 -34 4.5t-31 14t-22.5 25t-8.5 37.5q0 17 6.5 38.5t20.5 47.5q7 14 23 42t36 62t41 70.5t39 68.5q67 114 113 197q-2 29 -24.5 46t-59.5 17
q-32 0 -61.5 -19.5t-58.5 -54t-58 -82t-58 -104.5h109l-26 -45h-107q-63 -119 -114 -210t-91.5 -159.5t-71 -116.5t-53.5 -81t-38.5 -54t-26.5 -34h-78q30 40 65.5 90t82.5 124t107.5 180.5t140.5 260.5h-97l26 45h94q40 81 76.5 138t72.5 93t73 52.5t79 16.5q44 0 74.5 -19
t41.5 -52q14 25 23 43t14 29h77q-15 -28 -34.5 -63.5t-41.5 -75t-46 -81t-47 -80.5q-7 -13 -19.5 -33.5t-26.5 -45t-28.5 -50t-27.5 -48t-23 -40t-14 -25.5q-26 -49 -26 -81q0 -46 52 -46v-2zM845 698q-11 -37 -49 -87t-91 -96l-19 15q35 45 59.5 91t30.5 77h69z" />
    <glyph glyph-name="f_t.liga" unicode="ft" horiz-adv-x="576" 
d="M668 165q-24 -39 -56.5 -71.5t-69 -55.5t-75.5 -35.5t-77 -12.5q-18 0 -35 4.5t-30.5 14t-22 25t-8.5 37.5q0 17 6.5 38.5t20.5 47.5q12 22 24 43.5t25.5 45t29 50.5t34.5 60h-193q-63 -119 -114 -210t-91.5 -159.5t-71 -116.5t-53.5 -81t-38.5 -54t-26.5 -34h-78
q30 40 65.5 90t82.5 124t107.5 180.5t140.5 260.5h-97l26 45h94q40 81 76.5 138t71.5 93t71 52.5t76 16.5q28 0 48.5 -7.5t33.5 -20t19 -28t6 -30.5q0 -14 -5.5 -28t-16 -26t-25 -19.5t-32.5 -7.5q-21 0 -29.5 10.5t-8.5 23.5q0 17 13.5 31t35.5 14q11 0 19 -4.5t13 -10.5
q3 4 3 12q0 15 -15.5 32.5t-47.5 17.5q-29 0 -57.5 -19.5t-57 -54t-56.5 -82t-57 -103.5h195q16 27 29 51t19 37h75q-8 -17 -20.5 -41t-25.5 -47h119l-26 -45h-119q-14 -24 -31 -54t-33.5 -58.5t-29.5 -51.5t-19 -34q-25 -50 -25 -81q0 -47 52 -47q30 0 61 10.5t60 29.5
t55.5 46t46.5 60z" />
    <glyph glyph-name="o_x.liga" unicode="ox" horiz-adv-x="1095" 
d="M1177 156q-35 -38 -76 -69t-84 -53t-85.5 -34t-80.5 -12q-46 0 -71 24t-25 65q0 6 0.5 12t1.5 12q-37 -51 -87 -81.5t-98 -30.5q-43 0 -64 24.5t-21 57.5q0 18 6 37t17.5 34t27 25t33.5 10q20 0 29.5 -10.5t9.5 -24.5q0 -15 -11 -28t-33 -13q-13 0 -23.5 5t-13.5 10
q-11 -17 -11 -39q0 -21 14 -38.5t47 -17.5q25 0 50.5 16.5t49.5 42.5t45 59t36.5 66.5t24.5 64t9 52.5q0 58 -51 58q-27 0 -49.5 -14.5t-42.5 -37t-40 -48t-42.5 -48t-50 -37t-62.5 -14.5q-32 0 -55 13q-23 -39 -56 -76t-71 -65.5t-80 -45.5t-84 -17q-50 0 -76 23.5
t-26 65.5q0 34 14.5 71.5t39.5 74.5t59 70.5t72 59t79 40.5t81 15q45 0 69 -19.5t26 -57.5q22 -4 32 -18t10 -31q0 -23 -16.5 -43t-47.5 -20q2 -7 14.5 -12t25.5 -5q29 0 52 15t44 38t42 49.5t45 49.5t52.5 38t65.5 15q40 0 62.5 -24t22.5 -66q0 -16 -3 -32q37 55 84 88.5
t89 33.5q38 0 58 -19.5t20 -46.5q0 -14 -6.5 -29t-17 -28.5t-24.5 -22t-30 -8.5q-20 0 -29 10.5t-9 24.5q0 15 11 28t33 13q13 0 23.5 -5t15.5 -12q6 9 6 22q0 15 -11 28t-34 13t-48 -15.5t-48.5 -40.5t-44.5 -56.5t-36.5 -63.5t-24.5 -61t-9 -49q0 -30 16.5 -46.5
t48.5 -16.5q31 0 67.5 10.5t74 30t75 47t70.5 60.5zM152 27q32 0 65 16t63 42t55 58.5t43 65.5q-16 20 -16 48q0 23 12 43t33 28q-9 39 -59 39q-31 0 -62 -14t-60 -36.5t-54.5 -51.5t-44 -60t-29.5 -61t-11 -54q0 -30 17 -46.5t48 -16.5z" />
    <glyph glyph-name="oacute_x.liga" unicode="&#xf3;x" horiz-adv-x="1095" 
d="M548 606q-32 -40 -73 -73t-97 -62l-13 20q33 23 67 60t72 93zM1176 156q-35 -38 -76 -69t-84 -53t-85.5 -34t-80.5 -12q-46 0 -71 24t-25 65q0 6 0.5 12t1.5 12q-37 -51 -87 -81.5t-98 -30.5q-43 0 -64 24.5t-21 57.5q0 18 6 37t17.5 34t27 25t33.5 10q20 0 29.5 -10.5
t9.5 -24.5q0 -15 -11 -28t-33 -13q-13 0 -23.5 5t-13.5 10q-11 -17 -11 -39q0 -21 14 -38.5t47 -17.5q25 0 50.5 16.5t49.5 42.5t45 59t36.5 66.5t24.5 64t9 52.5q0 58 -51 58q-27 0 -49.5 -14.5t-42.5 -37t-40 -48t-42.5 -48t-50 -37t-62.5 -14.5q-32 0 -55 13
q-23 -39 -56 -76t-71 -65.5t-80 -45.5t-84 -17q-50 0 -76 23.5t-26 65.5q0 34 14.5 71.5t39.5 74.5t59 70.5t72 59t79 40.5t81 15q45 0 69 -19.5t26 -57.5q22 -4 32 -18t10 -31q0 -23 -16.5 -43t-47.5 -20q2 -7 14.5 -12t25.5 -5q29 0 52 15t44 38t42 49.5t45 49.5t52.5 38
t65.5 15q40 0 62.5 -24t22.5 -66q0 -16 -3 -32q37 55 84 88.5t89 33.5q38 0 58 -19.5t20 -46.5q0 -14 -6.5 -29t-17 -28.5t-24.5 -22t-30 -8.5q-20 0 -29 10.5t-9 24.5q0 15 11 28t33 13q13 0 23.5 -5t15.5 -12q6 9 6 22q0 15 -11 28t-34 13q-24 0 -48.5 -15.5t-48 -40.5
t-44.5 -56.5t-36.5 -63.5t-24.5 -61t-9 -49q0 -30 16.5 -46.5t48.5 -16.5q31 0 67.5 10.5t74 30t75 47t70.5 60.5zM151 27q32 0 65 16t63 42t55 58.5t43 65.5q-16 20 -16 48q0 23 12 43t33 28q-9 39 -59 39q-31 0 -62 -14t-60 -36.5t-54.5 -51.5t-44 -60t-29.5 -61t-11 -54
q0 -30 17 -46.5t48 -16.5z" />
    <glyph glyph-name="odieresis_x.liga" unicode="&#xf6;x" horiz-adv-x="1095" 
d="M326 510q-22 0 -36.5 15t-14.5 36t14.5 36t36.5 15q21 0 36 -14.5t15 -36.5q0 -21 -15 -36t-36 -15zM511 510q-22 0 -36.5 15t-14.5 36t14.5 36t36.5 15q21 0 36 -14.5t15 -36.5q0 -21 -15 -36t-36 -15zM1177 157q-35 -38 -76 -69t-84 -53t-85.5 -34t-80.5 -12
q-46 0 -71 24t-25 65q0 6 0.5 12t1.5 12q-37 -51 -87 -81.5t-98 -30.5q-43 0 -64 24.5t-21 57.5q0 18 6 37t17.5 34t27 25t33.5 10q20 0 29.5 -10.5t9.5 -24.5q0 -15 -11 -28t-33 -13q-13 0 -23.5 5t-13.5 10q-11 -17 -11 -39q0 -21 14 -38.5t47 -17.5q25 0 50.5 16.5
t49.5 42.5t45 59t36.5 66.5t24.5 64t9 52.5q0 58 -51 58q-27 0 -49.5 -14.5t-42.5 -37t-40 -48t-42.5 -48t-50 -37t-62.5 -14.5q-32 0 -55 13q-23 -39 -56 -76t-71 -65.5t-80 -45.5t-84 -17q-50 0 -76 23.5t-26 65.5q0 34 14.5 71.5t39.5 74.5t59 70.5t72 59t79 40.5t81 15
q45 0 69 -19.5t26 -57.5q22 -4 32 -18t10 -31q0 -23 -16.5 -43t-47.5 -20q2 -7 14.5 -12t25.5 -5q29 0 52 15t44 38t42 49.5t45 49.5t52.5 38t65.5 15q40 0 62.5 -24t22.5 -66q0 -16 -3 -32q37 55 84 88.5t89 33.5q38 0 58 -19.5t20 -46.5q0 -14 -6.5 -29t-17 -28.5
t-24.5 -22t-30 -8.5q-20 0 -29 10.5t-9 24.5q0 15 11 28t33 13q13 0 23.5 -5t15.5 -12q6 9 6 22q0 15 -11 28t-34 13t-48 -15.5t-48.5 -40.5t-44.5 -56.5t-36.5 -63.5t-24.5 -61t-9 -49q0 -30 16.5 -46.5t48.5 -16.5q31 0 67.5 10.5t74 30t75 47t70.5 60.5zM152 28
q32 0 65 16t63 42t55 58.5t43 65.5q-16 20 -16 48q0 23 12 43t33 28q-9 39 -59 39q-31 0 -62 -14t-60 -36.5t-54.5 -51.5t-44 -60t-29.5 -61t-11 -54q0 -30 17 -46.5t48 -16.5z" />
    <glyph glyph-name="ograve_x.liga" unicode="&#xf2;x" horiz-adv-x="1095" 
d="M426 470q-56 30 -97 63t-73 74l45 37q38 -56 72 -93t67 -60zM1176 156q-35 -38 -76 -69t-84 -53t-85.5 -34t-80.5 -12q-46 0 -71 24t-25 65q0 6 0.5 12t1.5 12q-37 -51 -87 -81.5t-98 -30.5q-43 0 -64 24.5t-21 57.5q0 18 6 37t17.5 34t27 25t33.5 10q20 0 29.5 -10.5
t9.5 -24.5q0 -15 -11 -28t-33 -13q-13 0 -23.5 5t-13.5 10q-11 -17 -11 -39q0 -21 14 -38.5t47 -17.5q25 0 50.5 16.5t49.5 42.5t45 59t36.5 66.5t24.5 64t9 52.5q0 58 -51 58q-27 0 -49.5 -14.5t-42.5 -37t-40 -48t-42.5 -48t-50 -37t-62.5 -14.5q-32 0 -55 13
q-23 -39 -56 -76t-71 -65.5t-80 -45.5t-84 -17q-50 0 -76 23.5t-26 65.5q0 34 14.5 71.5t39.5 74.5t59 70.5t72 59t79 40.5t81 15q45 0 69 -19.5t26 -57.5q22 -4 32 -18t10 -31q0 -23 -16.5 -43t-47.5 -20q2 -7 14.5 -12t25.5 -5q29 0 52 15t44 38t42 49.5t45 49.5t52.5 38
t65.5 15q40 0 62.5 -24t22.5 -66q0 -16 -3 -32q37 55 84 88.5t89 33.5q38 0 58 -19.5t20 -46.5q0 -14 -6.5 -29t-17 -28.5t-24.5 -22t-30 -8.5q-20 0 -29 10.5t-9 24.5q0 15 11 28t33 13q13 0 23.5 -5t15.5 -12q6 9 6 22q0 15 -11 28t-34 13q-24 0 -48.5 -15.5t-48 -40.5
t-44.5 -56.5t-36.5 -63.5t-24.5 -61t-9 -49q0 -30 16.5 -46.5t48.5 -16.5q31 0 67.5 10.5t74 30t75 47t70.5 60.5zM151 27q32 0 65 16t63 42t55 58.5t43 65.5q-16 20 -16 48q0 23 12 43t33 28q-9 39 -59 39q-31 0 -62 -14t-60 -36.5t-54.5 -51.5t-44 -60t-29.5 -61t-11 -54
q0 -30 17 -46.5t48 -16.5z" />
    <glyph glyph-name="r_z.liga" unicode="r&#x7a;" horiz-adv-x="727" 
d="M758 394q-26 -46 -59 -93.5t-70 -90.5t-78 -77.5t-83 -53.5q97 -23 97 -105q0 -50 -28 -99.5t-75.5 -89t-109.5 -64.5t-130 -25q-63 0 -94.5 24.5t-31.5 59.5q0 29 16 54t43 43.5t63.5 29t78.5 10.5v-24q-36 0 -65 -8.5t-49.5 -23.5t-32 -35t-11.5 -42q0 -26 20 -43.5
t62 -17.5q53 0 101 24.5t85 62t58.5 82.5t21.5 85t-26.5 62.5t-78.5 22.5l16 28q32 0 62.5 18t60.5 50t60 75.5t61 95.5q-68 -51 -146 -51q-33 0 -68 11q-8 -19 -24.5 -31.5t-40.5 -12.5q-23 0 -34 12.5t-11 29.5q0 20 16.5 37t50.5 16q2 11 -6.5 21.5t-30.5 10.5
q-40 0 -89.5 -44.5t-96.5 -119.5l-120 -210h-77q57 99 93.5 162.5t56.5 98.5q13 24 24.5 47l21 42t15.5 32.5t9 18.5h51l-18 -73q36 40 73 62t70 22q39 0 57.5 -24.5t18.5 -54.5v-11q29 -10 62 -10q51 0 99 23t86 67z" />
    <glyph glyph-name="r_zcaron.liga" unicode="r&#x17e;" horiz-adv-x="727" 
d="M801 632q-12 -21 -32 -43t-46.5 -43.5t-57.5 -41t-64 -34.5q0 39 -13 76t-34 60l45 35q23 -23 36.5 -53.5t13.5 -58.5q42 24 76.5 56t50.5 61zM496 303q51 0 99 23t86 67h76q-26 -46 -59 -93.5t-70 -90.5t-78 -77.5t-83 -53.5q97 -23 97 -105q0 -50 -28 -99.5t-75.5 -89
t-109.5 -64.5t-130 -25q-63 0 -94.5 24.5t-31.5 59.5q0 29 16 54t43 43.5t63.5 29t78.5 10.5v-24q-36 0 -65 -8.5t-49.5 -23.5t-32 -35t-11.5 -42q0 -26 20 -43.5t62 -17.5q53 0 101 24.5t85 62t58.5 82.5t21.5 85t-26.5 62.5t-78.5 22.5l16 28q32 0 62.5 18t60.5 50
t60 75.5t61 95.5q-68 -51 -146 -51q-33 0 -68 11q-8 -19 -24.5 -31.5t-40.5 -12.5q-23 0 -34 12.5t-11 29.5q0 20 16.5 37t50.5 16q2 11 -6.5 21.5t-30.5 10.5q-40 0 -89.5 -44.5t-96.5 -119.5l-120 -210h-77q57 99 93.5 162.5t56.5 98.5q13 24 24.5 47l21 42t15.5 32.5
t9 18.5h51l-18 -73q36 40 73 62t70 22q39 0 57.5 -24.5t18.5 -54.5v-11q29 -10 62 -10z" />
    <glyph glyph-name="r_zdotaccent.liga" unicode="r&#x17c;" horiz-adv-x="727" 
d="M662 510q-22 0 -36.5 15t-14.5 36t14.5 36t36.5 15q21 0 36 -14.5t15 -36.5q0 -21 -15 -36t-36 -15zM758 394q-26 -46 -59 -93.5t-70 -90.5t-78 -77.5t-83 -53.5q97 -23 97 -105q0 -50 -28 -99.5t-75.5 -89t-109.5 -64.5t-130 -25q-63 0 -94.5 24.5t-31.5 59.5
q0 29 16 54t43 43.5t63.5 29t78.5 10.5v-24q-36 0 -65 -8.5t-49.5 -23.5t-32 -35t-11.5 -42q0 -26 20 -43.5t62 -17.5q53 0 101 24.5t85 62t58.5 82.5t21.5 85t-26.5 62.5t-78.5 22.5l16 28q32 0 62.5 18t60.5 50t60 75.5t61 95.5q-68 -51 -146 -51q-33 0 -68 11
q-8 -19 -24.5 -31.5t-40.5 -12.5q-23 0 -34 12.5t-11 29.5q0 20 16.5 37t50.5 16q2 11 -6.5 21.5t-30.5 10.5q-40 0 -89.5 -44.5t-96.5 -119.5l-120 -210h-77q57 99 93.5 162.5t56.5 98.5q13 24 24.5 47l21 42t15.5 32.5t9 18.5h51l-18 -73q36 40 73 62t70 22
q39 0 57.5 -24.5t18.5 -54.5v-11q29 -10 62 -10q51 0 99 23t86 67z" />
    <glyph glyph-name="racute_z.liga" unicode="&#x155;&#x7a;" horiz-adv-x="727" 
d="M495 606q-32 -40 -73 -73t-97 -62l-13 20q33 23 67 60t72 93zM758 393q-26 -46 -59 -93.5t-70 -90.5t-78 -77.5t-83 -53.5q97 -23 97 -105q0 -50 -28 -99.5t-75.5 -89t-109.5 -64.5t-130 -25q-63 0 -94.5 24.5t-31.5 59.5q0 29 16 54t43 43.5t63.5 29t78.5 10.5v-24
q-36 0 -65 -8.5t-49.5 -23.5t-32 -35t-11.5 -42q0 -26 20 -43.5t62 -17.5q53 0 101 24.5t85 62t58.5 82.5t21.5 85t-26.5 62.5t-78.5 22.5l16 28q32 0 62.5 18t60.5 50t60 75.5t61 95.5q-68 -51 -146 -51q-33 0 -68 11q-8 -19 -24.5 -31.5t-40.5 -12.5q-23 0 -34 12.5
t-11 29.5q0 20 16.5 37t50.5 16q2 11 -6.5 21.5t-30.5 10.5q-40 0 -89.5 -44.5t-96.5 -119.5l-120 -210h-77q63 109 98 170.5t52 90.5q13 24 24.5 47l21 42t15.5 32.5t9 18.5h51l-18 -73q36 40 73 62t70 22q39 0 57.5 -24.5t18.5 -54.5v-11q29 -10 62 -10q51 0 99 23t86 67z
" />
    <glyph glyph-name="racute_zcaron.liga" unicode="&#x155;&#x17e;" horiz-adv-x="727" 
d="M801 632q-12 -21 -32 -43t-46.5 -43.5t-57.5 -41t-64 -34.5q0 39 -13 76t-34 60l45 35q23 -23 36.5 -53.5t13.5 -58.5q42 24 76.5 56t50.5 61zM493 605q-32 -40 -73 -73t-97 -62l-13 20q33 23 67 60t72 93zM495 304q51 0 99 23t86 67h76q-26 -46 -59 -93.5t-70 -90.5
t-78 -77.5t-83 -53.5q97 -23 97 -105q0 -50 -28 -99.5t-75.5 -89t-109.5 -64.5t-130 -25q-63 0 -94.5 24.5t-31.5 59.5q0 29 16 54t43 43.5t63.5 29t78.5 10.5v-24q-36 0 -65 -8.5t-49.5 -23.5t-32 -35t-11.5 -42q0 -26 20 -43.5t62 -17.5q53 0 101 24.5t85 62t58.5 82.5
t21.5 85t-26.5 62.5t-78.5 22.5l16 28q32 0 62.5 18t60.5 50t60 75.5t61 95.5q-68 -51 -146 -51q-33 0 -68 11q-8 -19 -24.5 -31.5t-40.5 -12.5q-23 0 -34 12.5t-11 29.5q0 20 16.5 37t50.5 16q2 11 -6.5 21.5t-30.5 10.5q-40 0 -89.5 -44.5t-96.5 -119.5l-120 -210h-77
q33 57 57 98.5t42 72.5t30 52.5t21 36.5q13 24 24.5 47l21 42t15.5 32.5t9 18.5h51l-18 -73q36 40 73 62t70 22q39 0 57.5 -24.5t18.5 -54.5v-11q29 -10 62 -10z" />
    <glyph glyph-name="t_t.liga" unicode="tt" horiz-adv-x="612" 
d="M705 165q-24 -39 -56.5 -71.5t-69 -55.5t-75.5 -35.5t-77 -12.5q-18 0 -35 4.5t-30.5 14t-22 25t-8.5 37.5v4q-45 -40 -97.5 -62.5t-104.5 -22.5q-18 0 -35 4.5t-30.5 14t-22 25t-8.5 37.5q0 17 6.5 38.5t20.5 47.5q12 22 24 43.5t25.5 45t29 50.5t34.5 60h-92l26 45h92
q26 48 48 90t32 65h75q-14 -31 -35.5 -73.5t-43.5 -81.5h221q26 48 48 90t32 65h75q-14 -31 -35.5 -73.5t-43.5 -81.5h119l-26 -45h-119q-14 -24 -31 -54t-33.5 -58.5t-29.5 -51.5t-19 -34q-25 -50 -25 -81q0 -47 52 -47q30 0 61 10.5t60 29.5t55.5 46t46.5 60zM163 30
q45 0 91.5 23t84.5 63q6 19 18 41t24 43.5t25.5 45t29 50.5t34.5 60h-222q-14 -24 -31 -54t-33.5 -58.5t-29.5 -51.5t-19 -34q-25 -50 -25 -81q0 -47 52 -47h1z" />
    <glyph glyph-name="tcaron_t.liga" unicode="&#x165;t" horiz-adv-x="612" 
d="M352 469q35 45 59.5 91t30.5 77h70q-11 -37 -49 -87t-91 -96zM705 165q-24 -39 -56.5 -71.5t-69 -55.5t-75.5 -35.5t-77 -12.5q-18 0 -35 4.5t-30.5 14t-22 25t-8.5 37.5v4q-45 -40 -97.5 -62.5t-104.5 -22.5q-18 0 -35 4.5t-30.5 14t-22 25t-8.5 37.5q0 17 6.5 38.5
t20.5 47.5q12 22 24 43.5t25.5 45t29 50.5t34.5 60h-92l26 45h92q26 48 48 90t32 65h75q-14 -31 -35.5 -73.5t-43.5 -81.5h221q26 48 48 90t32 65h75q-14 -31 -35.5 -73.5t-43.5 -81.5h119l-26 -45h-119q-14 -24 -31 -54t-33.5 -58.5t-29.5 -51.5t-19 -34q-25 -50 -25 -81
q0 -47 52 -47q30 0 61 10.5t60 29.5t55.5 46t46.5 60zM163 30q45 0 91.5 23t84.5 63q6 19 18 41t24 43.5t25.5 45t29 50.5t34.5 60h-222q-14 -24 -31 -54t-33.5 -58.5t-29.5 -51.5t-19 -34q-25 -50 -25 -81q0 -47 52 -47h1z" />
    <glyph glyph-name="z_j.liga" unicode="&#x7a;j" horiz-adv-x="723" 
d="M779 612q21 0 36 -14.5t15 -36.5q0 -21 -15 -36t-36 -15q-22 0 -36.5 15t-14.5 36t14.5 36t36.5 15zM379 -105q72 128 145 253t146 253h77q-74 -129 -148 -255.5t-146 -256.5q-52 -93 -122 -140.5t-142 -47.5q-28 0 -50.5 7.5t-42.5 19.5q-31 -13 -64 -20t-68 -7
q-32 0 -55.5 7.5t-39 19.5t-23 27.5t-7.5 31.5q0 29 24 52.5t70 23.5q25 0 45 -9.5t38.5 -24.5t35.5 -32.5t36 -32.5q30 19 55.5 45t44 54.5t29 58.5t10.5 57q0 40 -26.5 62.5t-78.5 22.5l16 28q33 0 64 18.5t61.5 51t60.5 77.5t62 98q-36 -29 -77.5 -45t-80.5 -16
q-28 0 -47.5 6t-32 16t-18 22.5t-5.5 25.5q0 14 5.5 27.5t14.5 24t21.5 17t27.5 6.5q24 0 35.5 -12.5t11.5 -28.5q0 -20 -16 -37t-48 -17q-1 -12 14 -19.5t41 -7.5q25 0 51 7t51 20.5t47.5 31.5t40.5 41h76q-26 -46 -59 -93.5t-70 -90.5t-78 -77.5t-83 -53.5q97 -23 97 -105
q0 -34 -13.5 -68t-37 -65.5t-56.5 -59t-72 -47.5q13 -6 27 -9.5t31 -3.5q23 0 48.5 12t51.5 34t50.5 53t45.5 69zM-37 -273q26 0 51.5 6.5t48.5 17.5q-18 15 -34 31t-31.5 28.5t-32 21t-34.5 8.5q-27 0 -41.5 -15t-14.5 -35q0 -23 21 -43t66 -20h1z" />
    <glyph glyph-name="zacute_j.liga" unicode="&#x17a;j" horiz-adv-x="723" 
d="M514 606q-32 -40 -73 -73t-97 -62l-13 20q33 23 67 60t72 93zM778 611q21 0 36 -14.5t15 -36.5q0 -21 -15 -36t-36 -15q-22 0 -36.5 15t-14.5 36t14.5 36t36.5 15zM376 -109q72 128 145 253t146 253h77q-74 -129 -148 -255.5t-146 -256.5q-52 -93 -122 -140.5t-142 -47.5
q-28 0 -50.5 7.5t-42.5 19.5q-31 -13 -64 -20t-68 -7q-32 0 -55.5 7.5t-38.5 19.5t-22.5 27.5t-7.5 31.5q0 29 24 53t70 24q25 0 45 -9.5t38.5 -24.5t35.5 -32.5t36 -32.5q30 19 55.5 45t44 54.5t29 58.5t10.5 57q0 40 -26.5 62.5t-78.5 22.5l16 28q33 0 64 18.5t61.5 51
t60.5 77.5t62 98q-36 -29 -77.5 -45t-80.5 -16q-56 0 -79.5 22t-23.5 49q0 14 5.5 27.5t15 24t22 17t27.5 6.5q24 0 35.5 -12.5t11.5 -28.5q0 -19 -16 -36t-48 -17q-1 -12 14 -19.5t41 -7.5q25 0 51 7t51 20.5t47.5 31.5t40.5 41h76q-26 -46 -59 -93.5t-70 -90.5t-78 -77.5
t-83 -53.5q97 -23 97 -105q0 -34 -13.5 -68t-37 -65.5t-56.5 -59t-72 -47.5q13 -6 27 -9.5t31 -3.5q23 0 48.5 12t51.5 34t50.5 53t45.5 69zM-40 -277q26 0 51.5 6.5t48.5 17.5q-18 15 -34 31t-31.5 28.5t-32 21t-34.5 8.5q-27 0 -41.5 -15t-14.5 -35q0 -23 21 -43t66 -20h1
z" />
    <glyph glyph-name="zcaron_j.liga" unicode="&#x17e;j" horiz-adv-x="723" 
d="M541 632q-12 -21 -32 -43t-46.5 -43.5t-57.5 -41t-64 -34.5q0 39 -13 76t-34 60l45 35q23 -23 36.5 -53.5t13.5 -58.5q42 24 76.5 56t50.5 61zM778 611q21 0 36 -14.5t15 -36.5q0 -21 -15 -36t-36 -15q-22 0 -36.5 15t-14.5 36t14.5 36t36.5 15zM377 -107q72 128 145 253
t146 253h77q-74 -129 -148 -255.5t-146 -256.5q-52 -93 -122 -140.5t-142 -47.5q-28 0 -50.5 7.5t-42.5 19.5q-31 -13 -64 -20t-68 -7q-32 0 -55.5 7.5t-39 19.5t-23 27.5t-7.5 31.5q0 29 24 53t70 24q25 0 45 -9.5t38.5 -24.5t35.5 -32.5t36 -32.5q30 19 55.5 45t44 54.5
t29 58.5t10.5 57q0 40 -26.5 62.5t-78.5 22.5l16 28q33 0 64 18.5t61.5 51t60.5 77.5t62 98q-36 -29 -77.5 -45t-80.5 -16q-28 0 -47.5 6t-32 16t-18 22.5t-5.5 25.5q0 14 5.5 27.5t15 24t22 17t27.5 6.5q24 0 35.5 -12.5t11.5 -28.5q0 -20 -16 -37t-48 -17q-1 -12 14 -19.5
t41 -7.5q25 0 51 7t51 20.5t47.5 31.5t40.5 41h76q-26 -46 -59 -93.5t-70 -90.5t-78 -77.5t-83 -53.5q97 -23 97 -105q0 -34 -13.5 -68t-37 -65.5t-56.5 -59t-72 -47.5q13 -6 27 -9.5t31 -3.5q23 0 48.5 12t51.5 34t50.5 53t45.5 69h-2zM-39 -275q26 0 51.5 6.5t48.5 17.5
q-18 15 -34 31t-31.5 28.5t-32 21t-34.5 8.5q-27 0 -41.5 -15t-14.5 -35q0 -23 21 -43t66 -20h1z" />
    <glyph glyph-name="zdotaccent_j.liga" unicode="&#x17c;j" horiz-adv-x="723" 
d="M376 510q-22 0 -36.5 15t-14.5 36t14.5 36t36.5 15q21 0 36 -14.5t15 -36.5q0 -21 -15 -36t-36 -15zM779 612q21 0 36 -14.5t15 -36.5q0 -21 -15 -36t-36 -15q-22 0 -36.5 15t-14.5 36t14.5 36t36.5 15zM379 -108q72 128 145 253t146 253h77q-74 -129 -148 -255.5
t-146 -256.5q-52 -93 -122 -140.5t-142 -47.5q-28 0 -50.5 7.5t-42.5 19.5q-31 -13 -64 -20t-68 -7q-32 0 -55.5 7.5t-39 19.5t-23 27.5t-7.5 31.5q0 29 24 53t70 24q25 0 45 -9.5t38.5 -24.5t35.5 -32.5t36 -32.5q30 19 55.5 45t44 54.5t29 58.5t10.5 57q0 40 -26.5 62.5
t-78.5 22.5l16 28q33 0 64 18.5t61.5 51t60.5 77.5t62 98q-36 -29 -77.5 -45t-80.5 -16q-56 0 -79.5 22t-23.5 49q0 14 5.5 27.5t14.5 24t21.5 17t27.5 6.5q24 0 35.5 -12.5t11.5 -28.5q0 -19 -16 -36t-48 -17q-1 -12 14 -19.5t41 -7.5q25 0 51 7t51 20.5t47.5 31.5t40.5 41
h76q-26 -46 -59 -93.5t-70 -90.5t-78 -77.5t-83 -53.5q97 -23 97 -105q0 -34 -13.5 -68t-37 -65.5t-56.5 -59t-72 -47.5q13 -6 27 -9.5t31 -3.5q23 0 48.5 12t51.5 34t50.5 53t45.5 69zM-38 -276q26 0 51.5 6.5t48.5 17.5q-18 15 -34 31t-31.5 28.5t-32 21t-34.5 8.5
q-26 0 -40.5 -15t-14.5 -35q0 -23 21 -43t66 -20z" />
    <glyph glyph-name=".notdef" horiz-adv-x="708" 
d="M513 -137h-707l561 973h707zM485 -89l506 877h-596l-506 -877h596zM598 698q79 0 119.5 -28t40.5 -73q0 -40 -19 -70t-51.5 -58t-75 -57t-89 -66.5t-94.5 -87.5t-91 -119l-22 11q32 59 71.5 105.5t80 84.5t79 70t68 62.5t47.5 62t18 68.5q0 32 -22.5 52t-69.5 20
q-33 0 -62.5 -13t-52 -33.5t-35.5 -45.5t-13 -49t16 -39t49 -15l-12 -22q-59 0 -88.5 21.5t-29.5 56.5q0 31 19 60.5t51.5 52.5t76 37t92.5 14zM276 -12q-22 0 -36.5 15t-14.5 36t14.5 36t36.5 15q21 0 36 -14.5t15 -36.5q0 -21 -15 -36t-36 -15z" />
    <glyph glyph-name=".null" horiz-adv-x="0" 
 />
    <glyph glyph-name="nonmarkingreturn" horiz-adv-x="333" 
 />
    <glyph glyph-name="space" unicode=" " horiz-adv-x="301" 
 />
    <glyph glyph-name="exclam" unicode="!" horiz-adv-x="439" 
d="M223 150q30 53 65.5 119.5t72.5 138.5t74 146.5t70 145.5h81q-31 -57 -71.5 -125.5t-85.5 -142t-92 -148.5t-91 -144zM177 -11q-22 0 -36.5 15t-14.5 36t14.5 36t36.5 15q21 0 36 -14.5t15 -36.5q0 -21 -15 -36t-36 -15z" />
    <glyph glyph-name="quotedbl" unicode="&#x22;" horiz-adv-x="452" 
d="M451 699q-28 -93 -154 -203l-19 15q76 99 93 189zM611 698q-28 -93 -154 -203l-19 15q76 99 93 189z" />
    <glyph glyph-name="numbersign" unicode="#" horiz-adv-x="672" 
d="M563 355q-19 -33 -38.5 -67.5t-39.5 -69.5h170l-26 -45h-170q-26 -44 -51.5 -87.5t-51.5 -86.5l-67 -1q29 45 57.5 88.5t55.5 86.5h-153q-26 -44 -51.5 -87.5t-51.5 -86.5l-67 -1q29 45 57.5 88.5t55.5 86.5h-175l26 45h177q23 36 43.5 70.5t40.5 66.5h-182l26 45h182
q32 54 56 99t39 77h47q-19 -37 -43 -81t-52 -95h162q32 54 56 99t39 77h47q-19 -37 -43 -81t-52 -95h171l-26 -45h-168zM430 218q23 36 43.5 70.5t40.5 66.5h-161q-19 -33 -38.5 -67.5t-39.5 -69.5h155z" />
    <glyph glyph-name="dollar" unicode="$" horiz-adv-x="618" 
d="M605 680q41 -19 63.5 -50.5t22.5 -66.5q0 -15 -5 -31.5t-15 -30t-23.5 -22.5t-29.5 -9q-17 0 -31 10t-14 29q0 20 14 34t37 14t35 -15q5 12 5 22q0 24 -19.5 49t-55.5 40l-157 -271q18 -24 36 -47.5t32.5 -47.5t24 -49t9.5 -51q0 -41 -21 -75.5t-57 -59.5t-85 -38.5
t-104 -13.5q-28 0 -53 6l-47 -82h-47l55 95q-53 23 -84.5 65t-31.5 88q0 18 5.5 36.5t16 33t25 24t32.5 9.5q17 0 30.5 -11t13.5 -31q0 -19 -13 -31t-36 -12q-20 0 -39 11q-6 -12 -6 -27q0 -16 6.5 -34.5t19 -36t31.5 -33.5t44 -26l174 302q-29 41 -53 83.5t-24 88.5
q0 36 17 69.5t46.5 58.5t70 40t87.5 15q31 0 58 -6l44 76h47zM550 663q-15 3 -32 3q-44 0 -72.5 -15.5t-45.5 -37.5t-24 -46t-7 -41q0 -29 10.5 -55.5t27.5 -52.5zM451 169q0 35 -17.5 68.5t-41.5 68.5l-160 -277q19 -3 41 -3q49 0 83 15t55 37.5t30.5 47t9.5 44.5v-1z" />
    <glyph glyph-name="percent" unicode="%" horiz-adv-x="1067" 
d="M822 604q-48 -80 -105 -167t-116 -171.5t-118 -164t-112 -144.5l-64 -1q64 85 129 174.5t125 174.5t111 162t89 138zM288 244q-47 0 -71 22t-24 60q0 40 21.5 86t57.5 84t83.5 63.5t99.5 25.5q47 0 71 -22t24 -60q0 -41 -21.5 -86.5t-57.5 -83.5t-83.5 -63.5t-99.5 -25.5
zM298 268q33 0 66 28t59.5 67t42.5 81t16 70q0 47 -40 47q-33 0 -66 -28t-59.5 -67t-42.5 -81t-16 -70q0 -47 41 -47h-1zM706 -10q-47 0 -71 22t-24 60q0 40 21.5 86t57.5 84t83.5 63.5t99.5 25.5q47 0 71 -22t24 -60q0 -41 -21.5 -86.5t-57.5 -83.5t-83.5 -63.5
t-99.5 -25.5zM716 14q33 0 66 28t59.5 67t42.5 81t16 70q0 47 -40 47q-33 0 -66 -28t-59.5 -67t-42.5 -81t-16 -70q0 -47 41 -47h-1z" />
    <glyph glyph-name="ampersand" unicode="&#x26;" horiz-adv-x="957" 
d="M983 311q-30 -47 -69 -75t-74 -28q-20 0 -34.5 4.5t-27.5 12.5q-33 -54 -76.5 -98.5t-93.5 -75.5t-105.5 -48t-113.5 -17q-39 0 -73.5 8t-59.5 23.5t-39.5 39t-14.5 54.5q0 39 20 68t50.5 51.5t66 41t67.5 37t54.5 38.5t26.5 47q-54 -9 -109 -9q-59 0 -106 9t-80 25.5
t-50.5 39t-17.5 49.5q0 33 22.5 63.5t61 54.5t89.5 38.5t108 14.5v-24q-41 0 -78 -13t-65 -34t-44.5 -47t-16.5 -51q0 -44 51 -71t142 -27q24 0 47 2t46 6q-2 15 -5 32t-3 39q0 44 24.5 83.5t66 69t95.5 47t114 17.5q58 0 81 -19t23 -43q0 -26 -24.5 -58t-68 -65t-102 -62.5
t-126.5 -48.5v-9q0 -24 -21 -44.5t-52 -40t-67.5 -39.5t-67.5 -44t-52 -53t-21 -67q0 -48 35.5 -74t96.5 -26q47 0 95 16t93 46t85.5 71.5t72.5 92.5q-20 14 -41 26.5t-53 12.5q-22 0 -45 -11.5t-40 -31.5l-26 14q22 35 59 55.5t76 20.5q30 0 51 -9t39 -19.5t37 -19t46 -8.5
q26 0 55 15t52 40zM553 481q0 -14 1.5 -25.5t3.5 -21.5q59 18 109 44.5t86 55.5t56 58t20 50q0 17 -13.5 28t-43.5 11q-58 0 -99.5 -21.5t-68.5 -52t-39.5 -65t-12.5 -59.5z" />
    <glyph glyph-name="quotesingle" unicode="'" horiz-adv-x="292" 
d="M451 699q-28 -93 -154 -203l-19 15q76 99 93 189z" />
    <glyph glyph-name="parenleft" unicode="(" horiz-adv-x="359" 
d="M120 -130q-42 19 -63 58t-21 95q0 45 14 99.5t39.5 113t61 118t77.5 114.5t89.5 103t98 84t102 56.5t101.5 20.5v-25q-55 0 -115.5 -38t-118 -100t-109.5 -140t-91.5 -157.5t-62.5 -152.5t-23 -125q0 -69 39 -93z" />
    <glyph glyph-name="parenright" unicode=")" horiz-adv-x="461" 
d="M408 730q42 -18 63 -57t21 -95q0 -60 -24.5 -136t-67.5 -154.5t-100 -153.5t-121.5 -133.5t-134 -94.5t-135.5 -36v25q42 0 86.5 21.5t88.5 59.5t87 88.5t81.5 108t71 118t56 118t37 108.5t13.5 90q0 69 -39 93z" />
    <glyph glyph-name="asterisk" unicode="*" horiz-adv-x="630" 
d="M588 748q-20 -38 -41 -83.5t-36 -83.5l-23 7q7 41 13 91t10 92zM316 701q30 -30 67 -64.5t69 -60.5l-13 -20q-36 19 -81.5 40t-84.5 38zM714 506q-42 7 -91.5 13t-90.5 9l-1 24q41 6 90 15.5t91 19.5zM278 428q38 19 81.5 43.5t78.5 45.5l15 -19q-29 -29 -63.5 -65
t-62.5 -68zM525 308q-7 42 -16.5 91t-19.5 89l22 8q18 -36 42 -80t46 -80z" />
    <glyph glyph-name="plus" unicode="+" horiz-adv-x="530" 
d="M321 259q-18 -31 -37.5 -63.5t-39.5 -64.5h-60q23 32 44.5 64t41.5 64h-147l26 45h149q23 38 42 70.5t32 58.5h47q-11 -23 -29.5 -56.5t-41.5 -73.5h152l-26 -45z" />
    <glyph glyph-name="comma" unicode="," horiz-adv-x="409" 
d="M204 -8q-28 -3 -45.5 11.5t-17.5 37.5q0 21 14 36t36 15q24 0 37.5 -15t14.5 -38q0 -23 -14 -50.5t-39.5 -51t-60 -39t-74.5 -15.5v22q36 0 64 12.5t47 28.5t28.5 29.5t9.5 16.5z" />
    <glyph glyph-name="hyphen" unicode="-" horiz-adv-x="601" 
d="M457 206h-311l26 45h311z" />
    <glyph glyph-name="period" unicode="." horiz-adv-x="400" 
d="M191 -10q-22 0 -36.5 15t-14.5 36t14.5 36t36.5 15q21 0 36 -14.5t15 -36.5q0 -21 -15 -36t-36 -15z" />
    <glyph glyph-name="slash" unicode="/" horiz-adv-x="455" 
d="M580 720q-41 -79 -97.5 -182.5t-123 -220t-139.5 -240.5t-146 -244l-67 -1q94 159 178 302t150 259.5t112 201t65 125.5h68z" />
    <glyph glyph-name="zero" unicode="0" horiz-adv-x="628" 
d="M220 -10q-71 0 -105.5 32.5t-34.5 91.5q0 44 15.5 96t44 104.5t68 101.5t87.5 86.5t102 60.5t112 23q71 0 105.5 -32.5t34.5 -91.5q0 -44 -15.5 -96t-44 -104.5t-68 -101.5t-87.5 -86.5t-102 -60.5t-112 -23zM231 15q41 0 82.5 24.5t79.5 64t71 89t57 100.5t38 98.5
t14 81.5q0 42 -18.5 64.5t-56.5 22.5q-42 0 -83 -24.5t-79 -64t-71 -89t-57 -100.5t-38 -98.5t-14 -81.5q0 -42 18.5 -64.5t56.5 -22.5z" />
    <glyph glyph-name="one" unicode="1" horiz-adv-x="433" 
d="M528 579q-13 -25 -38 -69t-56.5 -98.5t-66.5 -115t-67.5 -116.5t-59 -104t-41.5 -77h-81q18 34 49.5 89.5t68.5 120t75 130.5t70 120q-52 -41 -113.5 -63.5t-125.5 -22.5v26q46 0 90.5 13t85 36.5t74 56.5t56.5 74h80z" />
    <glyph glyph-name="two" unicode="2" horiz-adv-x="563" 
d="M442 584q75 0 112.5 -30t37.5 -78q0 -43 -29 -93q-28 -48 -71 -81t-92.5 -58.5t-102.5 -45.5t-101.5 -42.5t-87.5 -50t-62 -66.5q44 3 93.5 6t100.5 5t100.5 3t93.5 1l-31 -55q-47 2 -100 2.5t-108 0.5t-108 -0.5t-100 -2.5q35 60 77.5 98.5t88 65t92.5 46.5t90.5 42.5
t81.5 53t66 78.5q33 57 33 102q0 34 -20.5 54.5t-62.5 20.5q-34 0 -63.5 -12t-51.5 -32t-34.5 -45.5t-12.5 -51.5q0 -24 16 -38.5t48 -14.5l-12 -22q-57 0 -86.5 22t-29.5 57q0 33 19 62.5t51 52t75.5 35.5t91.5 13z" />
    <glyph glyph-name="three" unicode="3" horiz-adv-x="522" 
d="M560 479q0 -32 -15.5 -61t-44 -53.5t-68.5 -42.5t-90 -27q40 -14 60.5 -41t20.5 -62q0 -39 -19.5 -76t-53.5 -65t-79.5 -45t-97.5 -17q-60 0 -105 33.5t-59 88.5l23 8q13 -47 50.5 -75.5t87.5 -28.5q36 0 67.5 17.5t55.5 44.5t37.5 59.5t13.5 62.5q0 40 -26 64.5
t-78 24.5l11 23q51 0 93.5 15.5t73 40.5t47.5 57t17 64t-19.5 52.5t-60.5 20.5q-29 0 -53 -9t-41.5 -23.5t-27 -33.5t-9.5 -40q0 -19 10.5 -30.5t32.5 -11.5l-12 -21q-40 0 -60.5 16.5t-20.5 42.5t15 50.5t41 43t61 30t74 11.5q73 0 110 -30t37 -75z" />
    <glyph glyph-name="four" unicode="4" horiz-adv-x="519" 
d="M331 110q-16 -33 -30 -61l-25 -50h-74q15 28 30 55t32 56h-222q34 62 62 102t53 69t49.5 53.5t50.5 56.5t56 77t67 115l71 -29q-32 -60 -64 -101t-64 -71.5t-63.5 -54.5t-61.5 -49.5t-57.5 -57t-52.5 -76.5l200 12q17 32 36 70t39 86h58q-17 -39 -33.5 -77.5t-33.5 -74.5
l137 8l-33 -57z" />
    <glyph glyph-name="five" unicode="5" horiz-adv-x="530" 
d="M322 573q16 -1 41.5 -0.5t58 1t70.5 2.5t78 4l-31 -53q-39 -3 -94 -3q-29 0 -58 0.5t-57 2.5q-13 -23 -28 -48.5t-31 -51t-31.5 -49.5t-29.5 -44l-38 -60h-27q23 36 47.5 75.5t47.5 78.5t44 76t38 68v1zM210 334q24 16 60.5 25.5t72.5 9.5q65 0 98 -29t33 -77
q0 -42 -24.5 -90.5t-66 -89t-97 -67.5t-117.5 -27q-57 0 -99 33t-56 87l23 8q13 -48 48 -76.5t80 -28.5q30 0 59 12.5t54.5 33t46.5 47t36.5 55t24 57.5t8.5 53q0 33 -17.5 53t-52.5 20q-38 0 -80.5 -19t-74.5 -51z" />
    <glyph glyph-name="six" unicode="6" horiz-adv-x="577" 
d="M569 490q1 5 1 15q0 26 -17.5 41.5t-49.5 15.5q-42 0 -83.5 -24t-80 -63t-72 -88.5t-58 -100.5t-38.5 -99.5t-14 -84.5q0 -42 18.5 -65t56.5 -23t73.5 24t63.5 59t44.5 74t16.5 69q0 28 -14.5 45t-43.5 17q-34 0 -65.5 -20t-50.5 -52l-22 10q22 38 63.5 61.5t89.5 23.5
q60 0 90 -26.5t30 -68.5q0 -40 -23 -82.5t-62 -77.5t-91 -57.5t-109 -22.5q-68 0 -102.5 34t-34.5 95q0 45 16 97t45 103.5t69 99.5t87.5 85t100.5 59t108 22q58 0 93.5 -26t35.5 -69h-71z" />
    <glyph glyph-name="seven" unicode="7" horiz-adv-x="484" 
d="M198 580q45 -3 97 -5t105 -3t105.5 0t98.5 3q-29 -48 -59.5 -87t-63.5 -76t-69.5 -76t-76 -87t-83 -108.5t-91.5 -141.5h-82q50 84 98 147t93 111t86 85t76 68t63.5 60t49.5 62q-37 -2 -82 -3t-93.5 -2t-99 -0.5t-99.5 1.5z" />
    <glyph glyph-name="eight" unicode="8" horiz-adv-x="548" 
d="M596 499q0 -32 -17 -58.5t-45.5 -48.5t-66 -41.5t-77.5 -38.5q23 -28 42 -59t19 -70q0 -42 -19.5 -77t-53.5 -60.5t-80.5 -40t-101.5 -14.5q-71 0 -107.5 27t-36.5 70q0 39 21 69.5t55.5 56t78 47t88.5 42.5q-21 26 -37 53.5t-16 60.5q0 36 17 66.5t47.5 53.5t72 36
t90.5 13q62 0 94.5 -24.5t32.5 -62.5zM370 339q32 16 60 33.5t49 37t33 42.5t12 50q0 26 -17 42.5t-49 16.5q-36 0 -62.5 -13t-44 -32t-25.5 -40t-8 -37q0 -28 15.5 -52.5t35.5 -49.5zM377 162q0 33 -18 61t-41 55q-38 -18 -72 -37.5t-60 -42.5t-41.5 -49.5t-15.5 -59.5
q0 -32 20.5 -52.5t62.5 -20.5q45 0 76.5 16t51 39t28.5 48t9 43z" />
    <glyph glyph-name="nine" unicode="9" horiz-adv-x="581" 
d="M113 85q-1 -5 -1 -15q0 -26 17.5 -41t49.5 -15q42 0 83.5 24t80 63t72 88.5t58 100.5t38.5 99.5t14 84.5q0 42 -18.5 65t-56.5 23t-73.5 -23t-62.5 -57t-43.5 -72.5t-16.5 -68.5q0 -29 15.5 -45t46.5 -16q34 0 65.5 20t50.5 52l22 -10q-22 -38 -63.5 -61t-89.5 -23
q-60 0 -91.5 25t-31.5 67q0 39 23.5 80.5t62.5 76t90.5 57t107.5 22.5q68 0 102.5 -34t34.5 -95q0 -45 -16 -97t-45 -103.5t-69 -99.5t-87.5 -85t-100.5 -59t-108 -22q-58 0 -93.5 26t-35.5 69z" />
    <glyph glyph-name="colon" unicode=":" horiz-adv-x="400" 
d="M342 251q-22 0 -36.5 15t-14.5 36t14.5 36t36.5 15q21 0 36 -14.5t15 -36.5q0 -21 -15 -36t-36 -15zM191 -10q-22 0 -36.5 15t-14.5 36t14.5 36t36.5 15q21 0 36 -14.5t15 -36.5q0 -21 -15 -36t-36 -15z" />
    <glyph glyph-name="semicolon" unicode=";" horiz-adv-x="409" 
d="M342 251q-22 0 -36.5 15t-14.5 36t14.5 36t36.5 15q21 0 36 -14.5t15 -36.5q0 -21 -15 -36t-36 -15zM204 -8q-28 -3 -45.5 11.5t-17.5 37.5q0 21 14 36t36 15q24 0 37.5 -15t14.5 -38q0 -23 -14.5 -50.5t-40 -51t-60 -39t-74.5 -15.5v22q37 0 65 12.5t47 28.5t28.5 29.5
t9.5 16.5z" />
    <glyph glyph-name="less" unicode="&#x3c;" horiz-adv-x="528" 
d="M626 526q-38 -31 -87.5 -64t-104.5 -65t-113.5 -61t-114.5 -52q25 -33 48 -68t42 -68t33 -63t22 -53l-42 -19q-13 26 -32.5 59t-44.5 68.5t-53 72.5t-57 72q65 26 132.5 58t132 66.5t122.5 69.5t104 68z" />
    <glyph glyph-name="equal" unicode="=" horiz-adv-x="532" 
d="M509 318h-351l26 45h351zM432 184h-351l26 45h351z" />
    <glyph glyph-name="greater" unicode="&#x3e;" horiz-adv-x="527" 
d="M-8 35q39 31 88.5 64t104.5 65t113.5 61t114.5 52q-25 33 -48 68t-42 68t-33.5 63t-21.5 53l42 19q13 -26 32.5 -59t44.5 -68.5t53 -72.5t57 -72q-65 -26 -132.5 -58t-132 -66.5t-122.5 -69.5t-103 -68z" />
    <glyph glyph-name="question" unicode="?" horiz-adv-x="541" 
d="M512 698q79 0 119.5 -28t40.5 -73q0 -40 -19 -70t-51.5 -58t-75 -57t-89 -66.5t-94.5 -87.5t-91 -119l-22 11q32 59 71.5 105.5t80 84.5t79 70t68 62.5t47.5 62t18 68.5q0 32 -22.5 52t-69.5 20q-33 0 -62.5 -13t-52 -33.5t-35.5 -45.5t-13 -49t16 -39t49 -15l-12 -22
q-59 0 -88.5 21.5t-29.5 56.5q0 31 19 60.5t51.5 52.5t76 37t92.5 14zM190 -12q-22 0 -36.5 15t-14.5 36t14.5 36t36.5 15q21 0 36 -14.5t15 -36.5q0 -21 -15 -36t-36 -15z" />
    <glyph glyph-name="at" unicode="@" horiz-adv-x="1051" 
d="M722 604q135 0 206.5 -59t71.5 -165q0 -40 -10.5 -84.5t-29 -88t-45 -82.5t-59 -69t-69 -48t-76.5 -18q-17 0 -34 4.5t-31 14.5t-23 25.5t-9 38.5q0 11 3 25q-47 -47 -103 -77.5t-113 -30.5q-50 0 -76 23.5t-26 65.5q0 34 14.5 72t39.5 74.5t58.5 70t71.5 59t79.5 40.5
t81.5 15q45 0 69.5 -20.5t24.5 -59.5v-3l48 74h71q-6 -10 -18 -30.5t-26.5 -45.5t-30 -52t-29 -50.5t-23.5 -40.5t-13 -23q-25 -47 -25 -79q0 -23 13 -36t39 -13q43 0 84 34t73.5 85.5t52.5 111.5t20 113q0 45 -16 83t-48 65t-80 42t-111 15q-81 0 -158.5 -25t-145.5 -67.5
t-124.5 -99t-97.5 -119.5t-63.5 -129t-22.5 -127q0 -85 55 -131.5t163 -46.5v-24q-144 0 -218.5 56.5t-74.5 156.5q0 68 25.5 137t71.5 133.5t110 121t140.5 98.5t163.5 66t179 24zM446 29q45 0 91 30.5t82.5 75t60 93t23.5 84.5q0 27 -15 42.5t-45 15.5q-31 0 -62 -14
t-60 -36.5t-54.5 -51.5t-44 -60t-29.5 -61t-11 -54q0 -30 17 -46.5t48 -16.5z" />
    <glyph glyph-name="A" unicode="A" horiz-adv-x="773" 
d="M632 20q54 0 107 38.5t90 102.5l22 -12q-20 -35 -46.5 -64t-57 -49.5t-63 -32t-64.5 -11.5q-58 0 -87.5 22.5t-37 58.5t4.5 81.5t39 92.5q17 30 35 60t37 61q-98 -12 -182 -33q-51 -96 -94 -162t-82 -106.5t-75 -58t-73 -17.5q-49 0 -73.5 20.5t-24.5 52.5
q0 42 28.5 83.5t81 80t127 71.5t166.5 57q5 11 11 22l12 22q42 83 85 140.5t90.5 92.5t101.5 51t117 16h59q-47 -79 -89 -152.5t-84 -145.5q52 3 108 3v-27q-32 0 -62.5 -1t-60.5 -3q-23 -40 -45 -79t-45 -78q-21 -36 -32.5 -71.5t-10 -64t18.5 -46t54 -17.5zM444 367
q85 19 183 30q40 66 84 134t93 141q-52 -1 -98 -15.5t-88 -46.5t-80 -83t-75 -124l-18 -36h-1zM111 19q28 0 59 17t65.5 54t73 95.5t82.5 141.5q-80 -22 -143.5 -51t-108 -61.5t-68.5 -68t-24 -70.5q0 -24 16 -40t49 -16z" />
    <glyph glyph-name="B" unicode="B" horiz-adv-x="888" 
d="M871 522q0 -66 -50 -107t-135 -58q63 -20 94.5 -58.5t31.5 -87.5q0 -43 -21.5 -84t-58 -72.5t-86 -50.5t-104.5 -19q-60 0 -105.5 30t-59.5 79l25 10q14 -42 51.5 -67t85.5 -25q41 0 76.5 18t62 46.5t41.5 63t15 68.5q0 57 -45 96.5t-138 39.5l16 28q54 0 97 12
t73.5 34.5t46.5 53.5t16 69q0 63 -61 106q-71 -26 -124.5 -87.5t-104.5 -163.5q-58 -116 -109.5 -194.5t-99 -126.5t-92.5 -68.5t-90 -20.5q-44 0 -70 24.5t-26 62.5q0 26 15 56t48 59l18 -19q-28 -26 -40 -49t-12 -43q0 -28 20 -45t49 -17q28 0 60.5 21t70.5 66.5t82.5 118
t96.5 176.5q29 58 58.5 103t61.5 78.5t68 57t78 37.5q-33 14 -75.5 22t-95.5 8q-67 0 -124.5 -16t-100 -42t-66.5 -60t-24 -70q0 -24 16.5 -39t49.5 -15q36 0 72 24.5t59 65.5l22 -14q-26 -46 -72.5 -74t-96.5 -28q-62 0 -94 22.5t-32 58.5q0 41 32 80t87 69t129.5 48
t159.5 18q61 0 112 -12t92 -32q55 12 122 12v-26q-23 0 -43 -2t-39 -6q42 -29 64 -64.5t22 -73.5z" />
    <glyph glyph-name="C" unicode="C" horiz-adv-x="746" 
d="M960 632q0 -50 -44.5 -100.5t-122.5 -92.5t-184.5 -69.5t-230.5 -31.5q-30 -54 -44.5 -101t-14.5 -85q0 -65 41 -101t122 -36q46 0 93 12t91 33.5t83.5 52t69.5 67.5l20 -13q-32 -40 -74.5 -73t-91.5 -56t-102 -36t-105 -13q-111 0 -168 44.5t-57 123.5q0 80 58 183
q-100 7 -152 43.5t-52 90.5q0 39 22.5 76.5t61.5 66.5t90.5 47t110.5 18v-24q-41 0 -78 -16.5t-65.5 -43t-45.5 -58.5t-17 -62q0 -43 36 -72t106 -37q47 77 107.5 140t128.5 108t140 69.5t143 24.5q61 0 93.5 -20.5t32.5 -56.5zM818 683q-53 0 -109.5 -22.5t-112 -64
t-107.5 -100t-95 -130.5q105 4 195 30t156 64.5t103.5 84t37.5 87.5q0 23 -17 36.5t-50 13.5z" />
    <glyph glyph-name="D" unicode="D" horiz-adv-x="905" 
d="M875 669q-81 0 -140 -25q60 -49 93.5 -119t33.5 -152q0 -68 -24.5 -137t-68.5 -124.5t-106 -90t-137 -34.5q-53 0 -93 29.5t-54 77.5l24 9q12 -41 46 -65.5t78 -24.5q37 0 71 18.5t63.5 49t53.5 71t41 84t26.5 87.5t9.5 83q0 69 -24 125t-68 96q-54 -32 -97 -88t-86 -141
q-58 -116 -109.5 -194.5t-99 -126.5t-92.5 -68.5t-90 -20.5q-44 0 -70 24.5t-26 62.5q0 26 15 56t48 59l18 -19q-28 -26 -40 -49t-12 -43q0 -28 20 -45t49 -17q28 0 60.5 21t70.5 66.5t82.5 118t96.5 176.5q51 101 104 163.5t121 95.5q-35 23 -78.5 35t-93.5 12
q-56 0 -105.5 -16.5t-86 -42.5t-58 -60t-21.5 -68q0 -25 15.5 -40t47.5 -15q38 0 74.5 24t59.5 63l21 -14q-26 -44 -72.5 -71t-97.5 -27q-62 0 -93.5 23t-31.5 60q0 39 27.5 77t74.5 68t110 48t134 18q60 0 112 -15t97 -43q38 14 81 20t94 6z" />
    <glyph glyph-name="E" unicode="E" horiz-adv-x="690" 
d="M884 645q0 -26 -24.5 -58t-68 -65t-102 -62.5t-126.5 -48.5v-9q0 -24 -21 -44.5t-52 -40t-67.5 -39.5t-67.5 -44t-52 -53t-21 -67q0 -49 36 -74.5t100 -25.5q48 0 97 12t94.5 33.5t85.5 52t70 67.5l20 -13q-32 -40 -75.5 -73t-93.5 -56t-105 -36t-109 -13
q-93 0 -145.5 32t-52.5 93q0 39 20 68t50.5 51.5t66 41t67.5 37t54.5 38.5t26.5 47q-54 -9 -109 -9q-59 0 -106 9t-80 25.5t-50.5 39t-17.5 49.5q0 33 22.5 63.5t61 54.5t89.5 38.5t108 14.5v-24q-41 0 -78 -13t-65 -34t-44.5 -47t-16.5 -51q0 -44 51 -71t142 -27q24 0 47 2
t46 6q-2 15 -5 32t-3 39q0 44 24.5 83.5t66 69t95.5 47t114 17.5q58 0 81 -19t23 -43zM560 434q59 18 109 44.5t86 55.5t56 58t20 50q0 17 -13.5 28t-43.5 11q-58 0 -99.5 -21.5t-68.5 -52t-39.5 -65t-12.5 -59.5q0 -14 1.5 -25.5t3.5 -21.5z" />
    <glyph glyph-name="F" unicode="F" horiz-adv-x="668" 
d="M488 727q43 0 95 -5t104 -11t98.5 -11t78.5 -5v-36q-64 0 -114.5 -14.5t-92.5 -45.5t-78 -81t-72 -121v-1h153q-44 -50 -44 -96q0 -34 27 -55l-16 -27q-45 30 -45 79q0 24 14 54h-111q-54 -102 -101.5 -172t-92.5 -112.5t-87.5 -61t-85.5 -18.5q-44 0 -70 24.5t-26 62.5
q0 26 15 56t48 59l18 -19q-28 -26 -40 -49t-12 -43q0 -28 20 -45t49 -17q27 0 57 18.5t65.5 59t76 105t88.5 155.5h-100l26 45h97q32 63 64.5 111.5t68.5 83t77 56.5t90 34l-70 8t-67 7t-60 4.5t-49 1.5q-63 0 -113.5 -16.5t-86 -43t-54.5 -59.5t-19 -66q0 -26 16.5 -41.5
t49.5 -15.5q38 0 75 24t60 63l22 -14q-26 -45 -72.5 -71.5t-98.5 -26.5q-63 0 -95.5 23.5t-32.5 61.5t26.5 75.5t74 67t113.5 48t146 18.5z" />
    <glyph glyph-name="G" unicode="G" horiz-adv-x="864" 
d="M961 628q0 -48 -44 -98t-122 -91.5t-184.5 -69.5t-231.5 -32q-34 -66 -34 -117q0 -49 32 -78t96 -29q36 0 72.5 11.5t68.5 30.5t58 44t43 53l4 6h76l-2 -4l-207 -368q-52 -93 -121.5 -140.5t-141.5 -47.5q-54 0 -81.5 19.5t-27.5 49.5q0 28 19.5 55.5t53.5 49t79.5 34.5
t97.5 13v-24q-43 0 -80.5 -10t-65.5 -27t-44.5 -39.5t-16.5 -47.5q0 -20 15 -33.5t46 -13.5q23 0 48 12t50.5 34.5t50.5 53.5t46 69l135 238q-43 -20 -91 -32t-98 -12q-95 0 -143 37.5t-48 100.5q0 51 31 115q-95 7 -148.5 41.5t-53.5 90.5q0 40 22.5 77.5t61.5 66.5t91 47
t111 18v-26q-42 0 -79.5 -16.5t-66 -42.5t-45 -58t-16.5 -63q0 -44 36.5 -71.5t102.5 -35.5q36 62 93.5 123.5t128 110t148.5 79t154 30.5q63 0 94 -23t31 -58zM821 680q-59 0 -121.5 -28.5t-119.5 -74t-106 -102t-81 -112.5q107 4 197.5 31t156.5 65.5t103.5 83.5t37.5 85
q0 23 -16.5 38t-51.5 15z" />
    <glyph glyph-name="H" unicode="H" horiz-adv-x="903" 
d="M1041 710q35 0 52.5 -16t17.5 -41q0 -38 -32 -76t-88 -74t-131.5 -67.5t-161.5 -55.5q-30 -50 -50.5 -89.5t-33 -71.5t-18 -58.5t-5.5 -49.5q0 -46 24 -71t72 -25q34 0 71.5 12t75 33.5t73 52t65.5 67.5l20 -13q-32 -40 -71 -73t-81 -56t-85 -36t-83 -13q-75 0 -112.5 35
t-37.5 98q0 45 20.5 103.5t65.5 136.5q-29 -7 -69 -17t-78 -21q-51 -94 -96.5 -158t-88 -103t-83.5 -56t-83 -17q-51 0 -78.5 22.5t-27.5 57.5q0 46 38 86t95.5 72.5t125 58t127.5 44.5q22 41 48.5 94t59 104t72.5 92.5t89 60.5q-54 11 -101.5 17t-79.5 6q-63 0 -113 -17.5
t-85.5 -44.5t-54 -60t-18.5 -65q0 -25 16 -40t48 -15q38 0 74.5 24t59.5 63l19 -12q-13 -23 -31.5 -41t-40.5 -31.5t-46.5 -20.5t-49.5 -7q-63 0 -94.5 23t-31.5 60q0 38 25 75.5t71 67.5t110 49t141 19q43 0 81 -5t73 -11t67.5 -11t64.5 -5v-36q-39 0 -70 -13.5t-62 -47
t-66 -92.5t-81 -151q22 6 63.5 16.5t87.5 21.5q47 72 101 130t109 98.5t107.5 62.5t95.5 22zM1069 650q0 14 -8 23.5t-26 9.5q-28 0 -65.5 -19.5t-79.5 -54.5t-86 -84.5t-85 -110.5q73 22 137 50.5t111.5 59.5t74.5 63.5t27 62.5zM109 16q51 0 113.5 67t145.5 215
q-53 -17 -110.5 -40t-105 -51t-78 -61t-30.5 -70q0 -26 17.5 -43t47.5 -17z" />
    <glyph glyph-name="I" unicode="I" horiz-adv-x="511" 
d="M784 658q-34 0 -68.5 -14.5t-69 -45.5t-69 -81t-70.5 -121q-58 -116 -109.5 -194.5t-99 -126.5t-92.5 -68.5t-90 -20.5q-44 0 -70 24.5t-26 62.5q0 26 15 56t48 59l18 -19q-28 -26 -40 -49t-12 -43q0 -28 20 -45t49 -17q28 0 60.5 21t70.5 66.5t82.5 118t96.5 176.5
q61 123 124.5 190t131.5 93q-54 10 -108 17t-99 7q-61 0 -110.5 -17.5t-84 -45t-53.5 -61t-19 -64.5q0 -24 15.5 -39t47.5 -15q38 0 75 24t60 63l22 -14q-26 -45 -72.5 -71.5t-98.5 -26.5q-62 0 -93.5 23t-31.5 60q0 38 26 75.5t72.5 67.5t111.5 49t143 19q45 0 86.5 -5
t80 -11t72 -11t61.5 -5v-36z" />
    <glyph glyph-name="J" unicode="J" horiz-adv-x="533" 
d="M770 661q-34 0 -68 -14.5t-68.5 -45.5t-69.5 -81t-70 -121q-46 -93 -93 -190.5t-99 -187.5q46 5 89.5 15t82 27.5t71.5 44.5t58 67l22 -10q-28 -47 -65.5 -78t-82 -51t-93 -30t-99.5 -15q-38 -62 -78 -115.5t-84.5 -93t-93.5 -62t-103 -22.5q-39 0 -69 10t-50.5 26.5
t-31 38.5t-10.5 47q0 34 19 66q27 47 73 71.5t103.5 36t123.5 14t134 6.5q54 93 103 193.5t94 191.5q61 123 124.5 189.5t131.5 92.5q-59 10 -114.5 17t-90.5 7q-62 0 -112.5 -17t-86 -44t-54.5 -60t-19 -66q0 -25 17 -39.5t50 -14.5q38 0 75 24t60 63l22 -15
q-26 -45 -73 -71.5t-99 -26.5q-63 0 -95.5 22.5t-32.5 60.5t25.5 75.5t71.5 67.5t109.5 49t140.5 19q44 0 87.5 -5t83.5 -11t75.5 -11t63.5 -5zM-82 -276q37 0 73 20t71 54.5t69.5 82t67.5 102.5q-62 -3 -120 -5t-108 -10.5t-88 -27.5t-59 -55q-18 -30 -18 -61
q0 -40 28.5 -69.5t82.5 -29.5z" />
    <glyph glyph-name="K" unicode="K" horiz-adv-x="834" 
d="M765 660q-34 0 -65 -14.5t-62 -45.5t-62.5 -81t-67.5 -121q-58 -116 -109.5 -194.5t-99 -126.5t-92.5 -68.5t-90 -20.5q-44 0 -70 24.5t-26 62.5q0 26 15 56t48 59l18 -19q-28 -26 -40 -49t-12 -43q0 -28 20 -45t49 -17q28 0 60.5 21t70.5 66.5t82.5 118t96.5 176.5
q63 124 121 191.5t123 92.5q-47 9 -98.5 15.5t-105.5 6.5q-56 0 -103.5 -17t-82.5 -43.5t-54.5 -59.5t-19.5 -65q0 -26 16.5 -41.5t49.5 -15.5q38 0 75 24t60 63l22 -14q-26 -45 -72.5 -71.5t-98.5 -26.5q-63 0 -95.5 23.5t-32.5 61.5t26.5 75.5t73 67t110 48t136.5 18.5
q48 0 92 -5t81 -11t66.5 -11t50.5 -5zM995 702q44 0 70.5 -24.5t26.5 -64.5l-54 -1q0 29 -12.5 46t-35.5 17q-25 0 -45 -15.5t-39 -40.5t-39.5 -56.5t-45.5 -63.5q-32 -41 -73.5 -77t-101.5 -56q43 -9 60 -25t17 -36q0 -27 -17.5 -54t-38.5 -55.5t-38.5 -58.5t-17.5 -61
q0 -23 15.5 -36.5t44.5 -13.5q26 0 55.5 9.5t58.5 26.5t57.5 40.5t52.5 52.5l22 -12q-28 -35 -62.5 -64t-72 -49.5t-77 -32t-76.5 -11.5q-48 0 -72 20t-24 55q0 38 18.5 72.5t41 64.5t41 56t18.5 48q0 20 -28 32t-100 12l16 28q52 0 90.5 20.5t70 52t58.5 69.5t55 74
q18 23 37.5 43.5t42 36t48.5 24.5t57 9z" />
    <glyph glyph-name="L" unicode="L" horiz-adv-x="831" 
d="M928 639q0 -38 -30 -77.5t-82.5 -74.5t-123 -60.5t-152.5 -34.5q-88 -174 -162 -266q30 -13 54 -25.5t48 -22t50 -15.5t59 -6q64 0 114.5 24t69.5 63l24 -12q-15 -31 -37 -56t-49 -43t-57.5 -27.5t-61.5 -9.5q-36 0 -66.5 8.5t-59 22.5t-56.5 31t-61 34
q-53 -55 -99.5 -78t-95.5 -23q-33 0 -56 8.5t-37.5 21.5t-20.5 29.5t-6 33.5q0 45 38.5 74t101.5 29q70 0 147 -33q62 82 141 236q-68 0 -126 8.5t-101 24.5t-67 39.5t-24 54.5t20 61t55 53.5t82 37.5t101 14v-26q-38 0 -71 -13t-57 -32.5t-38 -43t-14 -43.5q0 -26 19.5 -46
t53.5 -34t80.5 -21.5t99.5 -7.5q46 89 89 146t85.5 90t85 46t86.5 13q59 0 83.5 -20.5t24.5 -50.5zM811 682q-27 0 -55 -11t-59 -40t-66 -80t-77 -132q69 10 125.5 34.5t96.5 56t62 66t22 63.5q0 19 -11.5 31.5t-37.5 12.5v-1zM137 19q22 0 43 8.5t40.5 22t37 31t34.5 36.5
q-35 18 -70.5 28t-66.5 10q-45 0 -71 -19t-26 -51q0 -24 19 -45t61 -21h-1z" />
    <glyph glyph-name="M" unicode="M" horiz-adv-x="1087" 
d="M956 16q24 0 49.5 10t50.5 28.5t48 44.5t41 58l22 -12q-20 -35 -46.5 -64t-55.5 -49.5t-60 -32t-61 -11.5q-65 0 -98 28.5t-33 79.5q0 62 49 147q57 99 123.5 204t144.5 221q-33 -1 -70 -15.5t-76.5 -46.5t-81 -83t-83.5 -124q-65 -112 -109 -190.5t-76.5 -127.5t-58 -71
t-52.5 -22q-57 0 -57 62q0 38 21 94.5t63 128.5q44 75 108.5 176.5t142.5 217.5q-37 -1 -78.5 -16.5t-86 -52.5t-91 -99.5t-94.5 -157.5q-47 -95 -89.5 -161.5t-83 -109.5t-79 -62.5t-78.5 -19.5q-50 0 -74.5 20.5t-24.5 52.5q0 31 21 67l37 -2q-16 -28 -16 -54
q0 -24 16 -40t49 -16q126 0 290 326q52 105 103.5 173.5t101.5 109.5t99.5 57.5t97.5 16.5h59q-78 -131 -145 -248.5t-135 -234.5q-37 -63 -56 -109.5t-19 -69.5q0 -20 15 -20t34 22t47.5 69t69 119t98.5 173q46 80 92 137t91.5 93t90.5 53t90 17h59q-78 -131 -145 -248.5
t-135 -234.5q-23 -39 -34.5 -72t-11.5 -59q0 -32 18.5 -50t55.5 -18z" />
    <glyph glyph-name="N" unicode="N" horiz-adv-x="870" 
d="M1126 708q53 0 76.5 -23t23.5 -58q0 -36 -23 -76l-37 20q16 28 16 54q0 25 -16.5 41t-48.5 16q-67 0 -133 -74.5t-132 -207.5q-45 -90 -75.5 -148t-57.5 -99.5t-56 -75.5t-72 -77h-40q26 92 36.5 159t13.5 119t3 94t5 85t19 91t45 113q-29 -18 -78.5 -79t-109.5 -180
q-58 -116 -106 -194.5t-90.5 -126.5t-82 -68.5t-81.5 -20.5q-52 0 -75.5 22t-23.5 55q0 36 24 75l36 -16q-16 -28 -16 -53t16.5 -41t48.5 -16t65.5 21t72 67t82.5 118.5t96 176.5q42 83 80.5 140.5t70.5 92.5t56 51t38 16h48q-26 -70 -38 -128.5t-17 -110t-6 -97.5t-4.5 -91
t-13 -91t-30.5 -98q21 28 41.5 58t42 67.5t45.5 83.5t54 106q39 78 76 136t74.5 96.5t76.5 57.5t82 19z" />
    <glyph glyph-name="O" unicode="O" horiz-adv-x="879" 
d="M679 366q-71 0 -108.5 33t-37.5 84q0 39 21 79.5t57 73t83.5 53.5t100.5 21q69 -1 103.5 -37t34.5 -99q0 -56 -24 -121t-65.5 -130t-98 -125.5t-121.5 -106.5t-136 -74t-141 -28q-91 0 -142.5 45t-51.5 125q0 46 18.5 98.5t50.5 106t76.5 105.5t96.5 97t110 81t117 58
l9 -20q-47 -19 -94.5 -54t-91.5 -80t-83 -97.5t-68 -105.5t-45.5 -103.5t-16.5 -92.5q0 -64 35 -99t96 -35q57 0 116 29t115 76t104.5 108t85.5 124.5t58 125.5t21 111q0 45 -18.5 69t-50.5 24q-36 0 -69.5 -21t-59 -52t-41 -67t-15.5 -66q0 -40 22 -63.5t56 -23.5z" />
    <glyph glyph-name="P" unicode="P" horiz-adv-x="821" 
d="M773 655q57 -35 92 -83.5t35 -103.5q0 -44 -23.5 -86.5t-64 -75.5t-95 -53.5t-117.5 -20.5q-53 0 -104 16l15 26q33 -9 66 -9q54 0 99 19.5t78 51t51.5 72.5t18.5 83q0 48 -24 86t-66 66q-65 -29 -115.5 -89t-99.5 -157q-58 -116 -109.5 -194.5t-99 -126.5t-92.5 -68.5
t-90 -20.5q-44 0 -70 24.5t-26 62.5q0 26 15 56t48 59l18 -19q-28 -26 -40 -49t-12 -43q0 -28 20 -45t49 -17q28 0 60.5 21t70.5 66.5t82.5 118t96.5 176.5q55 110 114.5 175t136.5 95q-38 17 -83 26.5t-93 9.5q-66 0 -120.5 -15.5t-93.5 -41.5t-60 -59.5t-21 -68.5
q0 -26 16.5 -41.5t48.5 -15.5q38 0 74.5 24t59.5 63l22 -12q-26 -46 -73 -73.5t-98 -27.5q-63 0 -95 23.5t-32 61.5q0 39 27.5 76.5t76.5 67.5t117.5 48t149.5 18q57 0 112.5 -13t103.5 -36q32 9 68 13t78 4v-26q-60 0 -106 -13z" />
    <glyph glyph-name="Q" unicode="Q" horiz-adv-x="835" 
d="M805 140q-20 -32 -46 -58.5t-56 -45.5t-62 -29t-64 -10q-49 0 -99 18t-99 43q-53 -31 -107.5 -48.5t-108.5 -17.5q-32 0 -55.5 8t-38.5 21.5t-22.5 30.5t-7.5 35q0 22 9 40.5t24 32.5t35 22t43 8q24 0 51 -7.5t55.5 -19t59.5 -26t63 -28.5q58 46 110 107.5t91 127
t61.5 129t22.5 113.5q0 48 -23 74t-66 26q-44 0 -83.5 -23t-69.5 -59t-47.5 -79.5t-17.5 -83.5q0 -51 32 -84.5t100 -33.5l-5 -24q-102 0 -152 41.5t-50 104.5q0 49 24 97t64.5 85.5t95 61t116.5 23.5q79 0 118 -37t39 -102q0 -55 -24.5 -120t-66.5 -130.5t-99 -127
t-122 -107.5q37 -14 75 -22.5t77 -8.5q63 0 117.5 26t83.5 68zM168 19q42 0 85.5 16t86.5 44q-58 31 -109 56.5t-90 25.5q-28 0 -50 -19.5t-22 -50.5q0 -28 25 -50.5t76 -22.5z" />
    <glyph glyph-name="R" unicode="R" horiz-adv-x="837" 
d="M917 139q-28 -35 -62 -64t-71 -49.5t-75 -32t-74 -11.5q-48 0 -72 20t-24 55q0 39 30 92q13 22 28.5 43.5t29 41t22.5 36t9 30.5q0 20 -27 31.5t-97 11.5l16 28q55 0 101.5 11t80.5 32.5t53 53t19 72.5q0 64 -59 106q-71 -26 -124.5 -87.5t-104.5 -163.5
q-58 -116 -109.5 -194.5t-99 -126.5t-92.5 -68.5t-90 -20.5q-44 0 -70 24.5t-26 62.5q0 26 15 56t48 59l18 -19q-28 -26 -40 -49t-12 -43q0 -28 20 -45t49 -17q28 0 60.5 21t70.5 66.5t82.5 118t96.5 176.5q29 58 59 103t62.5 78.5t68.5 56.5t78 37q-33 14 -76 22t-97 8
q-67 0 -124.5 -15.5t-99.5 -41t-65.5 -59.5t-23.5 -71q0 -24 15.5 -39t47.5 -15q38 0 75 24t60 63l22 -14q-26 -45 -72.5 -71.5t-98.5 -26.5q-62 0 -93.5 23t-31.5 60q0 41 30 79t82.5 67.5t123.5 47t154 17.5q66 0 120 -12t96 -32q57 12 125 12v-26q-46 0 -85 -9
q43 -29 65.5 -64.5t22.5 -73.5q0 -33 -14 -59t-39.5 -46.5t-61 -34.5t-78.5 -23q28 -9 39.5 -22.5t11.5 -30.5q0 -18 -10.5 -38.5t-24.5 -41.5t-29 -41t-25 -37q-24 -41 -24 -70q0 -23 15.5 -36.5t44.5 -13.5q25 0 53 9.5t56.5 26.5t56.5 40.5t52 52.5z" />
    <glyph glyph-name="S" unicode="S" horiz-adv-x="670" 
d="M960 646q0 -36 -33.5 -78t-92 -79t-137.5 -64t-170 -34q-57 -113 -107.5 -189.5t-98.5 -123.5t-94.5 -67t-95.5 -20q-47 0 -75 26t-28 64q0 26 14 54.5t46 57.5l18 -19q-26 -24 -37.5 -46.5t-11.5 -42.5q0 -29 22.5 -47.5t54.5 -18.5q31 0 65 20.5t72 65t81.5 115
t93.5 171.5q-109 4 -166.5 37t-57.5 83q0 34 21.5 65t58.5 55t86 38t104 14v-24q-38 0 -72.5 -13t-61 -34t-42.5 -47t-16 -51q0 -39 40.5 -66t118.5 -32q33 62 78.5 116t98.5 93.5t111.5 62.5t117.5 23q48 0 71.5 -18.5t23.5 -45.5v-1zM540 419q75 7 141.5 32t116 58
t78.5 69.5t29 66.5q0 17 -11.5 28.5t-35.5 11.5q-44 0 -88 -21t-85.5 -57t-78 -85t-65.5 -104z" />
    <glyph glyph-name="T" unicode="T" horiz-adv-x="547" 
d="M1036 696q-46 -51 -105.5 -81.5t-112.5 -30.5q-43 0 -74.5 12.5t-60.5 29.5q-35 -23 -76 -78.5t-89 -149.5q-58 -116 -109.5 -194.5t-99 -126.5t-92.5 -68.5t-90 -20.5q-44 0 -70 24.5t-26 62.5q0 26 15 56t48 59l18 -19q-28 -26 -40 -49t-12 -43q0 -28 20 -45t49 -17
t61.5 21t70.5 66.5t82 118t96 176.5q30 58 56 101.5t50.5 74t48 50.5t46.5 31q-32 20 -68.5 34.5t-90.5 14.5q-51 0 -98.5 -16.5t-83.5 -43t-57.5 -60.5t-21.5 -68q0 -25 16 -39.5t48 -14.5q42 0 80.5 24t61.5 63l19 -12q-26 -45 -74.5 -72.5t-101.5 -27.5q-62 0 -94 22.5
t-32 59.5q0 40 27.5 78t75 68t111.5 48t137 18q45 0 79.5 -5.5t62.5 -14t51.5 -18t47.5 -18.5t50 -15t58 -6q48 0 96.5 16.5t81.5 42.5z" />
    <glyph glyph-name="U" unicode="U" horiz-adv-x="775" 
d="M641 17q51 0 103.5 38.5t89.5 102.5l22 -12q-20 -35 -46.5 -64t-56.5 -49.5t-61.5 -32t-62.5 -11.5q-65 0 -98.5 29t-33.5 81q0 21 6 45q-57 -72 -118.5 -113t-114.5 -41q-62 0 -93.5 27.5t-31.5 77.5q0 48 20.5 94t50.5 91t66 89t66 89t50.5 90.5t20.5 93.5
q0 29 -19.5 46.5t-67.5 17.5q-47 0 -91.5 -16t-80 -42.5t-57 -60t-21.5 -68.5q0 -25 15 -40.5t47 -15.5q38 0 74.5 24t59.5 63l21 -14q-26 -44 -72.5 -71t-97.5 -27q-62 0 -93 23.5t-31 60.5q0 38 27.5 75.5t73.5 67.5t104.5 48.5t120.5 18.5q80 0 114.5 -29t34.5 -81
q0 -46 -19.5 -92.5t-49.5 -92.5t-64 -91.5t-64 -90t-49.5 -87.5t-19.5 -83q0 -32 17.5 -49t52.5 -17q30 0 63.5 16.5t68 46t68 71.5t63.5 93q60 105 128.5 217.5t148.5 237.5h69q-78 -131 -145 -248.5t-135 -234.5q-44 -75 -44 -127q0 -35 19.5 -54t57.5 -19z" />
    <glyph glyph-name="V" unicode="V" horiz-adv-x="808" 
d="M349 729q41 0 69.5 -7.5t46 -20.5t25.5 -31.5t8 -40.5q0 -31 -13 -68t-33 -75.5t-45 -78t-49.5 -75t-45.5 -65.5t-33 -51q-46 -79 -46 -132q0 -67 72 -67q56 0 115 28.5t114 76t103.5 108t85 124t57.5 125t21 110.5q0 46 -19 70.5t-53 24.5l8 27q69 -1 103.5 -37
t34.5 -99q0 -56 -24 -121t-65.5 -130t-97.5 -125.5t-121 -106.5t-135 -74t-140 -28q-63 0 -94.5 27.5t-31.5 77.5q0 64 49 150q12 20 33 50t46 65t50.5 73.5t46.5 76t34.5 71.5t13.5 61q0 29 -19.5 46.5t-67.5 17.5q-47 0 -92 -16t-80 -42.5t-57 -60.5t-22 -69
q0 -25 15.5 -40t47.5 -15q33 0 67 24t57 63l21 -14q-26 -45 -69.5 -71.5t-90.5 -26.5q-62 0 -93.5 23t-31.5 60q0 39 27.5 76.5t73.5 67.5t104.5 48.5t121.5 18.5z" />
    <glyph glyph-name="W" unicode="W" horiz-adv-x="1228" 
d="M1151 706q69 -1 103.5 -37t34.5 -99q0 -50 -22.5 -113t-61 -128t-91 -127t-111.5 -110t-122 -77.5t-124 -29.5q-69 0 -103 28.5t-34 79.5q0 62 49 147q24 42 43 75t35 61l30 52.5t28 48.5q37 63 58.5 109t21.5 69q0 22 -19 22q-15 0 -34 -22t-47.5 -68.5t-69 -119
t-98.5 -172.5q-40 -70 -84 -127t-88.5 -97.5t-87 -63t-80.5 -22.5q-57 0 -87 27t-30 76q0 31 12 69t38 83q12 20 33 50t46 65t50.5 73.5t46.5 76t34.5 71.5t13.5 61q0 29 -19.5 46.5t-67.5 17.5q-47 0 -92 -16t-80 -42.5t-57 -60.5t-22 -69q0 -25 15.5 -40t47.5 -15
q33 0 67 24t57 63l21 -14q-26 -45 -69.5 -71.5t-90.5 -26.5q-62 0 -93.5 23t-31.5 60q0 39 27.5 76.5t73.5 67.5t104.5 48.5t121.5 18.5q41 0 69.5 -7.5t46 -20.5t25.5 -31.5t8 -40.5q0 -31 -13 -68t-33 -75.5t-45 -78t-49.5 -75t-45.5 -65.5t-33 -51q-24 -42 -35.5 -75.5
t-11.5 -59.5q0 -30 16 -46.5t47 -16.5t68 20.5t75.5 57.5t77.5 89t76 115q65 112 109 190.5t76.5 127.5t58 71t52.5 22q28 0 44 -14.5t16 -46.5q0 -34 -20 -88.5t-66 -135.5q-11 -18 -20.5 -35.5t-22.5 -40t-31.5 -53.5t-45.5 -78q-45 -78 -45 -130q0 -33 20 -51.5t61 -18.5
q47 0 98.5 30.5t101.5 80t94.5 112t78.5 126t54 122.5t20 101q0 46 -19 70.5t-53 24.5z" />
    <glyph glyph-name="X" unicode="X" horiz-adv-x="952" 
d="M1044 703q58 0 86.5 -22t28.5 -56q0 -28 -18 -59l-43 4q15 25 15 49q0 26 -18.5 42.5t-56.5 16.5q-45 0 -97 -23.5t-104 -65t-101.5 -98t-90.5 -122.5q-3 -6 -6.5 -12t-7.5 -12l-12 -21q-57 -107 -57 -182q0 -61 37 -95t110 -34q39 0 81.5 12t84.5 33.5t80.5 52
t70.5 67.5l20 -13q-34 -40 -76 -73t-88.5 -56t-94.5 -36t-94 -13q-103 0 -155.5 42.5t-52.5 118.5v12q-84 -81 -177.5 -126.5t-184.5 -45.5q-53 0 -82 23.5t-29 58.5q0 32 25 68.5t80 70.5l16 -22q-40 -26 -58 -54.5t-18 -53.5q0 -28 20.5 -46t56.5 -18q48 0 101 22
t105.5 62.5t103 97.5t93.5 128l6 12t7 12l12 21q35 66 52 119t17 93q0 49 -23.5 75t-68.5 26q-47 0 -88 -17.5t-71.5 -46t-48.5 -64t-18 -70.5q0 -42 30.5 -68t92.5 -26l-5 -24q-82 0 -123.5 31t-41.5 82q0 42 23.5 83.5t63 74.5t92 53t111.5 20q75 0 112.5 -36.5
t37.5 -101.5q0 -7 -0.5 -13.5t-1.5 -14.5q40 38 83 68.5t86.5 52.5t87 33.5t84.5 11.5z" />
    <glyph glyph-name="Y" unicode="Y" horiz-adv-x="740" 
d="M904 695q-13 -23 -37 -65t-55 -96.5t-67.5 -117t-74 -127t-74 -127.5t-68 -117t-56 -96.5t-37.5 -65.5q-52 -93 -122 -140.5t-142 -47.5q-54 0 -81.5 19.5t-27.5 49.5q0 28 19.5 55.5t53.5 49.5t79.5 35t97.5 13v-24q-45 0 -82.5 -10t-65.5 -27.5t-43.5 -40t-15.5 -46.5
q0 -20 15 -33.5t46 -13.5q23 0 48.5 12t51 34t50 53t45.5 69q10 18 27 47.5t39.5 68t48.5 83.5t54 93q-48 -47 -96 -72.5t-92 -25.5q-60 0 -89.5 24.5t-29.5 69.5q0 56 47 138q16 29 44.5 71t56.5 87t48 89t20 77q0 29 -19 46t-67 17q-47 0 -91.5 -16t-80 -42.5t-57 -60
t-21.5 -68.5q0 -25 15 -40.5t47 -15.5q38 0 74.5 24t59.5 63l21 -14q-26 -44 -72.5 -71t-97.5 -27q-62 0 -93 23.5t-31 60.5q0 38 27.5 75.5t73.5 67.5t104.5 48.5t120.5 18.5q42 0 70.5 -7.5t46 -20.5t25 -31t7.5 -40q0 -39 -19.5 -85.5t-46.5 -93.5t-55.5 -89t-45.5 -72
q-44 -74 -44 -120q0 -55 65 -55q28 0 59.5 13.5t63.5 38.5t63 60t60 79q37 63 72.5 124t66 113.5t54 93t35.5 63.5z" />
    <glyph glyph-name="Z" unicode="Z" horiz-adv-x="829" 
d="M866 650q-66 0 -109.5 -14.5t-78 -45.5t-66.5 -78.5t-76 -113.5l-18 -28h144v-25h-161q-46 -69 -86.5 -125t-72.5 -97q59 -26 117 -47.5t124 -21.5q64 0 114.5 24t69.5 63l24 -12q-15 -31 -38 -56t-51 -43t-60.5 -27.5t-65.5 -9.5t-66 8.5t-66 22.5t-65.5 31t-65.5 34
q-53 -55 -99.5 -78t-95.5 -23q-33 0 -56 8t-37 21.5t-20.5 29.5t-6.5 33q0 45 37 74t102 29q70 0 148 -33q27 35 62.5 85t76.5 110h-145v25h161l18 27q38 57 69 103t61 80.5t63 58.5t74 38q-66 11 -128 18.5t-113 7.5q-58 0 -107.5 -14.5t-86 -38.5t-57 -56t-20.5 -68
q0 -24 15.5 -39t47.5 -15q36 0 70 21t54 56l22 -14q-23 -40 -66.5 -64t-93.5 -24q-62 0 -93.5 23t-31.5 60q0 41 27 77.5t75 64.5t113 44t142 16q43 0 95 -5t104 -11t98.5 -11t78.5 -5zM103 18q22 0 43 8.5t40.5 22t37 31t34.5 36.5q-35 19 -71 29t-67 10q-45 0 -70.5 -19.5
t-25.5 -51.5q0 -25 19 -45.5t60 -20.5z" />
    <glyph glyph-name="bracketleft" unicode="[" horiz-adv-x="342" 
d="M428 685q-48 -86 -104 -184t-114.5 -199.5t-116.5 -200.5t-110 -186q34 2 75 2t75 -2l-26 -45q-50 2 -110.5 2t-110.5 -2q58 97 123.5 208t130.5 223.5t127.5 222.5t116.5 206q21 -1 47.5 -1.5t55.5 -0.5t59 0.5t59 1.5l-26 -45q-38 -2 -79 -2t-70 2h-2z" />
    <glyph glyph-name="backslash" unicode="\" horiz-adv-x="420" 
d="M124 720q21 -86 48.5 -193t59 -223.5t65.5 -237t67 -234.5h-61q-33 114 -67 234.5t-65.5 237t-59 223.5t-48.5 193h61z" />
    <glyph glyph-name="bracketright" unicode="]" horiz-adv-x="445" 
d="M85 -84q48 85 104 183.5t114.5 199.5t116.5 200t110 186q-34 -2 -75 -2t-75 2l26 45q50 -2 110 -2t110 2q-58 -98 -123 -208.5t-130 -223t-127.5 -222.5t-115.5 -206q-21 1 -47.5 1.5t-55.5 0.5t-59.5 -0.5t-58.5 -1.5l26 45q39 2 80.5 2t70.5 -2z" />
    <glyph glyph-name="asciicircum" unicode="^" horiz-adv-x="598" 
d="M95 224q42 47 91.5 105.5t101.5 123t104 131.5t99 130q4 -31 11.5 -82t18 -115t22.5 -139t25 -154h-49q-9 68 -17 128t-14 108t-10.5 81.5t-5.5 48.5q-31 -39 -67.5 -84.5t-75.5 -93.5t-79 -96t-76 -91z" />
    <glyph glyph-name="underscore" unicode="_" horiz-adv-x="650" 
d="M384 -135h-371l26 45h371z" />
    <glyph glyph-name="grave" unicode="`" horiz-adv-x="250" 
d="M404 470q-56 30 -97 63t-73 74l45 37q38 -56 72 -93t67 -60z" />
    <glyph glyph-name="a" unicode="a" 
d="M665 164q-23 -39 -51.5 -71.5t-60 -55.5t-64.5 -35.5t-64 -12.5q-17 0 -34 4.5t-31 14.5t-23 25.5t-9 38.5q0 11 3 25q-49 -51 -104.5 -79.5t-111.5 -28.5q-50 0 -76 23.5t-26 65.5q0 34 14.5 72t39.5 74.5t58.5 70t71.5 59t79.5 40.5t81.5 15q45 0 69.5 -20.5
t24.5 -59.5v-3l48 74h71q-6 -11 -18 -31t-26.5 -45t-30 -52t-29 -50.5t-23.5 -40.5t-13 -23q-25 -47 -25 -79q0 -23 13 -36t39 -13q22 0 47 10.5t49 29.5t47 46t42 60zM161 28q28 0 57.5 13t58 35.5t54.5 53.5t47 67q39 67 39 114q0 27 -15 42.5t-45 15.5q-31 0 -62 -14
t-60 -36.5t-54.5 -51.5t-44 -60t-29.5 -61t-11 -54q0 -30 17 -46.5t48 -16.5v-1z" />
    <glyph glyph-name="b" unicode="b" horiz-adv-x="520" 
d="M388 407q57 0 85.5 -24t28.5 -68q0 -39 -15 -78t-40.5 -75.5t-60.5 -68t-76 -55t-85.5 -37t-88.5 -13.5q-57 0 -85.5 20t-28.5 58q0 37 30 90q14 25 32.5 57.5t37.5 66t37 65t32 54.5q32 54 60 102t50 87.5t37.5 68t21.5 42.5h77q-15 -28 -34.5 -63.5t-41.5 -75t-46 -81
t-47 -80.5q-6 -11 -12.5 -21.5t-14.5 -27.5q25 27 66 43.5t84 16.5zM421 307q0 61 -66 61q-43 0 -88 -28t-76 -74l-67 -118q-28 -49 -28 -83q0 -23 14 -35.5t43 -12.5q33 0 66 15t63 40t56 56.5t44.5 63.5t29.5 62t11 53h-2z" />
    <glyph glyph-name="c" unicode="c" horiz-adv-x="441" 
d="M532 158q-31 -38 -74.5 -69t-93 -53.5t-102 -35t-100.5 -12.5q-73 0 -105.5 28t-32.5 77q0 31 12.5 66t34.5 70.5t52 68t65 57t73.5 39.5t77.5 15q28 0 47.5 -7.5t32.5 -20t19 -28t6 -31.5q0 -28 -17.5 -50t-49.5 -22q-20 0 -30 12t-10 26q0 15 10.5 27.5t30.5 12.5
q23 0 35 -15q1 3 1 9q0 19 -16 35.5t-51 16.5q-45 0 -88 -28.5t-77 -69.5t-55 -86.5t-21 -79.5q0 -37 23.5 -58.5t77.5 -21.5q37 0 78.5 10.5t82 29t78 45.5t66.5 60z" />
    <glyph glyph-name="d" unicode="d" 
d="M458 29q23 0 47.5 10.5t49 30t47 46t41.5 59.5l22 -11q-23 -39 -51.5 -71.5t-60 -55.5t-64.5 -35.5t-64 -12.5q-17 0 -34.5 4.5t-31 14t-22 25t-8.5 37.5q0 12 3 27q-49 -51 -104.5 -79.5t-111.5 -28.5q-51 0 -77 23.5t-26 65.5q0 51 31 109t80.5 107.5t111 82
t121.5 32.5q54 0 76 -23t20 -60q11 19 20.5 37t20.5 36q31 54 59 102t50.5 87.5t38 68t21.5 42.5h77q-15 -28 -34.5 -63.5t-41.5 -75t-46 -81t-47 -80.5q-8 -13 -20 -33.5t-26 -45t-28.5 -50t-27.5 -48t-23 -40t-14 -25.5q-25 -49 -25 -80q0 -23 13.5 -35t37.5 -12v-1z
M162 29q27 0 56.5 13t58 35.5t54.5 53.5t47 67q18 31 29 61.5t10.5 55t-14.5 39.5t-47 15q-46 0 -92.5 -29.5t-83.5 -72.5t-60.5 -91t-23.5 -84q0 -30 17 -46.5t49 -16.5z" />
    <glyph glyph-name="e" unicode="e" horiz-adv-x="427" 
d="M516 159q-33 -40 -76.5 -71.5t-91.5 -53.5t-98.5 -33.5t-96.5 -11.5q-67 0 -102.5 24t-35.5 72q0 47 29.5 103.5t77.5 105.5t108.5 82t123.5 33q43 0 62 -16.5t19 -39.5q0 -30 -28 -62.5t-73.5 -61.5t-105 -52t-122.5 -35q-6 -21 -6 -40q0 -36 26 -54t75 -18
q38 0 79 10.5t80 29.5t74.5 46t63.5 59zM347 369q-34 0 -68.5 -18.5t-66 -47.5t-56.5 -64.5t-40 -69.5q51 11 99.5 31t86.5 43.5t61.5 49t23.5 46.5q0 14 -11.5 22t-29.5 8h1z" />
    <glyph glyph-name="f" unicode="f" horiz-adv-x="289" 
d="M481 700q27 0 47 -7.5t32.5 -20t18.5 -28.5t6 -32q0 -30 -18.5 -54t-51.5 -24q-21 0 -31.5 12t-10.5 27q0 16 11 29t33 13t37 -18q3 4 3 12q0 15 -15.5 32.5t-47.5 17.5q-29 0 -57.5 -19.5t-57 -54t-56.5 -82t-57 -103.5h109l-26 -45h-107q-63 -119 -114 -210
t-91.5 -159.5t-71 -116.5t-53.5 -81t-38.5 -54t-26.5 -34h-78q30 40 69.5 96.5t89 135.5t109 183t129.5 240h-97l26 45h94q41 82 78.5 139t73.5 93t71 52t71 16h-2z" />
    <glyph glyph-name="g" unicode="g" horiz-adv-x="536" 
d="M570 402q-74 -129 -148 -255.5t-146 -256.5q-52 -93 -122 -140.5t-142 -47.5q-54 0 -82 19.5t-28 49.5q0 28 20 55t54 48.5t79.5 35t96.5 13.5v-24q-44 0 -81.5 -10.5t-65.5 -28t-44 -39.5t-16 -46q0 -20 15 -33.5t46 -13.5q23 0 48.5 12t51.5 34t50.5 53t45.5 69
q25 45 51.5 90t53.5 91q-45 -41 -94 -63.5t-98 -22.5q-51 0 -77 23.5t-26 65.5q0 51 31 109t80.5 107.5t111 82t121.5 32.5q55 0 77 -24t20 -62q11 20 21 38.5t20 36.5zM160 32q27 0 56.5 13t58 35.5t54.5 53.5t47 67q18 31 29 61.5t10.5 55t-14.5 39.5t-47 15
q-46 0 -92.5 -29.5t-83.5 -72.5t-60.5 -91t-23.5 -84q0 -30 17 -46.5t49 -16.5z" />
    <glyph glyph-name="h" unicode="h" horiz-adv-x="532" 
d="M626 163q-23 -39 -52.5 -71.5t-62 -55.5t-67.5 -35.5t-68 -12.5q-46 0 -70 19.5t-24 55.5q0 39 18.5 73t40 65t40 59t18.5 55q0 25 -17.5 39t-43.5 14q-41 0 -85 -35t-76 -92l-139 -243h-78q52 90 83.5 145.5t50.5 88.5t29 50.5t18.5 32t18.5 32t30 51.5q31 54 59 102
t50.5 87.5t38 68t22.5 42.5h77q-15 -28 -34.5 -63.5t-41.5 -75t-46 -81t-48 -80.5q-3 -5 -9.5 -15t-14.5 -24q62 50 130 50q48 0 75.5 -24t27.5 -61q0 -34 -18 -63.5t-39.5 -58t-39.5 -57.5t-18 -62q0 -24 14.5 -39t43.5 -15q22 0 47 10.5t49 30t47 46.5t42 60z" />
    <glyph glyph-name="i" unicode="i" horiz-adv-x="274" 
d="M303 510q-22 0 -36.5 15t-14.5 36t14.5 36t36.5 15q21 0 36 -14.5t15 -36.5q0 -21 -15 -36t-36 -15zM272 399q-7 -13 -19.5 -33.5t-26.5 -45t-28.5 -50t-27.5 -48t-23 -40t-14 -25.5q-26 -49 -26 -81q0 -46 52 -46q23 0 47.5 10.5t49 29.5t47.5 46t42 60l22 -11
q-23 -39 -52 -71.5t-60.5 -55.5t-65 -35.5t-65.5 -12.5q-17 0 -34 4.5t-31 14t-22.5 25t-8.5 37.5q0 17 6.5 38.5t20.5 47.5q7 14 23 42t36 62t41 70.5t39 68.5z" />
    <glyph glyph-name="j" unicode="j" horiz-adv-x="249" 
d="M305 510q-22 0 -36.5 15t-14.5 36t14.5 36t36.5 15q21 0 36 -14.5t15 -36.5q0 -21 -15 -36t-36 -15zM-145 -103q-45 0 -82.5 -10t-65.5 -27.5t-43.5 -40t-15.5 -46.5q0 -20 15 -33.5t46 -13.5q23 0 48.5 12t51.5 34t50.5 53t45.5 69q72 128 145 253t146 253h77
q-74 -129 -148 -255.5t-146 -256.5q-52 -93 -122 -140.5t-142 -47.5q-54 0 -81.5 19.5t-27.5 49.5q0 28 19.5 55.5t53.5 49t79.5 34.5t97.5 13z" />
    <glyph glyph-name="k" unicode="k" horiz-adv-x="503" 
d="M435 699q-15 -28 -34 -63.5t-41 -75t-46 -81t-47 -80.5q-12 -21 -32 -55.5t-42.5 -74.5t-46.5 -82t-45.5 -79t-37.5 -66t-23 -42l-76 -1q12 23 38 69t58 102.5t66.5 117t64.5 112.5q31 54 59 102t50.5 87.5t38 68t21.5 42.5zM237 218q51 -16 77 -48.5t26 -75.5
q0 -23 -7 -47t-22 -50h-79q28 49 28 95q0 42 -22.5 75.5t-66.5 53.5q57 17 103 35.5t94 42.5q-4 6 -7 16t-3 22q0 26 17.5 47t47.5 21q25 0 39 -13.5t14 -32.5q0 -23 -16.5 -39.5t-42.5 -27.5q11 -13 34 -21t52 -8q45 0 92 17.5t76 44.5l16 -17q-17 -16 -39 -28.5
t-46.5 -21.5t-50 -14t-48.5 -5q-37 0 -68 11.5t-48 30.5q-23 -11 -63 -27.5t-85 -33.5z" />
    <glyph glyph-name="l" unicode="l" horiz-adv-x="270" 
d="M439 699q-15 -28 -34.5 -63.5t-41.5 -75t-46 -81t-47 -80.5q-8 -13 -20 -33.5t-26 -45t-28.5 -50t-27.5 -48t-23 -40t-14 -25.5q-26 -49 -26 -81q0 -46 52 -46q22 0 47 10.5t49 29.5t47 46t42 60l22 -11q-23 -39 -51.5 -71.5t-60 -55.5t-65 -35.5t-64.5 -12.5
q-17 0 -34 4.5t-31 14t-22.5 25t-8.5 37.5q0 17 6.5 38.5t20.5 47.5q7 14 23 42t36 62t41 70.5t39 68.5q31 54 59 102t50.5 87.5t38 68t21.5 42.5z" />
    <glyph glyph-name="m" unicode="m" horiz-adv-x="808" 
d="M898 163q-23 -39 -52.5 -71.5t-62 -55.5t-67.5 -35.5t-68 -12.5q-46 0 -70 19.5t-24 55.5q0 39 18.5 73t40 65t40 59t18.5 55q0 25 -17 39t-45 14q-20 0 -41.5 -9t-42.5 -26t-40.5 -40.5t-35.5 -51.5q-12 -21 -28.5 -50.5t-34.5 -62.5t-37 -66.5t-35 -63.5h-77q2 4 12 22
t24 43t30 53.5t30.5 55t26 47t15.5 28.5q24 43 24 75q0 22 -13 34.5t-41 12.5q-48 0 -88.5 -33t-73.5 -89l-142 -247h-77q24 42 47 81.5t42.5 73t35 60.5t25.5 45q5 9 15.5 28.5t21.5 41.5t20.5 42t12.5 28h51l-15 -61q32 33 72 52t85 19q51 0 75.5 -22.5t24.5 -59.5v-9
q35 42 79.5 66t89.5 24q51 0 78.5 -24t27.5 -61q0 -34 -18 -64t-39 -59t-39 -58t-18 -60q0 -24 14.5 -39t43.5 -15q22 0 47 10.5t49 30t47 46.5t42 60z" />
    <glyph glyph-name="n" unicode="n" horiz-adv-x="538" 
d="M630 166q-23 -39 -52.5 -71.5t-62 -55.5t-67.5 -35.5t-68 -12.5q-46 0 -70 19.5t-24 55.5q0 39 18.5 73t40 65t40 59t18.5 55q0 25 -17 39t-45 14q-39 0 -82 -33t-75 -88l-143 -250h-77q33 57 56 97.5t40.5 70.5t30 51.5t23.5 39.5q5 9 15.5 28.5t22 41.5t20.5 42t12 28
h51l-17 -67q35 36 75.5 56.5t82.5 20.5q51 0 78.5 -24t27.5 -61q0 -34 -18 -63.5t-39 -58t-39 -57.5t-18 -62q0 -24 14.5 -39t43.5 -15q22 0 47 10.5t49 30t47 46.5t42 60z" />
    <glyph glyph-name="o" unicode="o" horiz-adv-x="506" 
d="M668 293q-31 -53 -84.5 -82t-110.5 -29q-41 0 -66 14q-23 -39 -56 -76t-71 -65.5t-80.5 -46t-84.5 -17.5q-50 0 -76 23.5t-26 65.5q0 34 14.5 71.5t39.5 74.5t59 70.5t72 59t79 40.5t81 15q45 0 69 -19.5t26 -57.5q22 -4 32 -18t10 -31q0 -23 -16.5 -43t-47.5 -20
q1 -6 14.5 -11.5t36.5 -5.5q47 0 93 25.5t74 73.5zM160 33q32 0 65 16t63 42t55 58.5t43 65.5q-17 18 -17 46q0 23 12.5 43t33.5 28q-9 39 -59 39q-31 0 -62 -14t-60 -36.5t-54.5 -51.5t-44 -60t-29.5 -61t-11 -54q0 -30 17 -46.5t48 -16.5v2z" />
    <glyph glyph-name="p" unicode="p" horiz-adv-x="541" 
d="M636 165q-23 -40 -54 -72.5t-66.5 -55t-73.5 -35t-75 -12.5q-47 0 -71 18t-24 50q0 37 22 71t48 65.5t48 61t22 58.5q0 26 -18 41t-47 15q-39 0 -82 -33t-75 -87q-60 -105 -111.5 -194t-92.5 -159.5t-72 -120.5t-49 -77h-78q18 25 50.5 78t76 126.5t95 164t108.5 191.5
q21 38 33 61.5t18.5 38.5t9.5 23.5t8 17.5h54l-17 -67q35 36 75.5 56.5t82.5 20.5q52 0 81.5 -25t29.5 -63q0 -35 -22 -68t-49 -63.5t-49 -60t-22 -57.5q0 -43 59 -43q27 0 55 10t55 29t51 46t44 61z" />
    <glyph glyph-name="q" unicode="q" horiz-adv-x="538" 
d="M367 -222q-30 -17 -70 -30.5t-86.5 -24t-97 -16.5t-100.5 -7h-9l-1 40q29 0 56 10t54 34t55.5 63t60.5 97q16 29 35 62t41 69q-45 -40 -93.5 -62.5t-97.5 -22.5q-51 0 -77 23.5t-26 65.5q0 51 31 109t80.5 107.5t111 82t121.5 32.5q55 0 77 -24t20 -62q11 20 21 38.5
t20 36.5h77q-74 -129 -144 -249.5t-121 -212.5q-36 -66 -76 -115t-85 -79q61 7 117 21.5t100 36.5zM158 30q27 0 56.5 13t58 35.5t54.5 53.5t47 67q18 31 29 61.5t10.5 55t-14.5 39.5t-47 15q-46 0 -92.5 -29.5t-83.5 -72.5t-60.5 -91t-23.5 -84q0 -30 17 -46.5t49 -16.5z
" />
    <glyph glyph-name="r" unicode="r" horiz-adv-x="387" 
d="M362 407q39 0 57.5 -24.5t18.5 -54.5q0 -15 -5 -30t-14 -27t-22.5 -19t-31.5 -7q-23 0 -34 13t-11 30q0 20 16 37t50 16q2 11 -6.5 21.5t-30.5 10.5q-40 0 -89.5 -44.5t-96.5 -119.5l-120 -210h-77q57 98 93 160t57 100q13 24 24.5 47l21 42t15.5 32.5t9 18.5h51l-18 -73
q36 40 73 62t70 22v-3z" />
    <glyph glyph-name="s" unicode="s" horiz-adv-x="386" 
d="M279 405q28 0 48.5 -7.5t33.5 -19t19 -26.5t6 -30q0 -26 -16 -46.5t-43 -20.5q-20 0 -30 11t-10 25t10 26.5t30 12.5q25 0 33 -13q1 3 1 9q0 19 -18 33.5t-50 14.5q-27 0 -44 -10t-26.5 -23.5t-13.5 -28t-4 -23.5q0 -26 14 -48.5t30.5 -44.5t30.5 -45t14 -48
q0 -24 -13 -45t-35 -36.5t-51.5 -24.5t-61.5 -9q-36 0 -62 10t-42.5 26t-24.5 35.5t-8 39.5q0 31 18.5 54.5t51.5 23.5q20 0 30 -10.5t10 -24.5q0 -17 -13.5 -30.5t-36.5 -13.5q-17 0 -31 8q-3 -8 -3 -15q0 -13 7 -26.5t19.5 -24t30.5 -17t40 -6.5q29 0 48.5 8t31 19.5
t16 24.5t4.5 23q0 22 -13 44.5t-29 46.5t-29 49t-13 54q0 25 10.5 47.5t29.5 39.5t45.5 27t58.5 10v-5z" />
    <glyph glyph-name="t" unicode="t" horiz-adv-x="313" 
d="M406 165q-24 -39 -56.5 -71.5t-69 -55.5t-75.5 -35.5t-77 -12.5q-18 0 -35 4.5t-30.5 14t-22 25t-8.5 37.5q0 17 6.5 38.5t20.5 47.5q12 22 24 43.5t25.5 45t29 50.5t34.5 60h-92l26 45h92q26 48 48 90t32 65h75q-14 -31 -35.5 -73.5t-43.5 -81.5h119l-26 -45h-119
q-14 -24 -31 -54t-33.5 -58.5t-29.5 -51.5t-19 -34q-25 -50 -25 -81q0 -47 52 -47q30 0 61 10.5t60 29.5t55.5 46t46.5 60z" />
    <glyph glyph-name="u" unicode="u" horiz-adv-x="537" 
d="M632 163q-24 -39 -53.5 -71.5t-61 -55.5t-63.5 -35.5t-62 -12.5q-42 0 -69.5 22t-27.5 59q0 10 1 15q-34 -44 -79 -70t-96 -26q-17 0 -34 4.5t-31 14.5t-23 25.5t-9 38.5q0 17 6.5 38t20.5 47q3 6 13 23.5t23.5 40.5t29.5 50t30 52t25.5 45.5t16.5 31.5h77
q-8 -18 -28.5 -54.5t-43 -75.5t-41.5 -71t-24 -41q-25 -47 -25 -79q0 -23 12.5 -36t38.5 -13q42 0 87 35t78 92q12 21 32 55t41 70t39 68.5t26 49.5h77q-8 -18 -28.5 -54.5t-43 -75.5t-41 -71t-23.5 -41q-26 -46 -26 -78q0 -23 13 -36t39 -13q43 0 93.5 40t91.5 106z" />
    <glyph glyph-name="v" unicode="v" horiz-adv-x="489" 
d="M679 306q-36 -31 -84 -50.5t-96 -19.5q-27 0 -47 6t-34 17q-14 -71 -50 -122t-84.5 -84t-104.5 -49t-109 -16q0 40 -9.5 73t-9.5 70q0 26 9 56.5t34 68.5q15 24 31.5 43t32.5 35.5t29.5 31.5t22.5 32h70q-9 -22 -22 -39t-27.5 -33.5t-29.5 -33t-28 -37.5q-27 -42 -36 -74
t-9 -58q0 -28 5 -50.5t5 -43.5q21 0 60.5 11.5t80 40t75 77.5t45.5 123q-12 18 -12 40q0 30 20.5 54.5t54.5 24.5q27 0 40 -14.5t13 -33.5q0 -23 -19 -44t-57 -21q-1 -8 15.5 -16.5t47.5 -8.5q40 0 84.5 17.5t77.5 46.5z" />
    <glyph glyph-name="w" unicode="w" horiz-adv-x="736" 
d="M925 306q-36 -31 -84 -50.5t-96 -19.5q-27 0 -47 6t-34 17q-14 -71 -50 -122t-84.5 -84t-104.5 -49t-109 -16q0 23 -3.5 42.5t-7.5 39.5q-52 -42 -114 -62t-122 -20q0 40 -9.5 73t-9.5 70q0 26 9 56.5t34 68.5q15 24 31.5 43t32.5 35.5t29.5 31.5t22.5 32h70
q-9 -22 -22 -39t-27.5 -33.5t-29.5 -33t-28 -37.5q-27 -42 -36 -74t-9 -58q0 -28 5 -50.5t5 -43.5q12 0 30.5 3.5t40.5 12t45.5 21.5t46.5 33q-3 16 -3 34q0 26 9 56.5t34 68.5q15 24 31.5 43t32.5 35.5t29.5 31.5t22.5 32h70q-9 -22 -22 -39t-27.5 -33.5t-29.5 -33
t-28 -37.5q-27 -42 -36 -74t-9 -58q0 -28 5 -50.5t5 -43.5q21 0 60.5 11.5t80.5 40.5t75 77.5t45 123.5q-11 19 -11 38q0 15 5.5 29t15 25t23.5 17.5t31 6.5q27 0 40 -14.5t13 -33.5q0 -23 -19 -44t-57 -21q-1 -8 15.5 -16.5t47.5 -8.5q40 0 84.5 17.5t77.5 46.5z" />
    <glyph glyph-name="x" unicode="x" horiz-adv-x="589" 
d="M676 154q-35 -38 -76 -69t-84 -53t-85.5 -34t-80.5 -12q-46 0 -71 24t-25 65q0 6 0.5 12t1.5 12q-37 -51 -87 -81.5t-98 -30.5q-43 0 -64 24.5t-21 57.5q0 18 6 37t17.5 34t27 25t33.5 10q20 0 29 -10.5t9 -24.5q0 -15 -11 -28t-33 -13q-13 0 -23.5 5t-13.5 10
q-11 -17 -11 -39q0 -21 14 -38.5t47 -17.5q31 0 65 26.5t63.5 66.5t51.5 86.5t30 86.5t-2.5 66.5t-44.5 26.5q-33 0 -64.5 -19.5t-50.5 -51.5l-22 10q24 42 67 67t91 25q40 0 62.5 -24t22.5 -66q0 -16 -3 -32q37 55 84 88.5t89 33.5q38 0 58 -19.5t20 -46.5
q0 -15 -6.5 -30.5t-17 -28t-24.5 -21t-30 -8.5q-20 0 -29 10.5t-9 24.5q0 15 11 28t33 13q13 0 23.5 -5t15.5 -12q6 9 6 22q0 15 -11 28t-34 13t-48 -15.5t-48.5 -40.5t-44.5 -56.5t-36.5 -63.5t-24.5 -61t-9 -49q0 -30 16.5 -46.5t48.5 -16.5q31 0 67.5 10.5t74 30t75 47
t70.5 60.5z" />
    <glyph glyph-name="y" unicode="y" horiz-adv-x="494" 
d="M682 309q-39 -33 -87 -51.5t-93 -18.5q-27 0 -47 6t-34 17q-12 -59 -39 -104t-64.5 -78t-82 -53t-91.5 -29q10 -51 -2 -103.5t-43 -95.5t-79 -70.5t-108 -27.5q-54 0 -81 19t-27 51q0 28 20 55t54 48.5t79 34.5t95 13v-24q-43 0 -80.5 -10.5t-65.5 -27.5t-44 -39t-16 -45
q0 -49 60 -49q46 0 81 24.5t57 63t29.5 85t-0.5 91.5q-7 35 -14.5 67t-7.5 65q0 30 9.5 63t35.5 73q15 24 31.5 43t32.5 35.5t29.5 31.5t22.5 32h70q-9 -22 -22 -39t-27.5 -33.5t-29.5 -33t-28 -37.5q-29 -44 -38.5 -78t-9.5 -62q0 -26 5 -47.5t8 -41.5q20 0 59.5 12
t80.5 41t76 78t46 124q-11 19 -11 38q0 15 5.5 29t15 25t23.5 17.5t31 6.5q27 0 40 -14.5t13 -33.5q0 -23 -19 -44t-57 -21q0 -8 17.5 -16.5t46.5 -8.5q37 0 81.5 16.5t80.5 47.5z" />
    <glyph glyph-name="z" unicode="z" horiz-adv-x="466" 
d="M498 397q-26 -46 -59 -93.5t-70 -90.5t-78 -77.5t-83 -53.5q97 -23 97 -105q0 -50 -28 -99.5t-75.5 -89t-109.5 -64.5t-130 -25q-63 0 -94.5 24.5t-31.5 59.5q0 29 16 54t43 43.5t63.5 29t78.5 10.5v-24q-36 0 -65 -8.5t-49.5 -23.5t-32 -35t-11.5 -42q0 -26 20 -43.5
t62 -17.5q53 0 101 24.5t85 62t58.5 82.5t21.5 85t-26.5 62.5t-78.5 22.5l16 28q33 0 64 18.5t61.5 51t60.5 77.5t62 98q-36 -29 -77.5 -45t-80.5 -16q-28 0 -47.5 6t-32 16t-18 22.5t-5.5 25.5q0 14 5.5 27.5t15 24t22 17t27.5 6.5q24 0 35.5 -12.5t11.5 -28.5
q0 -20 -16 -37t-48 -17q-1 -12 14 -19.5t41 -7.5q25 0 51 7t51 20.5t47.5 31.5t40.5 41z" />
    <glyph glyph-name="braceleft" unicode="{" horiz-adv-x="520" 
d="M468 558q50 86 123 129t153 43v-25q-25 0 -51 -9t-50 -25t-45 -38.5t-37 -50.5q-25 -44 -48 -81t-53.5 -66.5t-75 -50t-112.5 -30.5q93 -35 93 -123q0 -57 -40 -127q-30 -52 -45 -93t-15 -68q0 -44 38 -44l-18 -31q-45 0 -68 22t-23 62q0 62 52 153q21 36 31 68t10 59
q0 54 -39 84t-114 30l16 28q77 0 128 15t86 40t58 58.5t45 71.5z" />
    <glyph glyph-name="bar" unicode="|" horiz-adv-x="446" 
d="M90 -130h-70l497 860h70z" />
    <glyph glyph-name="braceright" unicode="}" horiz-adv-x="611" 
d="M449 439q0 -45 41.5 -70t131.5 -25l-16 -28q-84 0 -139 -20.5t-91.5 -51.5t-59 -69t-42.5 -72q-39 -67 -77.5 -112t-77.5 -72.5t-78.5 -39t-79.5 -11.5v25q25 0 51.5 10t55 34t60 64.5t66.5 100.5q19 34 39.5 69t51 66.5t75.5 56t114 38.5q-52 14 -77 41t-25 65
q0 41 30 92q23 38 34 69.5t11 54.5q0 46 -42 46l18 31q48 0 73 -21.5t25 -60.5q0 -50 -40 -118q-29 -50 -29 -89z" />
    <glyph glyph-name="asciitilde" unicode="~" horiz-adv-x="576" 
d="M124 262q22 35 59 55.5t76 20.5q30 0 49.5 -9t37 -19.5t37 -19.5t50.5 -9q27 0 56 15t50 40l16 -11q-30 -47 -69 -75.5t-74 -28.5q-30 0 -50 11.5t-37 25.5t-35 25.5t-45 11.5q-23 0 -49 -13t-46 -35z" />
    <glyph glyph-name="exclamdown" unicode="&#xa1;" horiz-adv-x="448" 
d="M316 410q22 0 36.5 -15t14.5 -36t-14.5 -36t-36.5 -15q-21 0 -36 14.5t-15 36.5q0 21 15 36t36 15zM273 250q-24 -56 -57 -123t-70.5 -139t-77.5 -146t-78 -142h-81q36 54 79 121t88 140.5t89.5 150t84.5 148.5z" />
    <glyph glyph-name="cent" unicode="&#xa2;" horiz-adv-x="574" 
d="M529 363q4 5 4 15q0 9 -5 20t-14 21.5t-22.5 19t-31.5 12.5l-197 -340h14q54 0 106.5 23.5t86.5 61.5l19 -15q-20 -24 -47.5 -43.5t-60 -33.5t-68.5 -22.5t-72 -9.5l-60 -104h-43l61 106q-50 7 -75 34t-25 69q0 41 15.5 80t41 74t59.5 64.5t71 51t75 33.5t72 12h9l49 85
h43l-53 -92q40 -12 61.5 -40.5t21.5 -59.5q0 -15 -6.5 -29.5t-17 -26.5t-24 -19t-28.5 -7q-17 0 -27 10.5t-10 24.5t11.5 28t31.5 14q25 0 37 -15zM181 190q0 -51 44 -71l193 334q-45 -4 -87.5 -32.5t-75.5 -68t-53 -83.5t-20 -79h-1z" />
    <glyph glyph-name="sterling" unicode="&#xa3;" horiz-adv-x="823" 
d="M793 683q-32 0 -63 -11.5t-64 -43t-69.5 -86.5t-80.5 -142v-1h190l-26 -45h-187q-39 -74 -74.5 -130t-69.5 -98q27 -15 52 -27.5t50.5 -21.5t53 -14.5t60.5 -5.5q54 0 98 22t62 59l24 -12q-15 -29 -36 -53t-46.5 -41t-53.5 -26.5t-57 -9.5q-36 0 -66 8t-58 21.5t-55.5 31
t-57.5 35.5q-53 -55 -99.5 -78t-95.5 -23q-32 0 -53.5 7.5t-35 19.5t-19 27.5t-5.5 31.5q0 48 36 78.5t100 30.5q65 0 142 -33q28 37 58.5 86.5t65.5 115.5h-136l26 45h133q47 94 91.5 154t89 95t90 48.5t95.5 13.5zM110 21q22 0 43 8.5t40.5 22t37 31t34.5 36.5
q-35 18 -69 28t-63 10q-46 0 -70 -24t-24 -53q0 -23 16.5 -41.5t54.5 -18.5v1z" />
    <glyph glyph-name="currency" unicode="&#xa4;" horiz-adv-x="824" 
d="M673 360q0 -40 -14 -75.5t-38 -63.5q34 -28 75 -61.5t78 -59.5l-57 -56q-25 37 -58.5 78t-61.5 75q-28 -23 -62.5 -36t-73.5 -13t-73.5 13.5t-62.5 36.5q-28 -34 -62 -75t-60 -78l-56 57q37 25 78 58.5t75 61.5q-24 28 -38 63.5t-14 75.5q0 39 13.5 74t36.5 63
q-34 28 -75 61.5t-78 59.5l57 56q25 -37 58.5 -78t61.5 -75q28 24 63.5 38t75.5 14t75.5 -14t63.5 -39q28 34 61.5 74.5t59.5 77.5l56 -57q-37 -25 -78 -58.5t-75 -61.5q23 -28 35.5 -62.5t12.5 -73.5h1zM460 206q32 0 60 12t49 33t33 49t12 60t-12 60t-33 49t-49 33t-60 12
t-60 -12t-49 -33t-33 -49t-12 -60t12 -59.5t33 -48.5t49 -33t60 -12v-1z" />
    <glyph glyph-name="yen" unicode="&#xa5;" horiz-adv-x="603" 
d="M594 562q-23 -85 -93.5 -156.5t-179.5 -110.5l3 -9h190l-26 -45h-159v-15q0 -14 -1.5 -27t-3.5 -25h125l-26 -45h-113q-12 -30 -30 -61t-41 -70h-80q28 39 49 70.5t35 60.5h-171l26 45h162q6 22 6 45v23h-129l26 45h98q-3 21 -8 39t-9 35t-7 34.5t-3 38.5q0 27 9 57
t32 66q15 24 31.5 43t32 35.5t29 31.5t22.5 32h66q-9 -22 -21 -39t-25.5 -33.5t-28 -33t-27.5 -37.5q-29 -44 -38.5 -78t-9.5 -62q0 -26 5 -47.5t8 -41.5q104 35 172.5 104t87.5 155q-9 15 -9 32q0 14 6 28.5t16.5 26t25 19t32.5 7.5q21 0 34 -11t13 -28q0 -14 -6.5 -26.5
t-17.5 -22t-25 -16t-28 -8.5q2 -11 19 -18t43 -7q33 0 73.5 18t73.5 47l15 -18q-37 -32 -83.5 -51t-86.5 -19q-25 0 -44 7t-33 18z" />
    <glyph glyph-name="brokenbar" unicode="&#xa6;" horiz-adv-x="446" 
d="M587 730l-208 -360h-70l208 360h70zM20 -130l208 360h70l-208 -360h-70z" />
    <glyph glyph-name="section" unicode="&#xa7;" horiz-adv-x="600" 
d="M497 726q42 0 76 -11.5t57.5 -30.5t36.5 -44t13 -51q0 -15 -5 -31.5t-15 -30t-23.5 -22.5t-29.5 -9q-17 0 -31 10t-14 29q0 20 14 34t37 14t35 -15q5 12 5 22q0 17 -10 35.5t-28.5 33.5t-46 24.5t-61.5 9.5q-44 0 -72.5 -15.5t-45.5 -37.5t-24 -46t-7 -41
q0 -30 12.5 -58.5t30.5 -56t40 -54.5t40 -54.5t30.5 -56.5t12.5 -59q0 -41 -21 -75.5t-57 -59.5t-85 -38.5t-104 -13.5q-8 0 -15.5 0.5t-15.5 1.5q16 -22 32.5 -43.5t29.5 -44t21 -46t8 -47.5q0 -41 -21 -75.5t-57 -59.5t-85 -39t-104 -14q-45 0 -83 15t-66 39t-44 55
t-16 63q0 18 5.5 36.5t16 33t25 24t32.5 9.5q17 0 31 -11t14 -30t-12.5 -31t-35.5 -12q-20 0 -39 11q-6 -12 -6 -27q0 -22 11.5 -47.5t34.5 -47t57 -36t79 -14.5q49 0 83 15t55 37.5t30.5 47t9.5 44.5q0 28 -12 56t-30 56t-39 56t-39 57t-30 59t-12 62q0 36 17 69.5
t46.5 58.5t70 40t87.5 15q44 0 81 -16q-17 24 -34 47.5t-31 48.5t-22.5 50t-8.5 52q0 36 17 69.5t46.5 58.5t70 40t87.5 15v-2zM437 199q0 25 -10 48t-28.5 40.5t-44 27.5t-56.5 10q-34 0 -61.5 -11.5t-47 -31t-30 -44.5t-10.5 -53q0 -32 14.5 -62.5t35.5 -60.5q27 -9 61 -9
q39 0 71.5 11.5t56.5 32t37 47t13 56.5z" />
    <glyph glyph-name="dieresis" unicode="&#xa8;" horiz-adv-x="303" 
d="M267 510q-22 0 -36.5 15t-14.5 36t14.5 36t36.5 15q21 0 36 -14.5t15 -36.5q0 -21 -15 -36t-36 -15zM452 510q-22 0 -36.5 15t-14.5 36t14.5 36t36.5 15q21 0 36 -14.5t15 -36.5q0 -21 -15 -36t-36 -15z" />
    <glyph glyph-name="copyright" unicode="&#xa9;" horiz-adv-x="972" 
d="M573 -7q-75 0 -141.5 28.5t-116 77.5t-78 115.5t-28.5 141.5t28.5 141.5t78 116t116 78t141.5 28.5t141.5 -28.5t116 -78t78 -116t28.5 -141.5t-28.5 -141.5t-78 -115.5t-116 -77.5t-141.5 -28.5zM573 46q64 0 120.5 24.5t98.5 66.5t66.5 98.5t24.5 120.5t-24.5 120.5
t-66.5 98.5t-98.5 66.5t-120.5 24.5t-120.5 -24.5t-98.5 -66.5t-66.5 -98.5t-24.5 -120.5t24.5 -120.5t66.5 -98.5t98.5 -66.5t120.5 -24.5zM747 281q-17 -62 -64 -100t-108 -38q-38 0 -69.5 15t-54.5 43t-35.5 67t-12.5 86t15 85.5t40.5 66t60 42.5t74.5 15q54 0 87 -28.5
t33 -76.5q0 -35 -19 -51.5t-40 -16.5q-17 0 -29.5 11t-12.5 32q0 20 14 31.5t31 11.5q12 0 23 -6q0 26 -20.5 42.5t-54.5 16.5q-58 0 -92.5 -47t-34.5 -125q0 -77 33.5 -124t88.5 -47q42 0 76 29.5t48 77.5z" />
    <glyph glyph-name="ordfeminine" unicode="&#xaa;" horiz-adv-x="579" 
d="M724 518q-18 -31 -40.5 -56t-47 -43t-50 -28t-49.5 -10q-14 0 -28.5 3.5t-26 11.5t-19 20t-7.5 30v6.5t1 7.5q-36 -35 -79.5 -57t-88.5 -22q-43 0 -65 19t-22 53q0 41 24.5 86.5t64 84t89 63.5t99.5 25q36 0 56 -15.5t22 -44.5l34 52h66q-5 -8 -14 -24t-20.5 -36t-24 -41
t-23 -39t-18.5 -32t-10 -18q-18 -33 -18 -56q0 -36 40 -36q32 0 68 29.5t65 78.5zM328 420q36 0 71.5 23.5t63 56.5t44.5 70t17 64q0 21 -11.5 33t-35.5 12q-32 0 -67 -22.5t-64 -55.5t-47.5 -70t-18.5 -65q0 -46 49 -46h-1z" />
    <glyph glyph-name="guillemotleft" unicode="&#xab;" horiz-adv-x="678" 
d="M636 382q-17 -14 -40 -30.5t-50.5 -33t-58 -33t-61.5 -30.5q23 -33 41 -69.5t24 -62.5l-33 -15q-18 33 -48.5 73.5t-62.5 73.5q38 16 77 34.5t75 38t67.5 38.5t55.5 36zM435 381q-17 -14 -40 -30.5t-50.5 -33t-58 -33t-61.5 -30.5q23 -33 41 -69.5t24 -62.5l-33 -15
q-18 33 -48.5 73.5t-62.5 73.5q38 16 77 34.5t75 38t67.5 38.5t55.5 36z" />
    <glyph glyph-name="logicalnot" unicode="&#xac;" horiz-adv-x="824" 
d="M719 214q0 -34 27 -55l-16 -27q-45 30 -45 79q0 24 14 54h-571l26 45h611q-44 -50 -44 -96h-2z" />
    <glyph glyph-name="registered" unicode="&#xae;" horiz-adv-x="972" 
d="M573 719q75 0 141.5 -28.5t116 -78t78 -116t28.5 -141.5t-28.5 -141.5t-78 -115.5t-116 -77.5t-141.5 -28.5t-141.5 28.5t-116 77.5t-78 115.5t-28.5 141.5t28.5 141.5t78 116t116 78t141.5 28.5zM573 46q64 0 120.5 24.5t98.5 66.5t66.5 98.5t24.5 120.5t-24.5 120.5
t-66.5 98.5t-98.5 66.5t-120.5 24.5t-120.5 -24.5t-98.5 -66.5t-66.5 -98.5t-24.5 -120.5t24.5 -120.5t66.5 -98.5t98.5 -66.5t120.5 -24.5zM718 449q0 -47 -30.5 -78t-82.5 -39q10 -19 24 -41t30.5 -45t35.5 -46t38 -44h-73q-31 43 -59 90.5t-45 83.5q-8 0 -16.5 0.5
t-16.5 1.5v-178h-60q1 40 1.5 85t0.5 91t-0.5 90.5t-1.5 84.5l-4 45h23q22 2 47 2.5t39 0.5q81 0 115.5 -27.5t34.5 -76.5zM522 357q8 -2 18 -2.5t20 -0.5q44 0 70 26t26 69q0 37 -18 58t-70 21h-20.5t-24.5 -1z" />
    <glyph glyph-name="macron" unicode="&#xaf;" horiz-adv-x="264" 
d="M452 525h-264l24 42h264z" />
    <glyph glyph-name="degree" unicode="&#xb0;" horiz-adv-x="600" 
d="M504 447q-33 0 -62.5 13t-51.5 35t-34.5 51.5t-12.5 63.5t13 63.5t35 51.5t51.5 35t63.5 13t63.5 -12.5t51.5 -34.5t34.5 -51.5t12.5 -62.5t-12.5 -62.5t-34.5 -51.5t-51.5 -34.5t-63.5 -12.5zM503 501q45 0 76.5 29.5t31.5 77.5q0 22 -8.5 41.5t-23 34t-34 23t-41.5 8.5
t-41.5 -8.5t-34 -23t-23 -34t-8.5 -41.5t8.5 -41.5t23 -34t34 -23t41.5 -8.5h-1z" />
    <glyph glyph-name="plusminus" unicode="&#xb1;" horiz-adv-x="534" 
d="M475 259h-152q-18 -31 -37.5 -63.5t-39.5 -64.5h-60q23 32 44.5 64t41.5 64h-147l26 45h149q23 38 42 70.5t32 58.5h47q-11 -23 -29.5 -56.5t-41.5 -73.5h152zM352 46l-26 -45h-351l26 45h351z" />
    <glyph glyph-name="uni00B2" unicode="&#xb2;" horiz-adv-x="494" 
d="M587 873q63 0 95.5 -25.5t32.5 -67.5q0 -35 -24 -77q-24 -41 -60 -68.5t-78 -48.5t-86.5 -38t-85 -35.5t-74 -41.5t-52.5 -56q37 3 78.5 5.5t84 4t84 2.5t78.5 1l-26 -48q-40 2 -84.5 2.5t-90.5 0.5t-90.5 -0.5t-84.5 -2.5q29 51 65 83.5t74.5 54.5t78 39t76.5 36
t69 44.5t56 66.5q27 48 27 86q0 29 -17.5 46t-52.5 17q-30 0 -55 -10.5t-43.5 -27t-28.5 -38t-10 -42.5q0 -20 13.5 -32.5t40.5 -12.5l-10 -20q-49 0 -74.5 19t-25.5 49q0 28 16.5 53t44 44t64 30t77.5 11z" />
    <glyph glyph-name="uni00B3" unicode="&#xb3;" horiz-adv-x="462" 
d="M684 785q0 -27 -13 -51.5t-37 -45t-57.5 -35.5t-73.5 -23q66 -26 66 -87q0 -32 -16.5 -62.5t-45 -54.5t-67 -38.5t-82.5 -14.5q-51 0 -89 28t-50 74l21 7q11 -39 42 -62t73 -23q31 0 57.5 14t46 36t31 49.5t11.5 53.5q0 33 -21.5 53.5t-65.5 20.5l9 22q42 0 77.5 12.5
t61.5 33.5t40.5 47.5t14.5 54.5q0 26 -16 42.5t-50 16.5q-26 0 -46.5 -7.5t-34.5 -20t-21.5 -28.5t-7.5 -32t9 -26t27 -10l-10 -18q-34 0 -51.5 14t-17.5 37q0 22 13 42t35 36t51.5 25.5t62.5 9.5q62 0 93.5 -25t31.5 -63z" />
    <glyph glyph-name="acute" unicode="&#xb4;" horiz-adv-x="117" 
d="M167 490q33 23 67 60t72 93l45 -37q-32 -40 -73 -73t-97 -62z" />
    <glyph glyph-name="paragraph" unicode="&#xb6;" horiz-adv-x="927" 
d="M602 731q76 0 145 -18t121 -50.5t82.5 -77t30.5 -97.5q0 -48 -23.5 -93.5t-64.5 -80.5t-96.5 -56.5t-120.5 -21.5q-23 0 -45 3q-57 -100 -118 -203t-123 -204l-67 -1q88 147 166 280.5t140.5 243t106.5 189.5t64 122q-36 17 -78 26q-41 -79 -96.5 -179.5t-120 -213
t-135 -232t-140.5 -235.5l-67 -1q90 151 170 288.5t145 251t112 199t70 132.5q-27 3 -57 3q-64 0 -119.5 -15.5t-96 -41.5t-64 -60t-23.5 -70q0 -24 15.5 -39t47.5 -15q38 0 74.5 24t59.5 63l22 -12q-26 -46 -73 -73.5t-98 -27.5q-62 0 -93.5 23t-31.5 60q0 40 29.5 78
t81 67.5t120.5 47.5t148 18v-1zM653 268q56 0 103 20.5t80.5 55t52.5 78t19 90.5q0 38 -15 68.5t-43 53.5q-39 -75 -91 -168t-112 -198h6z" />
    <glyph glyph-name="periodcentered" unicode="&#xb7;" horiz-adv-x="408" 
d="M214 171q-22 0 -36.5 15t-14.5 36t14.5 36t36.5 15q21 0 36 -14.5t15 -36.5q0 -21 -15 -36t-36 -15z" />
    <glyph glyph-name="cedilla" unicode="&#xb8;" horiz-adv-x="184" 
d="M-46 -70q24 -8 32 -34.5t-11 -58.5t-48.5 -43.5t-55.5 -11.5q-47 0 -62 30.5t11 76.5l35 -15q-15 -24 -10 -46t34 -22q15 0 34 8t33 31q7 11 9 22.5t-2.5 21.5t-15 16.5t-29.5 7.5l60 87h36z" />
    <glyph glyph-name="uni00B9" unicode="&#xb9;" horiz-adv-x="389" 
d="M652 865q-11 -21 -32 -58t-47.5 -82.5t-55.5 -95.5t-56 -97t-49.5 -87t-35.5 -64h-71q15 28 40.5 73.5t56 98t62 107t57.5 100.5q-44 -33 -94.5 -51.5t-102.5 -18.5v26q38 0 75.5 11t71 30.5t61.5 47t48 61.5z" />
    <glyph glyph-name="ordmasculine" unicode="&#xba;" horiz-adv-x="463" 
d="M723 626q-24 -42 -65 -67t-85 -25q-29 0 -48 10q-18 -31 -44.5 -60.5t-57 -52t-65 -36.5t-69.5 -14q-43 0 -65 19t-22 53q0 41 24.5 86.5t64 84t89 63.5t99.5 25q70 0 78 -54q17 -3 24.5 -13.5t7.5 -23.5q0 -17 -13 -32.5t-37 -16.5q2 -5 13.5 -10t31.5 -5
q32 0 64.5 22.5t53.5 59.5zM330 422q26 0 51.5 12.5t48 32t41.5 44.5t32 50q-12 16 -12 41q0 41 31 53q-9 25 -43 25q-32 0 -67 -22.5t-64 -55.5t-47.5 -69.5t-18.5 -64.5q0 -46 49 -46h-1z" />
    <glyph glyph-name="guillemotright" unicode="&#xbb;" horiz-adv-x="694" 
d="M130 129q16 14 39.5 30.5t51 33t58 33t61.5 30.5q-23 33 -41 69.5t-24 62.5l33 15q19 -33 50 -73.5t63 -73.5q-38 -16 -77 -34.5t-75 -38t-67.5 -38.5t-55.5 -36zM329 129q16 14 39.5 30.5t51 33t58 33t61.5 30.5q-23 33 -41 69.5t-24 62.5l33 15q19 -33 50 -73.5
t63 -73.5q-38 -16 -77 -34.5t-75 -38t-67.5 -38.5t-55.5 -36z" />
    <glyph glyph-name="questiondown" unicode="&#xbf;" horiz-adv-x="568" 
d="M387 410q22 0 36.5 -15t14.5 -36t-14.5 -36t-36.5 -15q-21 0 -36 14.5t-15 36.5q0 21 15 36t36 15zM64 -303q-79 0 -119.5 28t-40.5 73q0 40 19 70t51.5 58t75 57t89 67t94.5 87.5t91 119.5l22 -10q-32 -59 -71.5 -105.5t-80 -84.5t-79 -70t-68 -62t-47.5 -61.5
t-18 -68.5q0 -32 23 -52t70 -20q33 0 62.5 13t52 33.5t35.5 45.5t13 49t-16 39t-49 15l12 22q59 0 88.5 -21.5t29.5 -55.5q0 -31 -19 -60t-51.5 -52t-76 -37t-91.5 -14z" />
    <glyph glyph-name="Agrave" unicode="&#xc0;" horiz-adv-x="773" 
d="M841 770q-56 30 -97 63t-73 74l45 37q38 -56 72 -93t67 -60zM632 19q54 0 107 38.5t90 102.5l22 -12q-20 -35 -46.5 -64t-57 -49.5t-63 -32t-64.5 -11.5q-58 0 -87.5 22.5t-37 58.5t4.5 81.5t39 92.5q17 30 35 60t37 61q-98 -12 -182 -33q-51 -96 -94 -162t-82 -106.5
t-75 -58t-73 -17.5q-49 0 -73.5 20.5t-24.5 52.5q0 42 28.5 83.5t81 80t127 71.5t166.5 57q5 11 11 22l12 22q42 83 85 140.5t90.5 92.5t101.5 51t117 16h59q-47 -79 -89 -152.5t-84 -145.5q52 3 108 3v-27q-32 0 -62.5 -1t-60.5 -3q-23 -40 -45 -79t-45 -78
q-21 -36 -32.5 -71.5t-10 -64t18.5 -46t54 -17.5zM444 366q85 19 183 30q40 66 84 134t93 141q-52 -1 -98 -15.5t-88 -46.5t-80 -83t-75 -124l-18 -36h-1zM111 18q28 0 59 17t65.5 54t73 95.5t82.5 141.5q-80 -22 -143.5 -51t-108 -61.5t-68.5 -68t-24 -70.5q0 -24 16 -40
t49 -16z" />
    <glyph glyph-name="Aacute" unicode="&#xc1;" horiz-adv-x="773" 
d="M962 906q-32 -40 -73 -73t-97 -62l-13 20q33 23 67 60t72 93zM882 701q-47 -79 -89 -152.5t-84 -145.5q52 3 108 3v-27q-32 0 -62.5 -1t-60.5 -3q-23 -40 -45 -79t-45 -78q-21 -36 -32.5 -71.5t-10 -64t18.5 -46t54 -17.5q54 0 107 38.5t90 102.5l22 -12
q-20 -35 -46.5 -64t-57 -49.5t-63 -32t-64.5 -11.5q-58 0 -87.5 22.5t-37 58.5t4.5 81.5t39 92.5q17 30 35 60t37 61q-98 -12 -182 -33q-51 -96 -94 -162t-82 -106.5t-75 -58t-73 -17.5q-49 0 -73.5 20.5t-24.5 52.5q0 42 28.5 83.5t81 80t127 71.5t166.5 57q5 11 11 22
l12 22q42 83 85 140.5t90.5 92.5t101.5 51t117 16zM442 366q85 19 183 30q40 66 84 134t93 141q-52 -1 -98 -15.5t-88 -46.5t-80 -83t-75 -124l-18 -36h-1zM109 18q28 0 59 17t65.5 54t73 95.5t82.5 141.5q-80 -22 -143.5 -51t-108 -61.5t-68.5 -68t-24 -70.5q0 -24 16 -40
t49 -16z" />
    <glyph glyph-name="Acircumflex" unicode="&#xc2;" horiz-adv-x="773" 
d="M840 888q-35 -37 -77.5 -69t-77.5 -49l-11 25q18 9 40.5 23.5t46 34t47.5 42.5t46 48q26 -35 46.5 -77.5t28.5 -78.5l-47 -12q-2 23 -13.5 54t-28.5 60v-1zM883 701q-47 -79 -89 -152.5t-84 -145.5q52 3 108 3v-27q-32 0 -62.5 -1t-60.5 -3q-23 -40 -45 -79t-45 -78
q-21 -36 -32.5 -71.5t-10 -64t18.5 -46t54 -17.5q54 0 107 38.5t90 102.5l22 -12q-20 -35 -46.5 -64t-57 -49.5t-63 -32t-64.5 -11.5q-58 0 -87.5 22.5t-37 58.5t4.5 81.5t39 92.5q17 30 35 60t37 61q-98 -12 -182 -33q-51 -96 -94 -162t-82 -106.5t-75 -58t-73 -17.5
q-49 0 -73.5 20.5t-24.5 52.5q0 42 28.5 83.5t81 80t127 71.5t166.5 57q5 11 11 22l12 22q42 83 85 140.5t90.5 92.5t101.5 51t117 16zM443 366q85 19 183 30q40 66 84 134t93 141q-52 -1 -98 -15.5t-88 -46.5t-80 -83t-75 -124l-18 -36h-1zM110 18q28 0 59 17t65.5 54
t73 95.5t82.5 141.5q-80 -22 -143.5 -51t-108 -61.5t-68.5 -68t-24 -70.5q0 -24 16 -40t49 -16z" />
    <glyph glyph-name="Atilde" unicode="&#xc3;" horiz-adv-x="773" 
d="M1031 893q-26 -45 -54.5 -71.5t-63.5 -26.5q-28 0 -46.5 11t-33.5 24t-31 24t-38 11q-20 0 -41 -13t-37 -35l-26 14q19 32 50.5 51.5t63.5 19.5q27 0 43.5 -8t31.5 -17.5t31 -17.5t41 -8q24 0 49.5 15t42.5 40zM885 700q-47 -79 -89 -152.5t-84 -145.5q52 3 108 3v-27
q-32 0 -62.5 -1t-60.5 -3q-23 -40 -45 -79t-45 -78q-21 -36 -32.5 -71.5t-10 -64t18.5 -46t54 -17.5q54 0 107 38.5t90 102.5l22 -12q-20 -35 -46.5 -64t-57 -49.5t-63 -32t-64.5 -11.5q-58 0 -87.5 22.5t-37 58.5t4.5 81.5t39 92.5q17 30 35 60t37 61q-98 -12 -182 -33
q-51 -96 -94 -162t-82 -106.5t-75 -58t-73 -17.5q-49 0 -73.5 20.5t-24.5 52.5q0 42 28.5 83.5t81 80t127 71.5t166.5 57q5 11 11 22l12 22q42 83 85 140.5t90.5 92.5t101.5 51t117 16zM445 365q85 19 183 30q40 66 84 134t93 141q-52 -1 -98 -15.5t-88 -46.5t-80 -83
t-75 -124l-18 -36h-1zM112 17q28 0 59 17t65.5 54t73 95.5t82.5 141.5q-80 -22 -143.5 -51t-108 -61.5t-68.5 -68t-24 -70.5q0 -24 16 -40t49 -16z" />
    <glyph glyph-name="Adieresis" unicode="&#xc4;" horiz-adv-x="773" 
d="M750 810q-22 0 -36.5 15t-14.5 36t14.5 36t36.5 15q21 0 36 -14.5t15 -36.5q0 -21 -15 -36t-36 -15zM935 912q21 0 36 -14.5t15 -36.5q0 -21 -15 -36t-36 -15q-22 0 -36.5 15t-14.5 36t14.5 36t36.5 15zM884 702q-47 -79 -89 -152.5t-84 -145.5q52 3 108 3v-27
q-32 0 -62.5 -1t-60.5 -3q-23 -40 -45 -79t-45 -78q-21 -36 -32.5 -71.5t-10 -64t18.5 -46t54 -17.5q54 0 107 38.5t90 102.5l22 -12q-20 -35 -46.5 -64t-57 -49.5t-63 -32t-64.5 -11.5q-58 0 -87.5 22.5t-37 58.5t4.5 81.5t39 92.5q17 30 35 60t37 61q-98 -12 -182 -33
q-51 -96 -94 -162t-82 -106.5t-75 -58t-73 -17.5q-49 0 -73.5 20.5t-24.5 52.5q0 42 28.5 83.5t81 80t127 71.5t166.5 57q5 11 11 22l12 22q42 83 85 140.5t90.5 92.5t101.5 51t117 16zM444 367q85 19 183 30q40 66 84 134t93 141q-52 -1 -98 -15.5t-88 -46.5t-80 -83
t-75 -124l-18 -36h-1zM111 19q28 0 59 17t65.5 54t73 95.5t82.5 141.5q-80 -22 -143.5 -51t-108 -61.5t-68.5 -68t-24 -70.5q0 -24 16 -40t49 -16z" />
    <glyph glyph-name="Aring" unicode="&#xc5;" horiz-adv-x="773" 
d="M827 972q21 0 39.5 -8t32 -21.5t21.5 -32t8 -39.5t-8 -39.5t-21.5 -32t-32 -21.5t-39.5 -8t-39.5 8t-32 21.5t-21.5 32t-8 39.5t8 39.5t21.5 32t32 21.5t39.5 8zM827 810q25 0 42.5 17.5t17.5 42.5t-17.5 42.5t-42.5 17.5t-42.5 -17.5t-17.5 -42.5t17.5 -42.5t42.5 -17.5
zM883 702q-47 -79 -89 -152.5t-84 -145.5q52 3 108 3v-27q-32 0 -62.5 -1t-60.5 -3q-23 -40 -45 -79t-45 -78q-21 -36 -32.5 -71.5t-10 -64t18.5 -46t54 -17.5q54 0 107 38.5t90 102.5l22 -12q-20 -35 -46.5 -64t-57 -49.5t-63 -32t-64.5 -11.5q-58 0 -87.5 22.5t-37 58.5
t4.5 81.5t39 92.5q17 30 35 60t37 61q-98 -12 -182 -33q-51 -96 -94 -162t-82 -106.5t-75 -58t-73 -17.5q-49 0 -73.5 20.5t-24.5 52.5q0 42 28.5 83.5t81 80t127 71.5t166.5 57q5 11 11 22l12 22q42 83 85 140.5t90.5 92.5t101.5 51t117 16zM443 367q85 19 183 30
q40 66 84 134t93 141q-52 -1 -98 -15.5t-88 -46.5t-80 -83t-75 -124l-18 -36h-1zM110 19q28 0 59 17t65.5 54t73 95.5t82.5 141.5q-80 -22 -143.5 -51t-108 -61.5t-68.5 -68t-24 -70.5q0 -24 16 -40t49 -16z" />
    <glyph glyph-name="AE" unicode="&#xc6;" horiz-adv-x="974" 
d="M1067 170q-32 -40 -75.5 -73t-93.5 -56t-105 -36t-109 -13q-93 0 -145.5 32t-52.5 93q0 36 17.5 63.5t45 49.5t60.5 40t64 35t56 35t36 40q-93 -3 -176 -14.5t-156 -29.5q-51 -96 -94 -162t-82 -106.5t-75 -58t-73 -17.5q-49 0 -73.5 20.5t-24.5 52.5q0 42 28.5 83.5
t81 80t127 71.5t166.5 57q5 11 11 22l12 22q42 83 91.5 141.5t119.5 96t167.5 55t235.5 17.5h2l-7 -26h-2q-55 0 -94 -22t-64 -52.5t-37 -64.5t-12 -59q0 -28 4.5 -46.5t4.5 -36.5q0 -24 -21 -44.5t-52 -40t-67.5 -39.5t-67.5 -44t-52 -53t-21 -67q0 -49 36 -74.5t100 -25.5
q48 0 97 12t94.5 33.5t85.5 52t70 67.5zM448 367q73 17 154 27t170 12v3q0 18 -4.5 38.5t-4.5 47.5q0 57 39 106t102 78q-90 -9 -158 -29.5t-119.5 -54.5t-90 -82t-69.5 -111l-18 -36zM115 19q28 0 59 17t65.5 54t73 95.5t82.5 141.5q-80 -22 -143.5 -51t-108 -61.5
t-68.5 -68t-24 -70.5q0 -24 16 -40t49 -16z" />
    <glyph glyph-name="Ccedilla" unicode="&#xc7;" horiz-adv-x="746" 
d="M961 631q0 -50 -44.5 -100.5t-122.5 -92.5t-184.5 -69.5t-230.5 -31.5q-30 -54 -44.5 -101t-14.5 -85q0 -65 41 -101t122 -36q46 0 93 12t91 33.5t83.5 52t69.5 67.5l20 -13q-32 -40 -74.5 -73t-91.5 -56t-102 -36t-105 -13h-15.5t-15.5 1l-43 -61q24 -8 32 -34.5
t-11 -58.5t-48.5 -43.5t-55.5 -11.5q-47 0 -62 30.5t11 76.5l35 -15q-15 -24 -10 -46t34 -22q15 0 34 8t33 31q7 11 9 22.5t-2.5 21.5t-15 16.5t-29.5 7.5l56 82q-80 12 -121 54.5t-41 109.5q0 80 58 183q-100 7 -152 43.5t-52 90.5q0 39 22.5 76.5t61.5 66.5t90.5 47
t110.5 18v-24q-41 0 -78 -16.5t-65.5 -43t-45.5 -58.5t-17 -62q0 -43 36 -72t106 -37q47 77 107.5 140t128.5 108t140 69.5t143 24.5q61 0 93.5 -20.5t32.5 -56.5v-3zM819 682q-53 0 -109.5 -22.5t-112 -64t-107.5 -100t-95 -130.5q105 4 195 30t156 64.5t103.5 84
t37.5 87.5q0 23 -17 36.5t-50 13.5z" />
    <glyph glyph-name="Egrave" unicode="&#xc8;" horiz-adv-x="690" 
d="M811 770q-56 30 -97 63t-73 74l45 37q38 -56 72 -93t67 -60zM883 644q0 -26 -24.5 -58t-68 -65t-102 -62.5t-126.5 -48.5v-9q0 -24 -21 -44.5t-52 -40t-67.5 -39.5t-67.5 -44t-52 -53t-21 -67q0 -49 36 -74.5t100 -25.5q48 0 97 12t94.5 33.5t85.5 52t70 67.5l20 -13
q-32 -40 -75.5 -73t-93.5 -56t-105 -36t-109 -13q-93 0 -145.5 32t-52.5 93q0 39 20 68t50.5 51.5t66 41t67.5 37t54.5 38.5t26.5 47q-54 -9 -109 -9q-59 0 -106 9t-80 25.5t-50.5 39t-17.5 49.5q0 33 22.5 63.5t61 54.5t89.5 38.5t108 14.5v-24q-41 0 -78 -13t-65 -34
t-44.5 -47t-16.5 -51q0 -44 51 -71t142 -27q24 0 47 2t46 6q-2 15 -5 32t-3 39q0 44 24.5 83.5t66 69t95.5 47t114 17.5q58 0 81 -19t23 -43zM559 433q59 18 109 44.5t86 55.5t56 58t20 50q0 17 -13.5 28t-43.5 11q-58 0 -99.5 -21.5t-68.5 -52t-39.5 -65t-12.5 -59.5
q0 -14 1.5 -25.5t3.5 -21.5z" />
    <glyph glyph-name="Eacute" unicode="&#xc9;" horiz-adv-x="690" 
d="M933 906q-32 -40 -73 -73t-97 -62l-13 20q33 23 67 60t72 93zM779 707q58 0 81 -19t23 -43q0 -26 -24.5 -58t-68 -65t-102 -62.5t-126.5 -48.5v-9q0 -24 -21 -44.5t-52 -40t-67.5 -39.5t-67.5 -44t-52 -53t-21 -67q0 -49 36 -74.5t100 -25.5q48 0 97 12t94.5 33.5
t85.5 52t70 67.5l20 -13q-32 -40 -75.5 -73t-93.5 -56t-105 -36t-109 -13q-93 0 -145.5 32t-52.5 93q0 39 20 68t50.5 51.5t66 41t67.5 37t54.5 38.5t26.5 47q-54 -9 -109 -9q-59 0 -106 9t-80 25.5t-50.5 39t-17.5 49.5q0 33 22.5 63.5t61 54.5t89.5 38.5t108 14.5v-24
q-41 0 -78 -13t-65 -34t-44.5 -47t-16.5 -51q0 -44 51 -71t142 -27q24 0 47 2t46 6q-2 15 -5 32t-3 39q0 44 24.5 83.5t66 69t95.5 47t114 17.5zM559 433q59 18 109 44.5t86 55.5t56 58t20 50q0 17 -13.5 28t-43.5 11q-58 0 -99.5 -21.5t-68.5 -52t-39.5 -65t-12.5 -59.5
q0 -14 1.5 -25.5t3.5 -21.5z" />
    <glyph glyph-name="Ecircumflex" unicode="&#xca;" horiz-adv-x="690" 
d="M811 888q-35 -37 -77.5 -69t-77.5 -49l-11 25q18 9 40.5 23.5t46 34t47.5 42.5t46 48q26 -35 46.5 -77.5t28.5 -78.5l-47 -12q-2 23 -13.5 54t-28.5 60v-1zM779 706q58 0 81 -19t23 -43q0 -26 -24.5 -58t-68 -65t-102 -62.5t-126.5 -48.5v-9q0 -24 -21 -44.5t-52 -40
t-67.5 -39.5t-67.5 -44t-52 -53t-21 -67q0 -49 36 -74.5t100 -25.5q48 0 97 12t94.5 33.5t85.5 52t70 67.5l20 -13q-32 -40 -75.5 -73t-93.5 -56t-105 -36t-109 -13q-93 0 -145.5 32t-52.5 93q0 39 20 68t50.5 51.5t66 41t67.5 37t54.5 38.5t26.5 47q-54 -9 -109 -9
q-59 0 -106 9t-80 25.5t-50.5 39t-17.5 49.5q0 33 22.5 63.5t61 54.5t89.5 38.5t108 14.5v-24q-41 0 -78 -13t-65 -34t-44.5 -47t-16.5 -51q0 -44 51 -71t142 -27q24 0 47 2t46 6q-2 15 -5 32t-3 39q0 44 24.5 83.5t66 69t95.5 47t114 17.5zM559 432q59 18 109 44.5t86 55.5
t56 58t20 50q0 17 -13.5 28t-43.5 11q-58 0 -99.5 -21.5t-68.5 -52t-39.5 -65t-12.5 -59.5q0 -14 1.5 -25.5t3.5 -21.5z" />
    <glyph glyph-name="Edieresis" unicode="&#xcb;" horiz-adv-x="690" 
d="M721 810q-22 0 -36.5 15t-14.5 36t14.5 36t36.5 15q21 0 36 -14.5t15 -36.5q0 -21 -15 -36t-36 -15zM906 912q21 0 36 -14.5t15 -36.5q0 -21 -15 -36t-36 -15q-22 0 -36.5 15t-14.5 36t14.5 36t36.5 15zM780 708q58 0 81 -19t23 -43q0 -26 -24.5 -58t-68 -65t-102 -62.5
t-126.5 -48.5v-9q0 -24 -21 -44.5t-52 -40t-67.5 -39.5t-67.5 -44t-52 -53t-21 -67q0 -49 36 -74.5t100 -25.5q48 0 97 12t94.5 33.5t85.5 52t70 67.5l20 -13q-32 -40 -75.5 -73t-93.5 -56t-105 -36t-109 -13q-93 0 -145.5 32t-52.5 93q0 39 20 68t50.5 51.5t66 41t67.5 37
t54.5 38.5t26.5 47q-54 -9 -109 -9q-59 0 -106 9t-80 25.5t-50.5 39t-17.5 49.5q0 33 22.5 63.5t61 54.5t89.5 38.5t108 14.5v-24q-41 0 -78 -13t-65 -34t-44.5 -47t-16.5 -51q0 -44 51 -71t142 -27q24 0 47 2t46 6q-2 15 -5 32t-3 39q0 44 24.5 83.5t66 69t95.5 47
t114 17.5zM560 434q59 18 109 44.5t86 55.5t56 58t20 50q0 17 -13.5 28t-43.5 11q-58 0 -99.5 -21.5t-68.5 -52t-39.5 -65t-12.5 -59.5q0 -14 1.5 -25.5t3.5 -21.5z" />
    <glyph glyph-name="Igrave" unicode="&#xcc;" horiz-adv-x="511" 
d="M638 770q-56 30 -97 63t-73 74l45 37q38 -56 72 -93t67 -60zM783 658q-34 0 -68.5 -14.5t-69 -45.5t-69 -81t-70.5 -121q-58 -116 -109.5 -194.5t-99 -126.5t-92.5 -68.5t-90 -20.5q-44 0 -70 24.5t-26 62.5q0 26 15 56t48 59l18 -19q-28 -26 -40 -49t-12 -43
q0 -28 20 -45t49 -17q28 0 60.5 21t70.5 66.5t82.5 118t96.5 176.5q61 123 124.5 190t131.5 93q-54 10 -108 17t-99 7q-61 0 -110.5 -17.5t-84 -45t-53.5 -61t-19 -64.5q0 -24 15.5 -39t47.5 -15q38 0 75 24t60 63l22 -14q-26 -45 -72.5 -71.5t-98.5 -26.5q-62 0 -93.5 23
t-31.5 60q0 38 26 75.5t72.5 67.5t111.5 49t143 19q45 0 86.5 -5t80 -11t72 -11t61.5 -5v-36z" />
    <glyph glyph-name="Iacute" unicode="&#xcd;" horiz-adv-x="511" 
d="M760 906q-32 -40 -73 -73t-97 -62l-13 20q33 23 67 60t72 93zM783 658q-34 0 -68.5 -14.5t-69 -45.5t-69 -81t-70.5 -121q-58 -116 -109.5 -194.5t-99 -126.5t-92.5 -68.5t-90 -20.5q-44 0 -70 24.5t-26 62.5q0 26 15 56t48 59l18 -19q-28 -26 -40 -49t-12 -43
q0 -28 20 -45t49 -17q28 0 60.5 21t70.5 66.5t82.5 118t96.5 176.5q61 123 124.5 190t131.5 93q-54 10 -108 17t-99 7q-61 0 -110.5 -17.5t-84 -45t-53.5 -61t-19 -64.5q0 -24 15.5 -39t47.5 -15q38 0 75 24t60 63l22 -14q-26 -45 -72.5 -71.5t-98.5 -26.5q-62 0 -93.5 23
t-31.5 60q0 38 26 75.5t72.5 67.5t111.5 49t143 19q45 0 86.5 -5t80 -11t72 -11t61.5 -5v-36z" />
    <glyph glyph-name="Icircumflex" unicode="&#xce;" horiz-adv-x="511" 
d="M638 888q-35 -37 -77.5 -69t-77.5 -49l-11 25q18 9 40.5 23.5t46 34t47.5 42.5t46 48q26 -35 46.5 -77.5t28.5 -78.5l-47 -12q-2 23 -13.5 54t-28.5 60v-1zM784 657q-34 0 -68.5 -14.5t-69 -45.5t-69 -81t-70.5 -121q-58 -116 -109.5 -194.5t-99 -126.5t-92.5 -68.5
t-90 -20.5q-44 0 -70 24.5t-26 62.5q0 26 15 56t48 59l18 -19q-28 -26 -40 -49t-12 -43q0 -28 20 -45t49 -17q28 0 60.5 21t70.5 66.5t82.5 118t96.5 176.5q61 123 124.5 190t131.5 93q-54 10 -108 17t-99 7q-61 0 -110.5 -17.5t-84 -45t-53.5 -61t-19 -64.5q0 -24 15.5 -39
t47.5 -15q38 0 75 24t60 63l22 -14q-26 -45 -72.5 -71.5t-98.5 -26.5q-62 0 -93.5 23t-31.5 60q0 38 26 75.5t72.5 67.5t111.5 49t143 19q45 0 86.5 -5t80 -11t72 -11t61.5 -5v-36z" />
    <glyph glyph-name="Idieresis" unicode="&#xcf;" horiz-adv-x="511" 
d="M548 810q-22 0 -36.5 15t-14.5 36t14.5 36t36.5 15q21 0 36 -14.5t15 -36.5q0 -21 -15 -36t-36 -15zM733 810q-22 0 -36.5 15t-14.5 36t14.5 36t36.5 15q21 0 36 -14.5t15 -36.5q0 -21 -15 -36t-36 -15zM784 659q-34 0 -68.5 -14.5t-69 -45.5t-69 -81t-70.5 -121
q-58 -116 -109.5 -194.5t-99 -126.5t-92.5 -68.5t-90 -20.5q-44 0 -70 24.5t-26 62.5q0 26 15 56t48 59l18 -19q-28 -26 -40 -49t-12 -43q0 -28 20 -45t49 -17q28 0 60.5 21t70.5 66.5t82.5 118t96.5 176.5q61 123 124.5 190t131.5 93q-54 10 -108 17t-99 7
q-61 0 -110.5 -17.5t-84 -45t-53.5 -61t-19 -64.5q0 -24 15.5 -39t47.5 -15q38 0 75 24t60 63l22 -14q-26 -45 -72.5 -71.5t-98.5 -26.5q-62 0 -93.5 23t-31.5 60q0 38 26 75.5t72.5 67.5t111.5 49t143 19q45 0 86.5 -5t80 -11t72 -11t61.5 -5v-36z" />
    <glyph glyph-name="Eth" unicode="&#xd0;" horiz-adv-x="890" 
d="M856 670q-77 0 -135 -24q60 -48 93 -117t33 -150q0 -70 -25 -139.5t-70 -125.5t-107 -91t-136 -35q-53 0 -93 29.5t-54 77.5l24 9q12 -41 46 -65.5t78 -24.5q37 0 71.5 18.5t64 50t54 72t41.5 85t26.5 89t9.5 83.5q0 68 -23.5 123.5t-66.5 94.5q-55 -32 -99 -88.5
t-88 -143.5q-6 -12 -12 -23.5t-12 -22.5q22 -2 46 -3t50 -1l-19 -34q-51 0 -94 3q-50 -92 -95.5 -155t-88 -101.5t-83.5 -55.5t-82 -17q-44 0 -70 24.5t-26 62.5q0 26 15 56t48 59l18 -19q-28 -26 -40 -49t-12 -43q0 -28 20 -45t49 -17q25 0 54 17t62.5 54.5t72 96.5
t83.5 143q-66 11 -114 30t-78.5 43.5t-45 53t-14.5 58.5q0 39 24 78t68.5 70.5t108.5 51t144 19.5q60 0 112.5 -15t96.5 -42q74 25 172 25zM419 396q51 102 105.5 165.5t123.5 95.5q-35 22 -78 33.5t-94 11.5q-63 0 -112.5 -18t-83.5 -45.5t-51.5 -60t-17.5 -62.5
q0 -48 44.5 -91t145.5 -64q5 8 9 17t9 18z" />
    <glyph glyph-name="Ntilde" unicode="&#xd1;" horiz-adv-x="871" 
d="M866 864q-20 0 -41 -13t-37 -35l-26 14q19 32 50.5 51.5t63.5 19.5q27 0 43.5 -8t31.5 -17.5t31 -17.5t41 -8q24 0 49.5 15t42.5 40l17 -11q-26 -45 -54.5 -71.5t-63.5 -26.5q-28 0 -46.5 11t-33.5 24t-31 24t-38 11zM1127 706q53 0 76.5 -23t23.5 -58q0 -36 -23 -76
l-37 20q16 28 16 54q0 25 -16.5 41t-48.5 16q-67 0 -133 -74.5t-132 -207.5q-45 -90 -75.5 -148t-57.5 -99.5t-56 -75.5t-72 -77h-40q26 92 36.5 159t13.5 119t3 94t5 85t19 91t45 113q-29 -18 -78.5 -79t-109.5 -180q-58 -116 -106 -194.5t-90.5 -126.5t-82 -68.5
t-81.5 -20.5q-52 0 -75.5 22t-23.5 55q0 36 24 75l36 -16q-16 -28 -16 -53t16.5 -41t48.5 -16t65.5 21t72 67t82.5 118.5t96 176.5q42 83 80.5 140.5t70.5 92.5t56 51t38 16h48q-26 -70 -38 -128.5t-17 -110t-6 -97.5t-4.5 -91t-13 -91t-30.5 -98q21 28 41.5 58t42 67.5
t45.5 83.5t54 106q39 78 76 136t74.5 96.5t76.5 57.5t82 19z" />
    <glyph glyph-name="Ograve" unicode="&#xd2;" horiz-adv-x="879" 
d="M837 770q-56 30 -97 63t-73 74l45 37q38 -56 72 -93t67 -60zM678 365q-71 0 -108.5 33t-37.5 84q0 39 21 79.5t57 73t83.5 53.5t100.5 21q69 -1 103.5 -37t34.5 -99q0 -56 -24 -121t-65.5 -130t-98 -125.5t-121.5 -106.5t-136 -74t-141 -28q-91 0 -142.5 45t-51.5 125
q0 47 18.5 99t50.5 105.5t76.5 105.5t96.5 97t110 81t117 58l9 -20q-46 -19 -94 -54t-92 -80t-83 -97.5t-68 -105.5t-45.5 -103.5t-16.5 -92.5q0 -64 35 -99t96 -35q57 0 116 29t115 76t104.5 108t85.5 124.5t58 125.5t21 111q0 45 -18.5 69t-50.5 24q-36 0 -69.5 -21
t-59 -52t-41 -67t-15.5 -66q0 -40 22 -63.5t56 -23.5z" />
    <glyph glyph-name="Oacute" unicode="&#xd3;" horiz-adv-x="879" 
d="M775 790q33 23 67 60t72 93l45 -37q-32 -40 -73 -73t-97 -62zM678 365q-71 0 -108.5 33t-37.5 84q0 39 21 79.5t57 73t83.5 53.5t100.5 21q69 -1 103.5 -37t34.5 -99q0 -56 -24 -121t-65.5 -130t-98 -125.5t-121.5 -106.5t-136 -74t-141 -28q-91 0 -142.5 45t-51.5 125
q0 47 18.5 99t50.5 105.5t76.5 105.5t96.5 97t110 81t117 58l9 -20q-46 -19 -94 -54t-92 -80t-83 -97.5t-68 -105.5t-45.5 -103.5t-16.5 -92.5q0 -64 35 -99t96 -35q57 0 116 29t115 76t104.5 108t85.5 124.5t58 125.5t21 111q0 45 -18.5 69t-50.5 24q-36 0 -69.5 -21
t-59 -52t-41 -67t-15.5 -66q0 -40 22 -63.5t56 -23.5z" />
    <glyph glyph-name="Ocircumflex" unicode="&#xd4;" horiz-adv-x="879" 
d="M879 775q-2 23 -13.5 54t-28.5 60q-35 -37 -77.5 -69t-77.5 -49l-11 25q18 9 40.5 23.5t46 34t47.5 42.5t46 48q26 -35 46.5 -77.5t28.5 -78.5zM679 365q-71 0 -108.5 33t-37.5 84q0 39 21 79.5t57 73t83.5 53.5t100.5 21q69 -1 103.5 -37t34.5 -99q0 -56 -24 -121
t-65.5 -130t-98 -125.5t-121.5 -106.5t-136 -74t-141 -28q-91 0 -142.5 45t-51.5 125q0 47 18.5 99t50.5 105.5t76.5 105.5t96.5 97t110 81t117 58l9 -20q-47 -19 -94.5 -54t-91.5 -80t-83 -97.5t-68 -105.5t-45.5 -103.5t-16.5 -92.5q0 -64 35 -99t96 -35q57 0 116 29
t115 76t104.5 108t85.5 124.5t58 125.5t21 111q0 45 -18.5 69t-50.5 24q-36 0 -69.5 -21t-59 -52t-41 -67t-15.5 -66q0 -40 22 -63.5t56 -23.5z" />
    <glyph glyph-name="Otilde" unicode="&#xd5;" horiz-adv-x="879" 
d="M655 832q19 32 50.5 51.5t63.5 19.5q27 0 43.5 -8t31.5 -18t31 -18t41 -8q24 0 49.5 15t42.5 40l16 -11q-26 -45 -54.5 -72t-63.5 -27q-28 0 -46.5 11t-33.5 23.5t-31 23.5t-38 11q-20 0 -41 -13t-37 -35zM684 391q-34 0 -56 23.5t-22 63.5q0 30 15.5 66t41 67t59 52
t69.5 21q32 0 50.5 -24t18.5 -69q0 -49 -21 -111t-58 -125.5t-85.5 -124.5t-104.5 -108t-115 -76t-116 -29q-61 0 -96 35t-35 99q0 42 16.5 92.5t45.5 103.5t68 105.5t83 97.5t91.5 80t94.5 54l-9 20q-59 -22 -117 -58t-110 -81t-96.5 -97t-76.5 -105.5t-50.5 -105.5
t-18.5 -99q0 -80 51.5 -125t142.5 -45q70 0 141 28t136 74t121.5 106.5t98 125.5t65.5 130t24 121q0 63 -34.5 99t-103.5 37q-53 0 -100.5 -21t-83.5 -53.5t-57 -73t-21 -79.5q0 -51 37.5 -84t108.5 -33z" />
    <glyph glyph-name="Odieresis" unicode="&#xd6;" horiz-adv-x="879" 
d="M746 810q-22 0 -36.5 15t-14.5 36t14.5 36t36.5 15q21 0 36 -14.5t15 -36.5q0 -21 -15 -36t-36 -15zM931 810q-22 0 -36.5 15t-14.5 36t14.5 36t36.5 15q21 0 36 -14.5t15 -36.5q0 -21 -15 -36t-36 -15zM678 366q-71 0 -108.5 33t-37.5 84q0 39 21 79.5t57 73t83.5 53.5
t100.5 21q69 -1 103.5 -37t34.5 -99q0 -56 -24 -121t-65.5 -130t-98 -125.5t-121.5 -106.5t-136 -74t-141 -28q-91 0 -142.5 45t-51.5 125q0 46 18.5 98.5t50.5 106t76.5 105.5t96.5 97t110 81t117 58l9 -20q-46 -19 -94 -54t-92 -80t-83 -97.5t-68 -105.5t-45.5 -103.5
t-16.5 -92.5q0 -64 35 -99t96 -35q57 0 116 29t115 76t104.5 108t85.5 124.5t58 125.5t21 111q0 45 -18.5 69t-50.5 24q-36 0 -69.5 -21t-59 -52t-41 -67t-15.5 -66q0 -40 22 -63.5t56 -23.5z" />
    <glyph glyph-name="multiply" unicode="&#xd7;" horiz-adv-x="492" 
d="M530 414q-43 -36 -92.5 -72t-103.5 -71q14 -32 25 -61t19 -55l-51 -24q-6 22 -17 49.5t-25 59.5q-52 -32 -103 -60t-99 -50l-14 28q49 22 101 49t104 58q-16 34 -34 69t-38 70l51 28q19 -32 37 -66.5t34 -69.5q54 34 103.5 69t91.5 69z" />
    <glyph glyph-name="Oslash" unicode="&#xd8;" horiz-adv-x="838" 
d="M893 569q0 -53 -22.5 -115t-62 -124.5t-93 -121t-115.5 -105t-130 -76.5t-136 -35q-44 -75 -80 -137t-56 -100h-53q21 38 57 100t81 137q-69 6 -104.5 42.5t-35.5 98.5q0 53 22.5 115.5t62.5 125.5t94 121.5t116.5 105t130.5 76t137 33.5q32 54 58.5 101.5t45.5 85.5h51
q-19 -38 -46 -85.5t-59 -101.5q69 -7 103.5 -43.5t34.5 -98.5zM215 125q0 -91 83 -105q28 46 57 95t57.5 97.5t56 95.5t51.5 89q38 68 82.5 141.5t86.5 144.5q-55 -5 -111.5 -36.5t-109 -79t-98.5 -106t-80.5 -118.5t-54 -117t-19.5 -101h-1zM349 21q55 6 111 38t108 79.5
t98 105.5t79.5 118t53 116.5t19.5 100.5t-20 70.5t-60 33.5q-43 -72 -88.5 -147.5t-84.5 -144.5q-24 -42 -50.5 -88t-54 -93.5t-56 -95.5t-55.5 -94v1z" />
    <glyph glyph-name="Ugrave" unicode="&#xd9;" horiz-adv-x="775" 
d="M723 770q-56 30 -97 63t-73 74l45 37q38 -56 72 -93t67 -60zM640 16q51 0 103.5 38.5t89.5 102.5l22 -12q-20 -35 -46.5 -64t-56.5 -49.5t-61.5 -32t-62.5 -11.5q-65 0 -98.5 29t-33.5 81q0 21 6 45q-57 -72 -118.5 -113t-114.5 -41q-62 0 -93.5 27.5t-31.5 77.5
q0 48 20.5 94t50.5 91t66 89t66 89t50.5 90.5t20.5 93.5q0 29 -19.5 46.5t-67.5 17.5q-47 0 -91.5 -16t-80 -42.5t-57 -60t-21.5 -68.5q0 -25 15 -40.5t47 -15.5q38 0 74.5 24t59.5 63l21 -14q-26 -44 -72.5 -71t-97.5 -27q-62 0 -93 23.5t-31 60.5q0 38 27.5 75.5
t73.5 67.5t104.5 48.5t120.5 18.5q80 0 114.5 -29t34.5 -81q0 -46 -19.5 -92.5t-49.5 -92.5t-64 -91.5t-64 -90t-49.5 -87.5t-19.5 -83q0 -32 17.5 -49t52.5 -17q30 0 63.5 16.5t68 46t68 71.5t63.5 93q60 105 128.5 217.5t148.5 237.5h69q-78 -131 -145 -248.5t-135 -234.5
q-44 -75 -44 -127q0 -35 19.5 -54t57.5 -19z" />
    <glyph glyph-name="Uacute" unicode="&#xda;" horiz-adv-x="775" 
d="M845 906q-32 -40 -73 -73t-97 -62l-13 20q33 23 67 60t72 93zM640 16q51 0 103.5 38.5t89.5 102.5l22 -12q-20 -35 -46.5 -64t-56.5 -49.5t-61.5 -32t-62.5 -11.5q-65 0 -98.5 29t-33.5 81q0 21 6 45q-57 -72 -118.5 -113t-114.5 -41q-62 0 -93.5 27.5t-31.5 77.5
q0 48 20.5 94t50.5 91t66 89t66 89t50.5 90.5t20.5 93.5q0 29 -19.5 46.5t-67.5 17.5q-47 0 -91.5 -16t-80 -42.5t-57 -60t-21.5 -68.5q0 -25 15 -40.5t47 -15.5q38 0 74.5 24t59.5 63l21 -14q-26 -44 -72.5 -71t-97.5 -27q-62 0 -93 23.5t-31 60.5q0 38 27.5 75.5
t73.5 67.5t104.5 48.5t120.5 18.5q80 0 114.5 -29t34.5 -81q0 -46 -19.5 -92.5t-49.5 -92.5t-64 -91.5t-64 -90t-49.5 -87.5t-19.5 -83q0 -32 17.5 -49t52.5 -17q30 0 63.5 16.5t68 46t68 71.5t63.5 93q60 105 128.5 217.5t148.5 237.5h69q-78 -131 -145 -248.5t-135 -234.5
q-44 -75 -44 -127q0 -35 19.5 -54t57.5 -19z" />
    <glyph glyph-name="Ucircumflex" unicode="&#xdb;" horiz-adv-x="775" 
d="M723 888q-35 -37 -77.5 -69t-77.5 -49l-11 25q18 9 40.5 23.5t46 34t47.5 42.5t46 48q26 -35 46.5 -77.5t28.5 -78.5l-47 -12q-2 23 -13.5 54t-28.5 60v-1zM641 15q51 0 103.5 38.5t89.5 102.5l22 -12q-20 -35 -46.5 -64t-56.5 -49.5t-61.5 -32t-62.5 -11.5
q-65 0 -98.5 29t-33.5 81q0 21 6 45q-57 -72 -118.5 -113t-114.5 -41q-62 0 -93.5 27.5t-31.5 77.5q0 48 20.5 94t50.5 91t66 89t66 89t50.5 90.5t20.5 93.5q0 29 -19.5 46.5t-67.5 17.5q-47 0 -91.5 -16t-80 -42.5t-57 -60t-21.5 -68.5q0 -25 15 -40.5t47 -15.5
q38 0 74.5 24t59.5 63l21 -14q-26 -44 -72.5 -71t-97.5 -27q-62 0 -93 23.5t-31 60.5q0 38 27.5 75.5t73.5 67.5t104.5 48.5t120.5 18.5q80 0 114.5 -29t34.5 -81q0 -46 -19.5 -92.5t-49.5 -92.5t-64 -91.5t-64 -90t-49.5 -87.5t-19.5 -83q0 -32 17.5 -49t52.5 -17
q30 0 63.5 16.5t68 46t68 71.5t63.5 93q60 105 128.5 217.5t148.5 237.5h69q-78 -131 -145 -248.5t-135 -234.5q-44 -75 -44 -127q0 -35 19.5 -54t57.5 -19z" />
    <glyph glyph-name="Udieresis" unicode="&#xdc;" horiz-adv-x="775" 
d="M633 810q-22 0 -36.5 15t-14.5 36t14.5 36t36.5 15q21 0 36 -14.5t15 -36.5q0 -21 -15 -36t-36 -15zM818 810q-22 0 -36.5 15t-14.5 36t14.5 36t36.5 15q21 0 36 -14.5t15 -36.5q0 -21 -15 -36t-36 -15zM641 17q51 0 103.5 38.5t89.5 102.5l22 -12q-20 -35 -46.5 -64
t-56.5 -49.5t-61.5 -32t-62.5 -11.5q-65 0 -98.5 29t-33.5 81q0 21 6 45q-57 -72 -118.5 -113t-114.5 -41q-62 0 -93.5 27.5t-31.5 77.5q0 48 20.5 94t50.5 91t66 89t66 89t50.5 90.5t20.5 93.5q0 29 -19.5 46.5t-67.5 17.5q-47 0 -91.5 -16t-80 -42.5t-57 -60t-21.5 -68.5
q0 -25 15 -40.5t47 -15.5q38 0 74.5 24t59.5 63l21 -14q-26 -44 -72.5 -71t-97.5 -27q-62 0 -93 23.5t-31 60.5q0 38 27.5 75.5t73.5 67.5t104.5 48.5t120.5 18.5q80 0 114.5 -29t34.5 -81q0 -46 -19.5 -92.5t-49.5 -92.5t-64 -91.5t-64 -90t-49.5 -87.5t-19.5 -83
q0 -32 17.5 -49t52.5 -17q30 0 63.5 16.5t68 46t68 71.5t63.5 93q60 105 128.5 217.5t148.5 237.5h69q-78 -131 -145 -248.5t-135 -234.5q-44 -75 -44 -127q0 -35 19.5 -54t57.5 -19z" />
    <glyph glyph-name="Yacute" unicode="&#xdd;" horiz-adv-x="740" 
d="M858 906q-32 -40 -73 -73t-97 -62l-13 20q33 23 67 60t72 93zM903 694q-13 -23 -37 -65t-55 -96.5t-67.5 -117t-74 -127t-74 -127.5t-68 -117t-56 -96.5t-37.5 -65.5q-52 -93 -122 -140.5t-142 -47.5q-54 0 -81.5 19.5t-27.5 49.5q0 28 19.5 55.5t53.5 49.5t79.5 35
t97.5 13v-24q-45 0 -82.5 -10t-65.5 -27.5t-43.5 -40t-15.5 -46.5q0 -20 15 -33.5t46 -13.5q23 0 48.5 12t51 34t50 53t45.5 69q10 18 27 47.5t39.5 68t48.5 83.5t54 93q-48 -47 -96 -72.5t-92 -25.5q-60 0 -89.5 24.5t-29.5 69.5q0 56 47 138q16 29 44.5 71t56.5 87t48 89
t20 77q0 29 -19 46t-67 17q-47 0 -91.5 -16t-80 -42.5t-57 -60t-21.5 -68.5q0 -25 15 -40.5t47 -15.5q38 0 74.5 24t59.5 63l21 -14q-26 -44 -72.5 -71t-97.5 -27q-62 0 -93 23.5t-31 60.5q0 38 27.5 75.5t73.5 67.5t104.5 48.5t120.5 18.5q42 0 70.5 -7.5t46 -20.5t25 -31
t7.5 -40q0 -39 -19.5 -85.5t-46.5 -93.5t-55.5 -89t-45.5 -72q-44 -74 -44 -120q0 -55 65 -55q28 0 59.5 13.5t63.5 38.5t63 60t60 79q37 63 72.5 124t66 113.5t54 93t35.5 63.5z" />
    <glyph glyph-name="Thorn" unicode="&#xde;" horiz-adv-x="852" 
d="M868 671q-68 0 -121 -21.5t-96 -58.5q41 -17 76 -40.5t60.5 -52t40 -61t14.5 -66.5q0 -44 -23.5 -86.5t-64 -75.5t-95 -53.5t-117.5 -20.5q-53 0 -104 16l15 26q33 -9 66 -9q54 0 99 19.5t78 51t51.5 72.5t18.5 83q0 60 -38 105t-100 72q-48 -48 -86 -109.5t-71.5 -126
t-66.5 -127t-72.5 -111.5t-88 -79t-113.5 -30q-51 0 -79 24.5t-28 62.5q0 26 15.5 56t48.5 59l18 -19q-28 -26 -40 -49t-12 -43q0 -28 20 -45t49 -17q49 0 86 29t69 77t62 109t64 125t75 125t96 109q-54 15 -115 15q-66 0 -120.5 -15.5t-93.5 -41.5t-60 -59.5t-21 -68.5
q0 -26 16.5 -41.5t48.5 -15.5q38 0 74.5 24t59.5 63l22 -12q-26 -46 -73 -73.5t-98 -27.5q-63 0 -95 23.5t-32 61.5q0 39 27.5 76.5t76.5 67.5t117.5 48t149.5 18q72 0 141 -20q53 40 119 63.5t151 23.5z" />
    <glyph glyph-name="germandbls" unicode="&#xdf;" horiz-adv-x="566" 
d="M501 698q51 0 83.5 -26.5t32.5 -67.5q0 -14 -4 -28.5t-13 -29.5q-19 -33 -46.5 -49t-55 -27t-52 -22t-36.5 -32q-5 -9 -6.5 -16t-1.5 -13q0 -21 14 -41t31 -42t31 -48.5t14 -59.5q0 -40 -20 -77.5t-54.5 -66t-81.5 -46t-101 -17.5q-35 0 -69 13t-55 35l17 20
q17 -18 45.5 -29t58.5 -11q47 0 81 20t55.5 48t32 58.5t10.5 51.5q0 26 -7.5 49.5t-17 45.5t-17 43t-7.5 42q0 11 2.5 22.5t9.5 22.5q17 30 43.5 43.5t55 24t55 23.5t43.5 42q13 22 13 44q0 27 -21 45.5t-59 18.5q-25 0 -50.5 -7.5t-51.5 -26t-51 -49t-48 -76.5
q-11 -23 -19 -44.5t-17.5 -47t-24.5 -58t-40 -77.5q-13 -23 -35.5 -61.5t-46 -79t-45 -77.5t-31.5 -57l-78 -1q26 46 69 118t91 158q25 46 42.5 79.5t29.5 60t21 47.5t19 42q25 55 57 92.5t67 60.5t71.5 33t70.5 10z" />
    <glyph glyph-name="agrave" unicode="&#xe0;" 
d="M437 470q-56 30 -97 63t-73 74l45 37q38 -56 72 -93t67 -60zM664 163q-23 -39 -51.5 -71.5t-60 -55.5t-64.5 -35.5t-64 -12.5q-17 0 -34 4.5t-31 14.5t-23 25.5t-9 38.5q0 11 3 25q-49 -51 -104.5 -79.5t-111.5 -28.5q-50 0 -76 23.5t-26 65.5q0 34 14.5 72t39.5 74.5
t58.5 70t71.5 59t79.5 40.5t81.5 15q45 0 69.5 -20.5t24.5 -59.5v-3l48 74h71q-6 -11 -18 -31t-26.5 -45t-30 -52t-29 -50.5t-23.5 -40.5t-13 -23q-25 -47 -25 -79q0 -23 13 -36t39 -13q22 0 47 10.5t49 29.5t47 46t42 60zM160 27q28 0 57.5 13t58 35.5t54.5 53.5t47 67
q39 67 39 114q0 27 -15 42.5t-45 15.5q-31 0 -62 -14t-60 -36.5t-54.5 -51.5t-44 -60t-29.5 -61t-11 -54q0 -30 17 -46.5t48 -16.5v-1z" />
    <glyph glyph-name="aacute" unicode="&#xe1;" 
d="M559 606q-32 -40 -73 -73t-97 -62l-13 20q33 23 67 60t72 93zM664 163q-23 -39 -51.5 -71.5t-60 -55.5t-64.5 -35.5t-64 -12.5q-17 0 -34 4.5t-31 14.5t-23 25.5t-9 38.5q0 11 3 25q-49 -51 -104.5 -79.5t-111.5 -28.5q-50 0 -76 23.5t-26 65.5q0 34 14.5 72t39.5 74.5
t58.5 70t71.5 59t79.5 40.5t81.5 15q45 0 69.5 -20.5t24.5 -59.5v-3l48 74h71q-6 -11 -18 -31t-26.5 -45t-30 -52t-29 -50.5t-23.5 -40.5t-13 -23q-25 -47 -25 -79q0 -23 13 -36t39 -13q22 0 47 10.5t49 29.5t47 46t42 60zM160 27q28 0 57.5 13t58 35.5t54.5 53.5t47 67
q39 67 39 114q0 27 -15 42.5t-45 15.5q-31 0 -62 -14t-60 -36.5t-54.5 -51.5t-44 -60t-29.5 -61t-11 -54q0 -30 17 -46.5t48 -16.5v-1z" />
    <glyph glyph-name="acircumflex" unicode="&#xe2;" 
d="M437 588q-35 -37 -77.5 -69t-77.5 -49l-11 25q18 9 40.5 23.5t46 34t47.5 42.5t46 48q26 -35 46.5 -77.5t28.5 -78.5l-47 -12q-2 23 -13.5 54t-28.5 60v-1zM665 163q-23 -39 -51.5 -71.5t-60 -55.5t-64.5 -35.5t-64 -12.5q-17 0 -34 4.5t-31 14.5t-23 25.5t-9 38.5
q0 11 3 25q-49 -51 -104.5 -79.5t-111.5 -28.5q-50 0 -76 23.5t-26 65.5q0 34 14.5 72t39.5 74.5t58.5 70t71.5 59t79.5 40.5t81.5 15q45 0 69.5 -20.5t24.5 -59.5v-3l48 74h71q-6 -11 -18 -31t-26.5 -45t-30 -52t-29 -50.5t-23.5 -40.5t-13 -23q-25 -47 -25 -79
q0 -23 13 -36t39 -13q22 0 47 10.5t49 29.5t47 46t42 60zM161 27q28 0 57.5 13t58 35.5t54.5 53.5t47 67q39 67 39 114q0 27 -15 42.5t-45 15.5q-31 0 -62 -14t-60 -36.5t-54.5 -51.5t-44 -60t-29.5 -61t-11 -54q0 -30 17 -46.5t48 -16.5v-1z" />
    <glyph glyph-name="atilde" unicode="&#xe3;" 
d="M360 564q-20 0 -41 -13t-37 -35l-26 14q19 32 50.5 51.5t63.5 19.5q27 0 43.5 -8t31.5 -17.5t31 -17.5t41 -8q24 0 49.5 15t42.5 40l17 -11q-26 -45 -54.5 -71.5t-63.5 -26.5q-28 0 -46.5 11t-33.5 24t-31 24t-38 11zM666 162q-23 -39 -51.5 -71.5t-60 -55.5t-64.5 -35.5
t-64 -12.5q-17 0 -34 4.5t-31 14.5t-23 25.5t-9 38.5q0 11 3 25q-49 -51 -104.5 -79.5t-111.5 -28.5q-50 0 -76 23.5t-26 65.5q0 34 14.5 72t39.5 74.5t58.5 70t71.5 59t79.5 40.5t81.5 15q45 0 69.5 -20.5t24.5 -59.5v-3l48 74h71q-6 -10 -18 -30.5t-26.5 -45.5t-30 -52
t-29 -50.5t-23.5 -40.5t-13 -23q-25 -47 -25 -79q0 -23 13 -36t39 -13q22 0 47 10.5t49 29.5t47 46t42 60zM162 26q28 0 57.5 13t58 35.5t54.5 53.5t47 67q39 67 39 114q0 27 -15 42.5t-45 15.5q-31 0 -62 -14t-60 -36.5t-54.5 -51.5t-44 -60t-29.5 -61t-11 -54
q0 -30 17 -46.5t48 -16.5v-1z" />
    <glyph glyph-name="adieresis" unicode="&#xe4;" 
d="M347 510q-22 0 -36.5 15t-14.5 36t14.5 36t36.5 15q21 0 36 -14.5t15 -36.5q0 -21 -15 -36t-36 -15zM532 510q-22 0 -36.5 15t-14.5 36t14.5 36t36.5 15q21 0 36 -14.5t15 -36.5q0 -21 -15 -36t-36 -15zM666 164q-23 -39 -51.5 -71.5t-60 -55.5t-64.5 -35.5t-64 -12.5
q-17 0 -34 4.5t-31 14.5t-23 25.5t-9 38.5q0 11 3 25q-49 -51 -104.5 -79.5t-111.5 -28.5q-50 0 -76 23.5t-26 65.5q0 34 14.5 72t39.5 74.5t58.5 70t71.5 59t79.5 40.5t81.5 15q45 0 69.5 -20.5t24.5 -59.5v-3l48 74h71q-6 -11 -18 -31t-26.5 -45t-30 -52t-29 -50.5
t-23.5 -40.5t-13 -23q-25 -47 -25 -79q0 -23 13 -36t39 -13q22 0 47 10.5t49 29.5t47 46t42 60zM162 28q28 0 57.5 13t58 35.5t54.5 53.5t47 67q39 67 39 114q0 27 -15 42.5t-45 15.5q-31 0 -62 -14t-60 -36.5t-54.5 -51.5t-44 -60t-29.5 -61t-11 -54q0 -30 17 -46.5
t48 -16.5v-1z" />
    <glyph glyph-name="aring" unicode="&#xe5;" 
d="M424 469q-21 0 -39.5 8t-32 21.5t-21.5 32t-8 39.5t8 39.5t21.5 32t32 21.5t39.5 8t39.5 -8t32 -21.5t21.5 -32t8 -39.5t-8 -39.5t-21.5 -32t-32 -21.5t-39.5 -8zM424 631q-25 0 -42.5 -17.5t-17.5 -42.5t17.5 -42.5t42.5 -17.5t42.5 17.5t17.5 42.5t-17.5 42.5
t-42.5 17.5zM665 164q-23 -39 -51.5 -71.5t-60 -55.5t-64.5 -35.5t-64 -12.5q-17 0 -34 4.5t-31 14.5t-23 25.5t-9 38.5q0 11 3 25q-49 -51 -104.5 -79.5t-111.5 -28.5q-50 0 -76 23.5t-26 65.5q0 34 14.5 72t39.5 74.5t58.5 70t71.5 59t79.5 40.5t81.5 15q45 0 69.5 -20.5
t24.5 -59.5v-3l48 74h71q-6 -11 -18 -31t-26.5 -45t-30 -52t-29 -50.5t-23.5 -40.5t-13 -23q-25 -47 -25 -79q0 -23 13 -36t39 -13q22 0 47 10.5t49 29.5t47 46t42 60zM161 28q28 0 57.5 13t58 35.5t54.5 53.5t47 67q39 67 39 114q0 27 -15 42.5t-45 15.5q-31 0 -62 -14
t-60 -36.5t-54.5 -51.5t-44 -60t-29.5 -61t-11 -54q0 -30 17 -46.5t48 -16.5v-1z" />
    <glyph glyph-name="ae" unicode="&#xe6;" horiz-adv-x="682" 
d="M771 160q-32 -38 -74.5 -69.5t-90.5 -54t-99.5 -34.5t-100.5 -12q-66 0 -101 24.5t-35 72.5q-38 -51 -77.5 -74t-85.5 -23q-52 0 -80 25.5t-28 68.5q0 52 24 97.5t66 84t100 68t125.5 48.5t142.5 26.5t152 1.5q43 0 62 -16.5t19 -39.5q0 -37 -31.5 -69t-80 -59
t-106.5 -47.5t-111 -35.5q-6 -23 -6 -41q0 -36 26 -54t74 -18q38 0 79 10.5t80 29.5t74.5 45.5t64.5 59.5zM142 31q21 0 40 9t37.5 27.5t38 48.5t42.5 72q2 3 3.5 6l3.5 7q38 67 91 116t113 73q-89 -6 -167.5 -32t-136.5 -66t-91.5 -90.5t-33.5 -104.5q0 -31 16.5 -49
t43.5 -18v1zM643 341q0 14 -11.5 22t-29.5 8q-33 0 -68 -18.5t-66 -47t-56.5 -64t-40.5 -69.5q41 13 88.5 31t88 39t67.5 46t27 53h1z" />
    <glyph glyph-name="ccedilla" unicode="&#xe7;" horiz-adv-x="441" 
d="M533 158q-30 -36 -72 -66.5t-90 -53t-98.5 -36t-98.5 -14.5l-43 -60q24 -8 32 -34.5t-11 -58.5t-48.5 -43.5t-55.5 -11.5q-47 0 -62 30.5t11 76.5l35 -15q-15 -24 -10 -46t34 -22q15 0 34 8t33 31q7 11 9 22.5t-2.5 21.5t-15 16.5t-29.5 7.5l54 78q-61 5 -88 32t-27 72
q0 31 12.5 66t34.5 70.5t52 68t65 57t73.5 39.5t77.5 15q28 0 47.5 -7.5t32.5 -20t19 -28t6 -31.5q0 -28 -17.5 -50t-49.5 -22q-20 0 -30 12t-10 26q0 15 10.5 27.5t30.5 12.5q23 0 35 -15q1 3 1 9q0 19 -16 35.5t-51 16.5q-45 0 -88 -28.5t-77 -69.5t-55 -86.5t-21 -79.5
q0 -37 23.5 -58.5t77.5 -21.5q37 0 78.5 10.5t82 29t78 45.5t66.5 60z" />
    <glyph glyph-name="egrave" unicode="&#xe8;" horiz-adv-x="427" 
d="M408 470q-56 30 -97 63t-73 74l45 37q38 -56 72 -93t67 -60zM515 158q-33 -40 -76.5 -71.5t-91.5 -53.5t-98.5 -33.5t-96.5 -11.5q-67 0 -102.5 24t-35.5 72q0 47 29.5 103.5t77.5 105.5t108.5 82t123.5 33q43 0 62 -16.5t19 -39.5q0 -30 -28 -62.5t-73.5 -61.5t-105 -52
t-122.5 -35q-6 -21 -6 -40q0 -36 26 -54t75 -18q38 0 79 10.5t80 29.5t74.5 46t63.5 59zM346 368q-34 0 -68.5 -18.5t-66 -47.5t-56.5 -64.5t-40 -69.5q51 11 99.5 31t86.5 43.5t61.5 49t23.5 46.5q0 14 -11.5 22t-29.5 8h1z" />
    <glyph glyph-name="eacute" unicode="&#xe9;" horiz-adv-x="427" 
d="M530 606q-32 -40 -73 -73t-97 -62l-13 20q33 23 67 60t72 93zM199 28q38 0 79 10.5t80 29.5t74.5 46t63.5 59l19 -15q-33 -40 -76.5 -71.5t-91.5 -53.5t-98.5 -33.5t-96.5 -11.5q-67 0 -102.5 24t-35.5 72q0 47 29.5 103.5t77.5 105.5t108.5 82t123.5 33q43 0 62 -16.5
t19 -39.5q0 -30 -28 -62.5t-73.5 -61.5t-105 -52t-122.5 -35q-6 -21 -6 -40q0 -36 26 -54t75 -18zM346 368q-34 0 -68.5 -18.5t-66 -47.5t-56.5 -64.5t-40 -69.5q51 11 99.5 31t86.5 43.5t61.5 49t23.5 46.5q0 14 -11.5 22t-29.5 8h1z" />
    <glyph glyph-name="ecircumflex" unicode="&#xea;" horiz-adv-x="427" 
d="M408 588q-35 -37 -77.5 -69t-77.5 -49l-11 25q18 9 40.5 23.5t46 34t47.5 42.5t46 48q26 -35 46.5 -77.5t28.5 -78.5l-47 -12q-2 23 -13.5 54t-28.5 60v-1zM516 158q-33 -40 -76.5 -71.5t-91.5 -53.5t-98.5 -33.5t-96.5 -11.5q-67 0 -102.5 24t-35.5 72q0 47 29.5 103.5
t77.5 105.5t108.5 82t123.5 33q43 0 62 -16.5t19 -39.5q0 -30 -28 -62.5t-73.5 -61.5t-105 -52t-122.5 -35q-6 -21 -6 -40q0 -36 26 -54t75 -18q38 0 79 10.5t80 29.5t74.5 46t63.5 59zM347 368q-34 0 -68.5 -18.5t-66 -47.5t-56.5 -64.5t-40 -69.5q51 11 99.5 31t86.5 43.5
t61.5 49t23.5 46.5q0 14 -11.5 22t-29.5 8h1z" />
    <glyph glyph-name="edieresis" unicode="&#xeb;" horiz-adv-x="427" 
d="M318 510q-22 0 -36.5 15t-14.5 36t14.5 36t36.5 15q21 0 36 -14.5t15 -36.5q0 -21 -15 -36t-36 -15zM503 612q21 0 36 -14.5t15 -36.5q0 -21 -15 -36t-36 -15q-22 0 -36.5 15t-14.5 36t14.5 36t36.5 15zM200 29q38 0 79 10.5t80 29.5t74.5 46t63.5 59l19 -15
q-33 -40 -76.5 -71.5t-91.5 -53.5t-98.5 -33.5t-96.5 -11.5q-67 0 -102.5 24t-35.5 72q0 47 29.5 103.5t77.5 105.5t108.5 82t123.5 33q43 0 62 -16.5t19 -39.5q0 -30 -28 -62.5t-73.5 -61.5t-105 -52t-122.5 -35q-6 -21 -6 -40q0 -36 26 -54t75 -18zM347 369
q-34 0 -68.5 -18.5t-66 -47.5t-56.5 -64.5t-40 -69.5q51 11 99.5 31t86.5 43.5t61.5 49t23.5 46.5q0 14 -11.5 22t-29.5 8h1z" />
    <glyph glyph-name="igrave" unicode="&#xec;" horiz-adv-x="231" 
d="M268 470q-56 30 -97 63t-73 74l45 37q38 -56 72 -93t67 -60zM228 398q-8 -13 -20 -33.5t-26 -45t-28.5 -50t-27.5 -48t-23 -40t-14 -25.5q-26 -49 -26 -81q0 -46 52 -46q23 0 47.5 10.5t49 29.5t47.5 46t42 60l22 -11q-23 -39 -52 -71.5t-60.5 -55.5t-65 -35.5
t-65.5 -12.5q-17 0 -34 4.5t-31 14t-22.5 25t-8.5 37.5q0 17 6.5 38.5t20.5 47.5q7 14 23 42t36 62t41 70.5t39 68.5z" />
    <glyph glyph-name="iacute" unicode="&#xed;" horiz-adv-x="231" 
d="M207 490q33 23 67 60t72 93l45 -37q-32 -40 -73 -73t-97 -62zM229 398q-8 -13 -20 -33.5t-26 -45t-28.5 -50t-27.5 -48t-23 -40t-14 -25.5q-26 -49 -26 -81q0 -46 52 -46q23 0 47.5 10.5t49 29.5t47.5 46t42 60l22 -11q-23 -39 -52 -71.5t-60.5 -55.5t-65 -35.5
t-65.5 -12.5q-17 0 -34 4.5t-31 14t-22.5 25t-8.5 37.5q0 17 6.5 38.5t20.5 47.5q7 14 23 42t36 62t41 70.5t39 68.5z" />
    <glyph glyph-name="icircumflex" unicode="&#xee;" horiz-adv-x="231" 
d="M310 475q-2 23 -13.5 54t-28.5 60q-35 -37 -77.5 -69t-77.5 -49l-11 25q18 9 40.5 23.5t46 34t47.5 42.5t46 48q26 -35 46.5 -77.5t28.5 -78.5zM229 398q-8 -13 -20 -33.5t-26 -45t-28.5 -50t-27.5 -48t-23 -40t-14 -25.5q-26 -49 -26 -81q0 -46 52 -46q23 0 47.5 10.5
t49 29.5t47.5 46t42 60l22 -11q-23 -39 -52 -71.5t-60.5 -55.5t-65 -35.5t-65.5 -12.5q-17 0 -34 4.5t-31 14t-22.5 25t-8.5 37.5q0 17 6.5 38.5t20.5 47.5q7 14 23 42t36 62t41 70.5t39 68.5z" />
    <glyph glyph-name="idieresis" unicode="&#xef;" horiz-adv-x="231" 
d="M178 510q-22 0 -36.5 15t-14.5 36t14.5 36t36.5 15q21 0 36 -14.5t15 -36.5q0 -21 -15 -36t-36 -15zM363 510q-22 0 -36.5 15t-14.5 36t14.5 36t36.5 15q21 0 36 -14.5t15 -36.5q0 -21 -15 -36t-36 -15zM229 399q-8 -13 -20 -33.5t-26 -45t-28.5 -50t-27.5 -48t-23 -40
t-14 -25.5q-26 -49 -26 -81q0 -46 52 -46q23 0 47.5 10.5t49 29.5t47.5 46t42 60l22 -11q-23 -39 -52 -71.5t-60.5 -55.5t-65 -35.5t-65.5 -12.5q-17 0 -34 4.5t-31 14t-22.5 25t-8.5 37.5q0 17 6.5 38.5t20.5 47.5q7 14 23 42t36 62t41 70.5t39 68.5z" />
    <glyph glyph-name="eth" unicode="&#xf0;" horiz-adv-x="496" 
d="M635 651q-73 -55 -156 -95q11 -46 11 -94q0 -63 -18 -130.5t-55 -130.5q-27 -47 -61.5 -86t-72.5 -67t-78.5 -43t-80.5 -15q-51 0 -77 23.5t-26 65.5q0 34 14.5 71.5t39.5 74.5t58.5 70.5t72 59t79.5 40.5t81 15q32 0 54 -13t30 -35q12 54 12 104q0 39 -8 77
q-67 -31 -132 -48t-122 -17q-75 0 -115.5 25t-40.5 66q0 28 17 57t47 51.5t70.5 37t87.5 14.5q80 0 131.5 -41.5t74.5 -108.5q74 37 148 91zM223 507q47 0 105 16.5t121 46.5q-20 61 -63.5 98.5t-111.5 37.5q-34 0 -63 -12.5t-50 -31.5t-33 -41.5t-12 -43.5q0 -32 28 -51.5
t80 -19.5zM169 33q27 0 56 13t57.5 35.5t55 53.5t47.5 67q17 29 29 56q12 33 12 55q0 32 -18 45.5t-44 13.5q-46 0 -92.5 -29.5t-83.5 -72.5t-60.5 -91t-23.5 -84q0 -30 17 -46.5t49 -16.5z" />
    <glyph glyph-name="ntilde" unicode="&#xf1;" horiz-adv-x="538" 
d="M347 564q-20 0 -41 -13t-37 -35l-26 14q19 32 50.5 51.5t63.5 19.5q27 0 43.5 -8t31.5 -17.5t31 -17.5t41 -8q24 0 49.5 15t42.5 40l17 -11q-26 -45 -54.5 -71.5t-63.5 -26.5q-28 0 -46.5 11t-33.5 24t-31 24t-38 11zM631 164q-23 -39 -52.5 -71.5t-62 -55.5t-67.5 -35.5
t-68 -12.5q-46 0 -70 19.5t-24 55.5q0 39 18.5 73t40 65t40 59t18.5 55q0 25 -17 39t-45 14q-39 0 -82 -33t-75 -88l-143 -250h-77q33 57 56 97.5t40.5 70.5t30 51.5t23.5 39.5q5 9 15.5 28.5t22 41.5t20.5 42t12 28h51l-17 -67q35 36 75.5 56.5t82.5 20.5q51 0 78.5 -24
t27.5 -61q0 -34 -18 -63.5t-39 -58t-39 -57.5t-18 -62q0 -24 14.5 -39t43.5 -15q22 0 47 10.5t49 30t47 46.5t42 60z" />
    <glyph glyph-name="ograve" unicode="&#xf2;" horiz-adv-x="506" 
d="M426 470q-56 30 -97 63t-73 74l45 37q38 -56 72 -93t67 -60zM667 292q-31 -53 -84.5 -82t-110.5 -29q-41 0 -66 14q-23 -39 -56 -76t-71 -65.5t-80.5 -46t-84.5 -17.5q-50 0 -76 23.5t-26 65.5q0 34 14.5 71.5t39.5 74.5t59 70.5t72 59t79 40.5t81 15q45 0 69 -19.5
t26 -57.5q22 -4 32 -18t10 -31q0 -23 -16.5 -43t-47.5 -20q1 -6 14.5 -11.5t36.5 -5.5q47 0 93 25.5t74 73.5zM159 32q32 0 65 16t63 42t55 58.5t43 65.5q-17 18 -17 46q0 23 12.5 43t33.5 28q-9 39 -59 39q-31 0 -62 -14t-60 -36.5t-54.5 -51.5t-44 -60t-29.5 -61t-11 -54
q0 -30 17 -46.5t48 -16.5v2z" />
    <glyph glyph-name="oacute" unicode="&#xf3;" horiz-adv-x="506" 
d="M548 606q-32 -40 -73 -73t-97 -62l-13 20q33 23 67 60t72 93zM667 293q-31 -53 -84.5 -82t-110.5 -29q-41 0 -66 14q-23 -39 -56 -76t-71 -65.5t-80.5 -46t-84.5 -17.5q-50 0 -76 23.5t-26 65.5q0 34 14.5 71.5t39.5 74.5t59 70.5t72 59t79 40.5t81 15q45 0 69 -19.5
t26 -57.5q22 -4 32 -18t10 -31q0 -23 -16.5 -43t-47.5 -20q1 -6 14.5 -11.5t36.5 -5.5q47 0 93 25.5t74 73.5zM159 33q32 0 65 16t63 42t55 58.5t43 65.5q-17 18 -17 46q0 23 12.5 43t33.5 28q-9 39 -59 39q-31 0 -62 -14t-60 -36.5t-54.5 -51.5t-44 -60t-29.5 -61t-11 -54
q0 -30 17 -46.5t48 -16.5v2z" />
    <glyph glyph-name="ocircumflex" unicode="&#xf4;" horiz-adv-x="506" 
d="M426 588q-35 -37 -77.5 -69t-77.5 -49l-11 25q18 9 40.5 23.5t46 34t47.5 42.5t46 48q26 -35 46.5 -77.5t28.5 -78.5l-47 -12q-2 23 -13.5 54t-28.5 60v-1zM668 292q-31 -53 -84.5 -82t-110.5 -29q-41 0 -66 14q-23 -39 -56 -76t-71 -65.5t-80.5 -46t-84.5 -17.5
q-50 0 -76 23.5t-26 65.5q0 34 14.5 71.5t39.5 74.5t59 70.5t72 59t79 40.5t81 15q45 0 69 -19.5t26 -57.5q22 -4 32 -18t10 -31q0 -23 -16.5 -43t-47.5 -20q1 -6 14.5 -11.5t36.5 -5.5q47 0 93 25.5t74 73.5zM160 32q32 0 65 16t63 42t55 58.5t43 65.5q-17 18 -17 46
q0 23 12.5 43t33.5 28q-9 39 -59 39q-31 0 -62 -14t-60 -36.5t-54.5 -51.5t-44 -60t-29.5 -61t-11 -54q0 -30 17 -46.5t48 -16.5v2z" />
    <glyph glyph-name="otilde" unicode="&#xf5;" horiz-adv-x="506" 
d="M349 564q-20 0 -41 -13t-37 -35l-26 14q19 32 50.5 51.5t63.5 19.5q27 0 43.5 -8t31.5 -17.5t31 -17.5t41 -8q24 0 49.5 15t42.5 40l17 -11q-26 -45 -54.5 -71.5t-63.5 -26.5q-28 0 -46.5 11t-33.5 24t-31 24t-38 11zM669 291q-31 -53 -84.5 -82t-110.5 -29q-41 0 -66 14
q-23 -39 -56 -76t-71 -65.5t-80.5 -46t-84.5 -17.5q-50 0 -76 23.5t-26 65.5q0 34 14.5 71.5t39.5 74.5t59 70.5t72 59t79 40.5t81 15q45 0 69 -19.5t26 -57.5q22 -4 32 -18t10 -31q0 -23 -16.5 -43t-47.5 -20q1 -6 14.5 -11.5t36.5 -5.5q47 0 93 25.5t74 73.5zM161 31
q32 0 65 16t63 42t55 58.5t43 65.5q-17 18 -17 46q0 23 12.5 43t33.5 28q-9 39 -59 39q-31 0 -62 -14t-60 -36.5t-54.5 -51.5t-44 -60t-29.5 -61t-11 -54q0 -30 17 -46.5t48 -16.5v2z" />
    <glyph glyph-name="odieresis" unicode="&#xf6;" horiz-adv-x="506" 
d="M336 510q-22 0 -36.5 15t-14.5 36t14.5 36t36.5 15q21 0 36 -14.5t15 -36.5q0 -21 -15 -36t-36 -15zM521 510q-22 0 -36.5 15t-14.5 36t14.5 36t36.5 15q21 0 36 -14.5t15 -36.5q0 -21 -15 -36t-36 -15zM668 294q-31 -53 -84.5 -82t-110.5 -29q-41 0 -66 14
q-23 -39 -56 -76t-71 -65.5t-80.5 -46t-84.5 -17.5q-50 0 -76 23.5t-26 65.5q0 34 14.5 71.5t39.5 74.5t59 70.5t72 59t79 40.5t81 15q45 0 69 -19.5t26 -57.5q22 -4 32 -18t10 -31q0 -23 -16.5 -43t-47.5 -20q1 -6 14.5 -11.5t36.5 -5.5q47 0 93 25.5t74 73.5zM160 34
q32 0 65 16t63 42t55 58.5t43 65.5q-17 18 -17 46q0 23 12.5 43t33.5 28q-9 39 -59 39q-31 0 -62 -14t-60 -36.5t-54.5 -51.5t-44 -60t-29.5 -61t-11 -54q0 -30 17 -46.5t48 -16.5v2z" />
    <glyph glyph-name="divide" unicode="&#xf7;" horiz-adv-x="536" 
d="M373 361q-22 0 -36.5 15t-14.5 36t14.5 36t36.5 15q21 0 36 -14.5t15 -36.5q0 -21 -15 -36t-36 -15zM480 258h-357l26 45h357zM263 95q-22 0 -36.5 15t-14.5 36t14.5 36t36.5 15q21 0 36 -14.5t15 -36.5q0 -21 -15 -36t-36 -15z" />
    <glyph glyph-name="oslash" unicode="&#xf8;" horiz-adv-x="479" 
d="M399 402q53 -17 53 -75q0 -43 -24 -95t-64 -100.5t-91.5 -86t-106.5 -51.5q-36 -63 -60 -108.5t-29 -54.5l-43 -1q13 23 37 64t55 94h-12q-50 0 -76 23.5t-26 65.5q0 34 14.5 71.5t39.5 74.5t59 70.5t72 59t79 40.5t81 15h9q29 51 48.5 88.5t25.5 51.5h42
q-14 -27 -37 -66.5t-45 -77.5zM94 93q0 -57 55 -63q46 80 97 169t97 169q-30 -3 -60 -18t-57.5 -38t-51.5 -51.5t-41.5 -58.5t-27.5 -59t-10 -52zM186 31q42 9 83 41.5t73.5 74.5t52.5 86.5t20 77.5q0 46 -38 56q-17 -30 -40 -69.5t-48 -84t-51.5 -91t-51.5 -89.5v-2z" />
    <glyph glyph-name="ugrave" unicode="&#xf9;" horiz-adv-x="537" 
d="M432 470q-56 30 -97 63t-73 74l45 37q38 -56 72 -93t67 -60zM630 162q-24 -39 -53.5 -71.5t-61 -55.5t-63.5 -35.5t-62 -12.5q-42 0 -69.5 22t-27.5 59q0 10 1 15q-34 -44 -79 -70t-96 -26q-17 0 -34 4.5t-31 14.5t-23 25.5t-9 38.5q0 17 6.5 38t20.5 47q3 6 13 23.5
t23.5 40.5t29.5 50t30 52t25.5 45.5t16.5 31.5h77q-8 -18 -28.5 -54.5t-43 -75.5t-41.5 -71t-24 -41q-25 -47 -25 -79q0 -23 12.5 -36t38.5 -13q42 0 87 35t78 92q12 21 32 55t41 70t39 68.5t26 49.5h77q-8 -18 -28.5 -54.5t-43 -75.5t-41 -71t-23.5 -41q-26 -46 -26 -78
q0 -23 13 -36t39 -13q43 0 93.5 40t91.5 106z" />
    <glyph glyph-name="uacute" unicode="&#xfa;" horiz-adv-x="537" 
d="M371 490q33 23 67 60t72 93l45 -37q-32 -40 -73 -73t-97 -62zM631 162q-24 -39 -53.5 -71.5t-61 -55.5t-63.5 -35.5t-62 -12.5q-42 0 -69.5 22t-27.5 59q0 10 1 15q-34 -44 -79 -70t-96 -26q-17 0 -34 4.5t-31 14.5t-23 25.5t-9 38.5q0 17 6.5 38t20.5 47q3 6 13 23.5
t23.5 40.5t29.5 50t30 52t25.5 45.5t16.5 31.5h77q-8 -18 -28.5 -54.5t-43 -75.5t-41.5 -71t-24 -41q-25 -47 -25 -79q0 -23 12.5 -36t38.5 -13q42 0 87 35t78 92q12 21 32 55t41 70t39 68.5t26 49.5h77q-8 -18 -28.5 -54.5t-43 -75.5t-41 -71t-23.5 -41q-26 -46 -26 -78
q0 -23 13 -36t39 -13q43 0 93.5 40t91.5 106z" />
    <glyph glyph-name="ucircumflex" unicode="&#xfb;" horiz-adv-x="537" 
d="M474 475q-2 23 -13.5 54t-28.5 60q-35 -37 -77.5 -69t-77.5 -49l-11 25q18 9 40.5 23.5t46 34t47.5 42.5t46 48q26 -35 46.5 -77.5t28.5 -78.5zM631 162q-24 -39 -53.5 -71.5t-61 -55.5t-63.5 -35.5t-62 -12.5q-42 0 -69.5 22t-27.5 59q0 10 1 15q-34 -44 -79 -70
t-96 -26q-17 0 -34 4.5t-31 14.5t-23 25.5t-9 38.5q0 17 6.5 38t20.5 47q3 6 13 23.5t23.5 40.5t29.5 50t30 52t25.5 45.5t16.5 31.5h77q-8 -18 -28.5 -54.5t-43 -75.5t-41.5 -71t-24 -41q-25 -47 -25 -79q0 -23 12.5 -36t38.5 -13q42 0 87 35t78 92q12 21 32 55t41 70
t39 68.5t26 49.5h77q-8 -18 -28.5 -54.5t-43 -75.5t-41 -71t-23.5 -41q-26 -46 -26 -78q0 -23 13 -36t39 -13q43 0 93.5 40t91.5 106z" />
    <glyph glyph-name="udieresis" unicode="&#xfc;" horiz-adv-x="537" 
d="M342 510q-22 0 -36.5 15t-14.5 36t14.5 36t36.5 15q21 0 36 -14.5t15 -36.5q0 -21 -15 -36t-36 -15zM527 510q-22 0 -36.5 15t-14.5 36t14.5 36t36.5 15q21 0 36 -14.5t15 -36.5q0 -21 -15 -36t-36 -15zM632 163q-24 -39 -53.5 -71.5t-61 -55.5t-63.5 -35.5t-62 -12.5
q-42 0 -69.5 22t-27.5 59q0 10 1 15q-34 -44 -79 -70t-96 -26q-17 0 -34 4.5t-31 14.5t-23 25.5t-9 38.5q0 17 6.5 38t20.5 47q3 6 13 23.5t23.5 40.5t29.5 50t30 52t25.5 45.5t16.5 31.5h77q-8 -18 -28.5 -54.5t-43 -75.5t-41.5 -71t-24 -41q-25 -47 -25 -79
q0 -23 12.5 -36t38.5 -13q42 0 87 35t78 92q12 21 32 55t41 70t39 68.5t26 49.5h77q-8 -18 -28.5 -54.5t-43 -75.5t-41 -71t-23.5 -41q-26 -46 -26 -78q0 -23 13 -36t39 -13q43 0 93.5 40t91.5 106z" />
    <glyph glyph-name="yacute" unicode="&#xfd;" horiz-adv-x="494" 
d="M543 606q-32 -40 -73 -73t-97 -62l-13 20q33 23 67 60t72 93zM680 309q-39 -33 -87 -51.5t-93 -18.5q-27 0 -47 6t-34 17q-12 -59 -39 -104t-64.5 -78t-82 -53t-91.5 -29q10 -51 -2 -103.5t-43 -95.5t-79 -70.5t-108 -27.5q-54 0 -81 19t-27 51q0 28 20 55t54 48.5
t79 34.5t95 13v-24q-43 0 -80.5 -10.5t-65.5 -27.5t-44 -39t-16 -45q0 -49 60 -49q46 0 81 24.5t57 63t29.5 85t-0.5 91.5q-7 35 -14.5 67t-7.5 65q0 30 9.5 63t35.5 73q15 24 31.5 43t32.5 35.5t29.5 31.5t22.5 32h70q-9 -22 -22 -39t-27.5 -33.5t-29.5 -33t-28 -37.5
q-29 -44 -38.5 -78t-9.5 -62q0 -26 5 -47.5t8 -41.5q20 0 59.5 12t80.5 41t76 78t46 124q-11 19 -11 38q0 15 5.5 29t15 25t23.5 17.5t31 6.5q27 0 40 -14.5t13 -33.5q0 -23 -19 -44t-57 -21q0 -8 17.5 -16.5t46.5 -8.5q37 0 81.5 16.5t80.5 47.5z" />
    <glyph glyph-name="thorn" unicode="&#xfe;" horiz-adv-x="531" 
d="M624 164q-23 -40 -54 -72.5t-66.5 -55t-73.5 -35t-75 -12.5q-47 0 -71 18t-24 50q0 37 22 71t48 65.5t48 61t22 58.5q0 26 -18 41t-47 15q-32 0 -67.5 -23t-65.5 -63q-51 -88 -102.5 -176.5t-98 -167t-84 -141.5t-59.5 -99h-76q18 30 50 83t72 121t85.5 146t92 158
t91 157t81.5 143t64.5 116t40.5 76h77q-12 -24 -31.5 -59.5t-43.5 -78.5t-52 -92.5t-59 -102.5q29 21 59.5 32.5t61.5 11.5q52 0 81.5 -25t29.5 -63q0 -35 -22 -68t-49 -63.5t-49 -60t-22 -57.5q0 -43 59 -43q27 0 55 10t55 29t51 46t44 61z" />
    <glyph glyph-name="ydieresis" unicode="&#xff;" horiz-adv-x="494" 
d="M331 510q-22 0 -36.5 15t-14.5 36t14.5 36t36.5 15q21 0 36 -14.5t15 -36.5q0 -21 -15 -36t-36 -15zM516 510q-22 0 -36.5 15t-14.5 36t14.5 36t36.5 15q21 0 36 -14.5t15 -36.5q0 -21 -15 -36t-36 -15zM681 310q-39 -33 -87 -51.5t-93 -18.5q-27 0 -47 6t-34 17
q-12 -59 -39 -104t-64.5 -78t-82 -53t-91.5 -29q10 -51 -2 -103.5t-43 -95.5t-79 -70.5t-108 -27.5q-54 0 -81 19t-27 51q0 28 20 55t54 48.5t79 34.5t95 13v-24q-43 0 -80.5 -10.5t-65.5 -27.5t-44 -39t-16 -45q0 -49 60 -49q46 0 81 24.5t57 63t29.5 85t-0.5 91.5
q-7 35 -14.5 67t-7.5 65q0 30 9.5 63t35.5 73q15 24 31.5 43t32.5 35.5t29.5 31.5t22.5 32h70q-9 -22 -22 -39t-27.5 -33.5t-29.5 -33t-28 -37.5q-29 -44 -38.5 -78t-9.5 -62q0 -26 5 -47.5t8 -41.5q20 0 59.5 12t80.5 41t76 78t46 124q-11 19 -11 38q0 15 5.5 29t15 25
t23.5 17.5t31 6.5q27 0 40 -14.5t13 -33.5q0 -23 -19 -44t-57 -21q0 -8 17.5 -16.5t46.5 -8.5q37 0 81.5 16.5t80.5 47.5z" />
    <glyph glyph-name="Amacron" unicode="&#x100;" horiz-adv-x="773" 
d="M942 825h-264l24 42h264zM884 702q-47 -79 -89 -152.5t-84 -145.5q52 3 108 3v-27q-32 0 -62.5 -1t-60.5 -3q-23 -40 -45 -79t-45 -78q-21 -36 -32.5 -71.5t-10 -64t18.5 -46t54 -17.5q54 0 107 38.5t90 102.5l22 -12q-20 -35 -46.5 -64t-57 -49.5t-63 -32t-64.5 -11.5
q-58 0 -87.5 22.5t-37 58.5t4.5 81.5t39 92.5q17 30 35 60t37 61q-98 -12 -182 -33q-51 -96 -94 -162t-82 -106.5t-75 -58t-73 -17.5q-49 0 -73.5 20.5t-24.5 52.5q0 42 28.5 83.5t81 80t127 71.5t166.5 57q5 11 11 22l12 22q42 83 85 140.5t90.5 92.5t101.5 51t117 16z
M444 367q85 19 183 30q40 66 84 134t93 141q-52 -1 -98 -15.5t-88 -46.5t-80 -83t-75 -124l-18 -36h-1zM111 19q28 0 59 17t65.5 54t73 95.5t82.5 141.5q-80 -22 -143.5 -51t-108 -61.5t-68.5 -68t-24 -70.5q0 -24 16 -40t49 -16z" />
    <glyph glyph-name="amacron" unicode="&#x101;" 
d="M274 525l24 42h264l-24 -42h-264zM665 164q-23 -39 -51.5 -71.5t-60 -55.5t-64.5 -35.5t-64 -12.5q-17 0 -34 4.5t-31 14.5t-23 25.5t-9 38.5q0 11 3 25q-49 -51 -104.5 -79.5t-111.5 -28.5q-50 0 -76 23.5t-26 65.5q0 34 14.5 72t39.5 74.5t58.5 70t71.5 59t79.5 40.5
t81.5 15q45 0 69.5 -20.5t24.5 -59.5v-3l48 74h71q-6 -11 -18 -31t-26.5 -45t-30 -52t-29 -50.5t-23.5 -40.5t-13 -23q-25 -47 -25 -79q0 -23 13 -36t39 -13q22 0 47 10.5t49 29.5t47 46t42 60zM161 28q28 0 57.5 13t58 35.5t54.5 53.5t47 67q39 67 39 114q0 27 -15 42.5
t-45 15.5q-31 0 -62 -14t-60 -36.5t-54.5 -51.5t-44 -60t-29.5 -61t-11 -54q0 -30 17 -46.5t48 -16.5v-1z" />
    <glyph glyph-name="Abreve" unicode="&#x102;" horiz-adv-x="773" 
d="M975 892q-15 -25 -34.5 -45.5t-43 -35.5t-48.5 -23t-50 -8q-51 0 -63.5 30.5t16.5 81.5h31q-17 -30 -5.5 -48.5t47.5 -18.5t69 18.5t50 48.5h31zM884 702q-47 -79 -89 -152.5t-84 -145.5q52 3 108 3v-27q-32 0 -62.5 -1t-60.5 -3q-23 -40 -45 -79t-45 -78
q-21 -36 -32.5 -71.5t-10 -64t18.5 -46t54 -17.5q54 0 107 38.5t90 102.5l22 -12q-20 -35 -46.5 -64t-57 -49.5t-63 -32t-64.5 -11.5q-58 0 -87.5 22.5t-37 58.5t4.5 81.5t39 92.5q17 30 35 60t37 61q-98 -12 -182 -33q-51 -96 -94 -162t-82 -106.5t-75 -58t-73 -17.5
q-49 0 -73.5 20.5t-24.5 52.5q0 42 28.5 83.5t81 80t127 71.5t166.5 57q5 11 11 22l12 22q42 83 85 140.5t90.5 92.5t101.5 51t117 16zM444 367q85 19 183 30q40 66 84 134t93 141q-52 -1 -98 -15.5t-88 -46.5t-80 -83t-75 -124l-18 -36h-1zM111 19q28 0 59 17t65.5 54
t73 95.5t82.5 141.5q-80 -22 -143.5 -51t-108 -61.5t-68.5 -68t-24 -70.5q0 -24 16 -40t49 -16z" />
    <glyph glyph-name="abreve" unicode="&#x103;" 
d="M395 480q-51 0 -63.5 30.5t16.5 81.5h31q-17 -30 -5.5 -48.5t47.5 -18.5t69 18.5t50 48.5h31q-15 -25 -34.5 -45.5t-43 -35.5t-48.5 -23t-50 -8zM665 164q-23 -39 -51.5 -71.5t-60 -55.5t-64.5 -35.5t-64 -12.5q-17 0 -34 4.5t-31 14.5t-23 25.5t-9 38.5q0 11 3 25
q-49 -51 -104.5 -79.5t-111.5 -28.5q-50 0 -76 23.5t-26 65.5q0 34 14.5 72t39.5 74.5t58.5 70t71.5 59t79.5 40.5t81.5 15q45 0 69.5 -20.5t24.5 -59.5v-3l48 74h71q-6 -11 -18 -31t-26.5 -45t-30 -52t-29 -50.5t-23.5 -40.5t-13 -23q-25 -47 -25 -79q0 -23 13 -36t39 -13
q22 0 47 10.5t49 29.5t47 46t42 60zM161 28q28 0 57.5 13t58 35.5t54.5 53.5t47 67q39 67 39 114q0 27 -15 42.5t-45 15.5q-31 0 -62 -14t-60 -36.5t-54.5 -51.5t-44 -60t-29.5 -61t-11 -54q0 -30 17 -46.5t48 -16.5v-1z" />
    <glyph glyph-name="Aogonek" unicode="&#x104;" horiz-adv-x="773" 
d="M633 20q54 0 107 38.5t90 102.5l22 -12q-33 -57 -80.5 -96.5t-99.5 -53.5q-38 -14 -62 -34.5t-32.5 -40t-1.5 -33.5t31 -14q19 0 41 10t39 27l13 -15q-26 -26 -57.5 -42.5t-60.5 -16.5q-37 0 -51.5 17.5t-9 42t29.5 50t65 42.5q-56 1 -85 23.5t-36 58.5t5.5 81.5
t38.5 91.5q17 30 35 60t37 61q-98 -12 -182 -33q-51 -96 -94 -162t-82 -106.5t-75 -58t-73 -17.5q-49 0 -73.5 20.5t-24.5 52.5q0 42 28.5 83.5t81 80t127 71.5t166.5 57q5 11 11 22l12 22q42 83 85 140.5t90.5 92.5t101.5 51t117 16h59q-47 -79 -89 -152.5t-84 -145.5
q52 3 108 3v-27q-32 0 -62.5 -1t-60.5 -3q-23 -40 -45 -79t-45 -78q-21 -36 -32.5 -71.5t-10 -64t18.5 -46t54 -17.5zM445 367q85 19 183 30q40 66 84 134t93 141q-52 -1 -98 -15.5t-88 -46.5t-80 -83t-75 -124l-18 -36h-1zM112 19q28 0 59 17t65.5 54t73 95.5t82.5 141.5
q-80 -22 -143.5 -51t-108 -61.5t-68.5 -68t-24 -70.5q0 -24 16 -40t49 -16z" />
    <glyph glyph-name="aogonek" unicode="&#x105;" 
d="M666 163q-23 -39 -51.5 -71.5t-60 -55.5t-64.5 -35.5t-64 -12.5q-17 0 -34 4.5t-31 14.5t-23 25.5t-9 38.5q0 11 3 25q-35 -36 -74 -61.5t-80 -36.5q-39 -13 -64.5 -34t-35 -41t-2.5 -34.5t31 -14.5q19 0 41 10t39 27l13 -15q-26 -26 -57.5 -42.5t-60.5 -16.5
q-37 0 -51.5 17.5t-9 42t29.5 50t64 42.5q-50 0 -76 23.5t-26 65.5q0 34 14.5 72t39.5 74.5t58.5 70t71.5 59t79.5 40.5t81.5 15q45 0 69.5 -20.5t24.5 -59.5v-3l48 74h71q-6 -11 -18 -31t-26.5 -45t-30 -52t-29 -50.5t-23.5 -40.5t-13 -23q-25 -47 -25 -79q0 -23 13 -36
t39 -13q22 0 47 10.5t49 29.5t47 46t42 60zM162 27q28 0 57.5 13t58 35.5t54.5 53.5t47 67q39 67 39 114q0 27 -15 42.5t-45 15.5q-31 0 -62 -14t-60 -36.5t-54.5 -51.5t-44 -60t-29.5 -61t-11 -54q0 -30 17 -46.5t48 -16.5v-1z" />
    <glyph glyph-name="Cacute" unicode="&#x106;" horiz-adv-x="746" 
d="M995 906q-32 -40 -73 -73t-97 -62l-13 20q33 23 67 60t72 93zM833 708q61 0 93.5 -20.5t32.5 -56.5q0 -50 -44.5 -100.5t-122.5 -92.5t-184.5 -69.5t-230.5 -31.5q-30 -54 -44.5 -101t-14.5 -85q0 -65 41 -101t122 -36q46 0 93 12t91 33.5t83.5 52t69.5 67.5l20 -13
q-32 -40 -74.5 -73t-91.5 -56t-102 -36t-105 -13q-111 0 -168 44.5t-57 123.5q0 80 58 183q-100 7 -152 43.5t-52 90.5q0 39 22.5 76.5t61.5 66.5t90.5 47t110.5 18v-24q-41 0 -78 -16.5t-65.5 -43t-45.5 -58.5t-17 -62q0 -43 36 -72t106 -37q47 77 107.5 140t128.5 108
t140 69.5t143 24.5zM392 365q105 4 195 30t156 64.5t103.5 84t37.5 87.5q0 23 -17 36.5t-50 13.5q-53 0 -109.5 -22.5t-112 -64t-107.5 -100t-95 -130.5z" />
    <glyph glyph-name="cacute" unicode="&#x107;" horiz-adv-x="441" 
d="M350 490q33 23 67 60t72 93l45 -37q-32 -40 -73 -73t-97 -62zM532 157q-31 -38 -74.5 -69t-93 -53.5t-102 -35t-100.5 -12.5q-73 0 -105.5 28t-32.5 77q0 31 12.5 66t34.5 70.5t52 68t65 57t73.5 39.5t77.5 15q28 0 47.5 -7.5t32.5 -20t19 -28t6 -31.5q0 -28 -17.5 -50
t-49.5 -22q-20 0 -30 12t-10 26q0 15 10.5 27.5t30.5 12.5q23 0 35 -15q1 3 1 9q0 19 -16 35.5t-51 16.5q-45 0 -88 -28.5t-77 -69.5t-55 -86.5t-21 -79.5q0 -37 23.5 -58.5t77.5 -21.5q37 0 78.5 10.5t82 29t78 45.5t66.5 60z" />
    <glyph glyph-name="Cdotaccent" unicode="&#x10a;" horiz-adv-x="746" 
d="M884 810q-22 0 -36.5 15t-14.5 36t14.5 36t36.5 15q21 0 36 -14.5t15 -36.5q0 -21 -15 -36t-36 -15zM959 632q0 -50 -44.5 -100.5t-122.5 -92.5t-184.5 -69.5t-230.5 -31.5q-30 -54 -44.5 -101t-14.5 -85q0 -65 41 -101t122 -36q46 0 93 12t91 33.5t83.5 52t69.5 67.5
l20 -13q-32 -40 -74.5 -73t-91.5 -56t-102 -36t-105 -13q-111 0 -168 44.5t-57 123.5q0 80 58 183q-100 7 -152 43.5t-52 90.5q0 39 22.5 76.5t61.5 66.5t90.5 47t110.5 18v-24q-41 0 -78 -16.5t-65.5 -43t-45.5 -58.5t-17 -62q0 -43 36 -72t106 -37q47 77 107.5 140
t128.5 108t140 69.5t143 24.5q61 0 93.5 -20.5t32.5 -56.5zM817 683q-53 0 -109.5 -22.5t-112 -64t-107.5 -100t-95 -130.5q105 4 195 30t156 64.5t103.5 84t37.5 87.5q0 23 -17 36.5t-50 13.5z" />
    <glyph glyph-name="cdotaccent" unicode="&#x10b;" horiz-adv-x="441" 
d="M422 510q-22 0 -36.5 15t-14.5 36t14.5 36t36.5 15q21 0 36 -14.5t15 -36.5q0 -21 -15 -36t-36 -15zM533 158q-31 -38 -74.5 -69t-93 -53.5t-102 -35t-100.5 -12.5q-73 0 -105.5 28t-32.5 77q0 31 12.5 66t34.5 70.5t52 68t65 57t73.5 39.5t77.5 15q28 0 47.5 -7.5
t32.5 -20t19 -28t6 -31.5q0 -28 -17.5 -50t-49.5 -22q-20 0 -30 12t-10 26q0 15 10.5 27.5t30.5 12.5q23 0 35 -15q1 3 1 9q0 19 -16 35.5t-51 16.5q-45 0 -88 -28.5t-77 -69.5t-55 -86.5t-21 -79.5q0 -37 23.5 -58.5t77.5 -21.5q37 0 78.5 10.5t82 29t78 45.5t66.5 60z" />
    <glyph glyph-name="Ccaron" unicode="&#x10c;" horiz-adv-x="746" 
d="M1024 932q-12 -21 -32 -43t-46.5 -43.5t-57.5 -41t-64 -34.5q0 39 -13 76t-34 60l45 35q23 -23 36.5 -53.5t13.5 -58.5q42 24 76.5 56t50.5 61zM833 708q61 0 93.5 -20.5t32.5 -56.5q0 -50 -44.5 -100.5t-122.5 -92.5t-184.5 -69.5t-230.5 -31.5q-30 -54 -44.5 -101
t-14.5 -85q0 -65 41 -101t122 -36q46 0 93 12t91 33.5t83.5 52t69.5 67.5l20 -13q-32 -40 -74.5 -73t-91.5 -56t-102 -36t-105 -13q-111 0 -168 44.5t-57 123.5q0 80 58 183q-100 7 -152 43.5t-52 90.5q0 39 22.5 76.5t61.5 66.5t90.5 47t110.5 18v-24q-41 0 -78 -16.5
t-65.5 -43t-45.5 -58.5t-17 -62q0 -43 36 -72t106 -37q47 77 107.5 140t128.5 108t140 69.5t143 24.5zM392 365q105 4 195 30t156 64.5t103.5 84t37.5 87.5q0 23 -17 36.5t-50 13.5q-53 0 -109.5 -22.5t-112 -64t-107.5 -100t-95 -130.5z" />
    <glyph glyph-name="ccaron" unicode="&#x10d;" horiz-adv-x="441" 
d="M358 641q23 -23 36.5 -53.5t13.5 -58.5q42 24 76.5 56t50.5 61l27 -13q-12 -21 -32 -43t-46.5 -43.5t-57.5 -41t-64 -34.5q0 39 -13 76t-34 60zM531 157q-31 -38 -74.5 -69t-93 -53.5t-102 -35t-100.5 -12.5q-73 0 -105.5 28t-32.5 77q0 31 12.5 66t34.5 70.5t52 68
t65 57t73.5 39.5t77.5 15q28 0 47.5 -7.5t32.5 -20t19 -28t6 -31.5q0 -28 -17.5 -50t-49.5 -22q-20 0 -30 12t-10 26q0 15 10.5 27.5t30.5 12.5q23 0 35 -15q1 3 1 9q0 19 -16 35.5t-51 16.5q-45 0 -88 -28.5t-77 -69.5t-55 -86.5t-21 -79.5q0 -37 23.5 -58.5t77.5 -21.5
q37 0 78.5 10.5t82 29t78 45.5t66.5 60z" />
    <glyph glyph-name="Dcaron" unicode="&#x10e;" horiz-adv-x="905" 
d="M932 932q-12 -21 -32 -43t-46.5 -43.5t-57.5 -41t-64 -34.5q0 39 -13 76t-34 60l45 35q23 -23 36.5 -53.5t13.5 -58.5q42 24 76.5 56t50.5 61zM489 726q60 0 112 -15t97 -43q38 14 81 20t94 6v-26q-81 0 -140 -25q60 -49 93.5 -119t33.5 -152q0 -68 -24.5 -137
t-68.5 -124.5t-106 -90t-137 -34.5q-53 0 -93 29.5t-54 77.5l24 9q12 -41 46 -65.5t78 -24.5q37 0 71 18.5t63.5 49t53.5 71t41 84t26.5 87.5t9.5 83q0 69 -24 125t-68 96q-54 -32 -97 -88t-86 -141q-58 -116 -109.5 -194.5t-99 -126.5t-92.5 -68.5t-90 -20.5
q-44 0 -70 24.5t-26 62.5q0 26 15 56t48 59l18 -19q-28 -26 -40 -49t-12 -43q0 -28 20 -45t49 -17q28 0 60.5 21t70.5 66.5t82.5 118t96.5 176.5q51 101 104 163.5t121 95.5q-35 23 -78.5 35t-93.5 12q-56 0 -105.5 -16.5t-86 -42.5t-58 -60t-21.5 -68q0 -25 15.5 -40
t47.5 -15q38 0 74.5 24t59.5 63l21 -14q-26 -44 -72.5 -71t-97.5 -27q-62 0 -93.5 23t-31.5 60q0 39 27.5 77t74.5 68t110 48t134 18z" />
    <glyph glyph-name="dcaron" unicode="&#x10f;" 
d="M862 700q-11 -37 -49 -87t-91 -96l-19 15q35 45 59.5 91t30.5 77h69zM457 29q23 0 47.5 10.5t49 30t47 46t41.5 59.5l22 -11q-23 -39 -51.5 -71.5t-60 -55.5t-64.5 -35.5t-64 -12.5q-17 0 -34.5 4.5t-31 14t-22 25t-8.5 37.5q0 12 3 27q-49 -51 -104.5 -79.5
t-111.5 -28.5q-51 0 -77 23.5t-26 65.5q0 51 31 109t80.5 107.5t111 82t121.5 32.5q54 0 76 -23t20 -60q11 19 20.5 37t20.5 36q31 54 59 102t50.5 87.5t38 68t21.5 42.5h77q-15 -28 -34.5 -63.5t-41.5 -75t-46 -81t-47 -80.5q-8 -13 -20 -33.5t-26 -45t-28.5 -50t-27.5 -48
t-23 -40t-14 -25.5q-25 -49 -25 -80q0 -23 13.5 -35t37.5 -12v-1zM161 29q27 0 56.5 13t58 35.5t54.5 53.5t47 67q18 31 29 61.5t10.5 55t-14.5 39.5t-47 15q-46 0 -92.5 -29.5t-83.5 -72.5t-60.5 -91t-23.5 -84q0 -30 17 -46.5t49 -16.5z" />
    <glyph glyph-name="Dcroat" unicode="&#x110;" horiz-adv-x="890" 
d="M856 670q-77 0 -135 -24q60 -48 93 -117t33 -150q0 -70 -25 -139.5t-70 -125.5t-107 -91t-136 -35q-53 0 -93 29.5t-54 77.5l24 9q12 -41 46 -65.5t78 -24.5q37 0 71.5 18.5t64 50t54 72t41.5 85t26.5 89t9.5 83.5q0 68 -23.5 123.5t-66.5 94.5q-55 -32 -99 -88.5
t-88 -143.5q-6 -12 -12 -23.5t-12 -22.5q22 -2 46 -3t50 -1l-19 -34q-51 0 -94 3q-50 -92 -95.5 -155t-88 -101.5t-83.5 -55.5t-82 -17q-44 0 -70 24.5t-26 62.5q0 26 15 56t48 59l18 -19q-28 -26 -40 -49t-12 -43q0 -28 20 -45t49 -17q25 0 54 17t62.5 54.5t72 96.5
t83.5 143q-66 11 -114 30t-78.5 43.5t-45 53t-14.5 58.5q0 39 24 78t68.5 70.5t108.5 51t144 19.5q60 0 112.5 -15t96.5 -42q74 25 172 25zM419 396q51 102 105.5 165.5t123.5 95.5q-35 22 -78 33.5t-94 11.5q-63 0 -112.5 -18t-83.5 -45.5t-51.5 -60t-17.5 -62.5
q0 -48 44.5 -91t145.5 -64q5 8 9 17t9 18z" />
    <glyph glyph-name="dcroat" unicode="&#x111;" 
d="M741 700q-17 -32 -38.5 -71.5t-46.5 -84.5h66l-24 -42h-66q-15 -26 -30 -51.5t-30 -50.5q-7 -13 -19.5 -33.5t-26.5 -45t-28.5 -50t-27.5 -48t-23 -40t-14 -25.5q-25 -49 -25 -80q0 -23 13.5 -35t37.5 -12q23 0 47.5 10.5t49 30t47 46t41.5 59.5l22 -11
q-23 -39 -51.5 -71.5t-60 -55.5t-64.5 -35.5t-64 -12.5q-17 0 -34.5 4.5t-31 14t-22 25t-8.5 37.5q0 12 3 27q-49 -51 -104.5 -79.5t-111.5 -28.5q-51 0 -77 23.5t-26 65.5q0 51 31 109t80.5 107.5t111 82t121.5 32.5q54 0 76 -23t20 -60q11 19 20.5 37t20.5 36
q31 54 60 102h-120l24 42h120q32 57 54.5 97.5t30.5 57.5h77zM162 30q27 0 56.5 13t58 35.5t54.5 53.5t47 67q18 31 29 61.5t10.5 55t-14.5 39.5t-47 15q-46 0 -92.5 -29.5t-83.5 -72.5t-60.5 -91t-23.5 -84q0 -30 17 -46.5t49 -16.5z" />
    <glyph glyph-name="Emacron" unicode="&#x112;" horiz-adv-x="690" 
d="M913 825h-264l24 42h264zM780 707q58 0 81 -19t23 -43q0 -26 -24.5 -58t-68 -65t-102 -62.5t-126.5 -48.5v-9q0 -24 -21 -44.5t-52 -40t-67.5 -39.5t-67.5 -44t-52 -53t-21 -67q0 -49 36 -74.5t100 -25.5q48 0 97 12t94.5 33.5t85.5 52t70 67.5l20 -13q-32 -40 -75.5 -73
t-93.5 -56t-105 -36t-109 -13q-93 0 -145.5 32t-52.5 93q0 39 20 68t50.5 51.5t66 41t67.5 37t54.5 38.5t26.5 47q-54 -9 -109 -9q-59 0 -106 9t-80 25.5t-50.5 39t-17.5 49.5q0 33 22.5 63.5t61 54.5t89.5 38.5t108 14.5v-24q-41 0 -78 -13t-65 -34t-44.5 -47t-16.5 -51
q0 -44 51 -71t142 -27q24 0 47 2t46 6q-2 15 -5 32t-3 39q0 44 24.5 83.5t66 69t95.5 47t114 17.5zM560 433q59 18 109 44.5t86 55.5t56 58t20 50q0 17 -13.5 28t-43.5 11q-58 0 -99.5 -21.5t-68.5 -52t-39.5 -65t-12.5 -59.5q0 -14 1.5 -25.5t3.5 -21.5z" />
    <glyph glyph-name="emacron" unicode="&#x113;" horiz-adv-x="427" 
d="M245 525l24 42h264l-24 -42h-264zM199 29q38 0 79 10.5t80 29.5t74.5 46t63.5 59l19 -15q-33 -40 -76.5 -71.5t-91.5 -53.5t-98.5 -33.5t-96.5 -11.5q-67 0 -102.5 24t-35.5 72q0 47 29.5 103.5t77.5 105.5t108.5 82t123.5 33q43 0 62 -16.5t19 -39.5q0 -30 -28 -62.5
t-73.5 -61.5t-105 -52t-122.5 -35q-6 -21 -6 -40q0 -36 26 -54t75 -18zM346 369q-34 0 -68.5 -18.5t-66 -47.5t-56.5 -64.5t-40 -69.5q51 11 99.5 31t86.5 43.5t61.5 49t23.5 46.5q0 14 -11.5 22t-29.5 8h1z" />
    <glyph glyph-name="Edotaccent" unicode="&#x116;" horiz-adv-x="690" 
d="M822 810q-22 0 -36.5 15t-14.5 36t14.5 36t36.5 15q21 0 36 -14.5t15 -36.5q0 -21 -15 -36t-36 -15zM884 645q0 -26 -24.5 -58t-68 -65t-102 -62.5t-126.5 -48.5v-9q0 -24 -21 -44.5t-52 -40t-67.5 -39.5t-67.5 -44t-52 -53t-21 -67q0 -49 36 -74.5t100 -25.5q48 0 97 12
t94.5 33.5t85.5 52t70 67.5l20 -13q-32 -40 -75.5 -73t-93.5 -56t-105 -36t-109 -13q-93 0 -145.5 32t-52.5 93q0 39 20 68t50.5 51.5t66 41t67.5 37t54.5 38.5t26.5 47q-54 -9 -109 -9q-59 0 -106 9t-80 25.5t-50.5 39t-17.5 49.5q0 33 22.5 63.5t61 54.5t89.5 38.5
t108 14.5v-24q-41 0 -78 -13t-65 -34t-44.5 -47t-16.5 -51q0 -44 51 -71t142 -27q24 0 47 2t46 6q-2 15 -5 32t-3 39q0 44 24.5 83.5t66 69t95.5 47t114 17.5q58 0 81 -19t23 -43zM560 434q59 18 109 44.5t86 55.5t56 58t20 50q0 17 -13.5 28t-43.5 11q-58 0 -99.5 -21.5
t-68.5 -52t-39.5 -65t-12.5 -59.5q0 -14 1.5 -25.5t3.5 -21.5z" />
    <glyph glyph-name="edotaccent" unicode="&#x117;" horiz-adv-x="427" 
d="M419 510q-22 0 -36.5 15t-14.5 36t14.5 36t36.5 15q21 0 36 -14.5t15 -36.5q0 -21 -15 -36t-36 -15zM517 159q-33 -40 -76.5 -71.5t-91.5 -53.5t-98.5 -33.5t-96.5 -11.5q-67 0 -102.5 24t-35.5 72q0 47 29.5 103.5t77.5 105.5t108.5 82t123.5 33q43 0 62 -16.5t19 -39.5
q0 -30 -28 -62.5t-73.5 -61.5t-105 -52t-122.5 -35q-6 -21 -6 -40q0 -36 26 -54t75 -18q38 0 79 10.5t80 29.5t74.5 46t63.5 59zM348 369q-34 0 -68.5 -18.5t-66 -47.5t-56.5 -64.5t-40 -69.5q51 11 99.5 31t86.5 43.5t61.5 49t23.5 46.5q0 14 -11.5 22t-29.5 8h1z" />
    <glyph glyph-name="Eogonek" unicode="&#x118;" horiz-adv-x="690" 
d="M883 646q0 -26 -24.5 -58t-68 -65t-102 -62.5t-126.5 -48.5v-9q0 -24 -21 -44.5t-52 -40t-67.5 -39.5t-67.5 -44t-52 -53t-21 -67q0 -49 36 -74.5t100 -25.5q48 0 97 12t94.5 33.5t85.5 52t70 67.5l20 -13q-27 -34 -62.5 -63t-76.5 -51.5t-86 -37.5t-91 -22
q-36 -14 -58.5 -34.5t-30.5 -39.5t-1 -32.5t31 -13.5q19 0 41 10t39 27l13 -15q-26 -26 -57.5 -42.5t-60.5 -16.5q-37 0 -51 17.5t-8.5 42t30 50t65.5 42.5h-18q-93 0 -145.5 32t-52.5 93q0 39 20 68t50.5 51.5t66 41t67.5 37t54.5 38.5t26.5 47q-54 -9 -109 -9
q-59 0 -106 9t-80 25.5t-50.5 39t-17.5 49.5q0 33 22.5 63.5t61 54.5t89.5 38.5t108 14.5v-24q-41 0 -78 -13t-65 -34t-44.5 -47t-16.5 -51q0 -44 51 -71t142 -27q24 0 47 2t46 6q-2 15 -5 32t-3 39q0 44 24.5 83.5t66 69t95.5 47t114 17.5q58 0 81 -19t23 -43zM559 435
q59 18 109 44.5t86 55.5t56 58t20 50q0 17 -13.5 28t-43.5 11q-58 0 -99.5 -21.5t-68.5 -52t-39.5 -65t-12.5 -59.5q0 -14 1.5 -25.5t3.5 -21.5z" />
    <glyph glyph-name="eogonek" unicode="&#x119;" horiz-adv-x="427" 
d="M204 -9q-35 -14 -56.5 -34.5t-29 -39t0 -31.5t30.5 -13q19 0 41 10t39 27l13 -15q-26 -26 -57.5 -42.5t-60.5 -16.5q-37 0 -51.5 17.5t-9 42t29.5 50t65 42.5h-5q-67 0 -102.5 24t-35.5 72q0 47 29.5 103.5t77.5 105.5t108.5 82t123.5 33q43 0 62 -16.5t19 -39.5
q0 -30 -28 -62.5t-73.5 -61.5t-105 -52t-122.5 -35q-6 -21 -6 -40q0 -36 26 -54t75 -18q38 0 79 10.5t80 29.5t74.5 46t63.5 59l19 -15q-29 -35 -65.5 -63t-77.5 -49t-84.5 -35t-85.5 -19v-2zM349 368q-34 0 -68.5 -18.5t-66 -47.5t-56.5 -64.5t-40 -69.5q51 11 99.5 31
t86.5 43.5t61.5 49t23.5 46.5q0 14 -11.5 22t-29.5 8h1z" />
    <glyph glyph-name="Ecaron" unicode="&#x11a;" horiz-adv-x="690" 
d="M961 932q-12 -21 -32 -43t-46.5 -43.5t-57.5 -41t-64 -34.5q0 39 -13 76t-34 60l45 35q23 -23 36.5 -53.5t13.5 -58.5q42 24 76.5 56t50.5 61zM778 707q58 0 81 -19t23 -43q0 -26 -24.5 -58t-68 -65t-102 -62.5t-126.5 -48.5v-9q0 -24 -21 -44.5t-52 -40t-67.5 -39.5
t-67.5 -44t-52 -53t-21 -67q0 -49 36 -74.5t100 -25.5q48 0 97 12t94.5 33.5t85.5 52t70 67.5l20 -13q-32 -40 -75.5 -73t-93.5 -56t-105 -36t-109 -13q-93 0 -145.5 32t-52.5 93q0 39 20 68t50.5 51.5t66 41t67.5 37t54.5 38.5t26.5 47q-54 -9 -109 -9q-59 0 -106 9
t-80 25.5t-50.5 39t-17.5 49.5q0 33 22.5 63.5t61 54.5t89.5 38.5t108 14.5v-24q-41 0 -78 -13t-65 -34t-44.5 -47t-16.5 -51q0 -44 51 -71t142 -27q24 0 47 2t46 6q-2 15 -5 32t-3 39q0 44 24.5 83.5t66 69t95.5 47t114 17.5zM558 433q59 18 109 44.5t86 55.5t56 58t20 50
q0 17 -13.5 28t-43.5 11q-58 0 -99.5 -21.5t-68.5 -52t-39.5 -65t-12.5 -59.5q0 -14 1.5 -25.5t3.5 -21.5z" />
    <glyph glyph-name="ecaron" unicode="&#x11b;" horiz-adv-x="427" 
d="M558 632q-12 -21 -32 -43t-46.5 -43.5t-57.5 -41t-64 -34.5q0 39 -13 76t-34 60l45 35q23 -23 36.5 -53.5t13.5 -58.5q42 24 76.5 56t50.5 61zM198 28q38 0 79 10.5t80 29.5t74.5 46t63.5 59l19 -15q-33 -40 -76.5 -71.5t-91.5 -53.5t-98.5 -33.5t-96.5 -11.5
q-67 0 -102.5 24t-35.5 72q0 47 29.5 103.5t77.5 105.5t108.5 82t123.5 33q43 0 62 -16.5t19 -39.5q0 -30 -28 -62.5t-73.5 -61.5t-105 -52t-122.5 -35q-6 -21 -6 -40q0 -36 26 -54t75 -18zM345 368q-34 0 -68.5 -18.5t-66 -47.5t-56.5 -64.5t-40 -69.5q51 11 99.5 31
t86.5 43.5t61.5 49t23.5 46.5q0 14 -11.5 22t-29.5 8h1z" />
    <glyph glyph-name="Gbreve" unicode="&#x11e;" horiz-adv-x="864" 
d="M1020 892q-15 -25 -34.5 -45.5t-43 -35.5t-48.5 -23t-50 -8q-51 0 -63.5 30.5t16.5 81.5h31q-17 -30 -5.5 -48.5t47.5 -18.5t69 18.5t50 48.5h31zM835 709q63 0 94 -23t31 -58q0 -48 -44 -98t-122 -91.5t-184.5 -69.5t-231.5 -32q-34 -66 -34 -117q0 -49 32 -78t96 -29
q36 0 72.5 11.5t68.5 30.5t58 44t43 53l4 6h76l-2 -4l-207 -368q-52 -93 -121.5 -140.5t-141.5 -47.5q-54 0 -81.5 19.5t-27.5 49.5q0 28 19.5 55.5t53.5 49t79.5 34.5t97.5 13v-24q-43 0 -80.5 -10t-65.5 -27t-44.5 -39.5t-16.5 -47.5q0 -20 15 -33.5t46 -13.5q23 0 48 12
t50.5 34.5t50.5 53.5t46 69l135 238q-43 -20 -91 -32t-98 -12q-95 0 -143 37.5t-48 100.5q0 51 31 115q-95 7 -148.5 41.5t-53.5 90.5q0 40 22.5 77.5t61.5 66.5t91 47t111 18v-26q-42 0 -79.5 -16.5t-66 -42.5t-45 -58t-16.5 -63q0 -44 36.5 -71.5t102.5 -35.5
q36 62 93.5 123.5t128 110t148.5 79t154 30.5zM393 363q107 4 197.5 31t156.5 65.5t103.5 83.5t37.5 85q0 23 -16.5 38t-51.5 15q-59 0 -121.5 -28.5t-119.5 -74t-106 -102t-81 -112.5z" />
    <glyph glyph-name="gbreve" unicode="&#x11f;" horiz-adv-x="536" 
d="M402 480q-51 0 -63.5 30.5t16.5 81.5h31q-17 -30 -5.5 -48.5t47.5 -18.5t69 18.5t50 48.5h31q-15 -25 -34.5 -45.5t-43 -35.5t-48.5 -23t-50 -8zM452 326q11 20 21 38.5t20 36.5h77q-74 -129 -148 -255.5t-146 -256.5q-52 -93 -122 -140.5t-142 -47.5q-54 0 -82 19.5
t-28 49.5q0 28 20 55t54 48.5t79.5 35t96.5 13.5v-24q-44 0 -81.5 -10.5t-65.5 -28t-44 -39.5t-16 -46q0 -20 15 -33.5t46 -13.5q23 0 48.5 12t51.5 34t50.5 53t45.5 69q25 45 51.5 90t53.5 91q-45 -41 -94 -63.5t-98 -22.5q-51 0 -77 23.5t-26 65.5q0 51 31 109t80.5 107.5
t111 82t121.5 32.5q55 0 77 -24t20 -62zM160 32q27 0 56.5 13t58 35.5t54.5 53.5t47 67q18 31 29 61.5t10.5 55t-14.5 39.5t-47 15q-46 0 -92.5 -29.5t-83.5 -72.5t-60.5 -91t-23.5 -84q0 -30 17 -46.5t49 -16.5z" />
    <glyph glyph-name="Gdotaccent" unicode="&#x120;" horiz-adv-x="864" 
d="M896 810q-22 0 -36.5 15t-14.5 36t14.5 36t36.5 15q21 0 36 -14.5t15 -36.5q0 -21 -15 -36t-36 -15zM960 629q0 -48 -44 -98t-122 -91.5t-184.5 -69.5t-231.5 -32q-34 -66 -34 -117q0 -49 32 -78t96 -29q36 0 72.5 11.5t68.5 30.5t58 44t43 53l4 6h76l-2 -4l-207 -368
q-52 -93 -121.5 -140.5t-141.5 -47.5q-54 0 -81.5 19.5t-27.5 49.5q0 28 19.5 55.5t53.5 49t79.5 34.5t97.5 13v-24q-43 0 -80.5 -10t-65.5 -27t-44.5 -39.5t-16.5 -47.5q0 -20 15 -33.5t46 -13.5q23 0 48 12t50.5 34.5t50.5 53.5t46 69l135 238q-43 -20 -91 -32t-98 -12
q-95 0 -143 37.5t-48 100.5q0 51 31 115q-95 7 -148.5 41.5t-53.5 90.5q0 40 22.5 77.5t61.5 66.5t91 47t111 18v-26q-42 0 -79.5 -16.5t-66 -42.5t-45 -58t-16.5 -63q0 -44 36.5 -71.5t102.5 -35.5q36 62 93.5 123.5t128 110t148.5 79t154 30.5q63 0 94 -23t31 -58z
M820 681q-59 0 -121.5 -28.5t-119.5 -74t-106 -102t-81 -112.5q107 4 197.5 31t156.5 65.5t103.5 83.5t37.5 85q0 23 -16.5 38t-51.5 15z" />
    <glyph glyph-name="gdotaccent" unicode="&#x121;" horiz-adv-x="536" 
d="M455 510q-22 0 -36.5 15t-14.5 36t14.5 36t36.5 15q21 0 36 -14.5t15 -36.5q0 -21 -15 -36t-36 -15zM571 402q-74 -129 -148 -255.5t-146 -256.5q-52 -93 -122 -140.5t-142 -47.5q-54 0 -82 19.5t-28 49.5q0 28 20 55t54 48.5t79.5 35t96.5 13.5v-24q-44 0 -81.5 -10.5
t-65.5 -28t-44 -39.5t-16 -46q0 -20 15 -33.5t46 -13.5q23 0 48.5 12t51.5 34t50.5 53t45.5 69q25 45 51.5 90t53.5 91q-45 -41 -94 -63.5t-98 -22.5q-51 0 -77 23.5t-26 65.5q0 51 31 109t80.5 107.5t111 82t121.5 32.5q55 0 77 -24t20 -62q11 20 21 38.5t20 36.5zM161 32
q27 0 56.5 13t58 35.5t54.5 53.5t47 67q18 31 29 61.5t10.5 55t-14.5 39.5t-47 15q-46 0 -92.5 -29.5t-83.5 -72.5t-60.5 -91t-23.5 -84q0 -30 17 -46.5t49 -16.5z" />
    <glyph glyph-name="uni0122" unicode="&#x122;" horiz-adv-x="862" 
d="M958 632q0 -48 -44 -98t-122 -91.5t-184.5 -69.5t-231.5 -32q-34 -66 -34 -117q0 -49 32 -78t96 -29q36 0 71.5 11t67 29t57.5 42t43 51l7 11h76q-1 -3 -5 -9q-53 -91 -103 -181t-101 -183t-121 -140.5t-142 -47.5v26q23 0 47.5 12t49 34t48 53t44.5 69q33 60 66 118.5
t67 117.5q-42 -20 -89.5 -31.5t-96.5 -11.5q-95 0 -143 37.5t-48 100.5q0 51 31 115q-95 7 -148.5 41.5t-53.5 90.5q0 40 22.5 77.5t61.5 66.5t91 47t111 18v-26q-42 0 -79.5 -16.5t-66 -42.5t-45 -58t-16.5 -63q0 -44 36.5 -71.5t102.5 -35.5q36 62 93.5 123.5t128 110
t148.5 79t154 30.5q63 0 94 -23t31 -58zM818 684q-59 0 -121.5 -28.5t-119.5 -74t-106 -102t-81 -112.5q107 4 197.5 31t156.5 65.5t103.5 83.5t37.5 85q0 23 -16.5 38t-51.5 15zM229 -158q36 0 64 12.5t47 28.5t29 29.5t10 16.5q-27 -3 -45 11t-18 37q0 21 13.5 36.5
t36.5 16.5q24 0 37.5 -16t13.5 -39q0 -24 -14.5 -51t-40 -50.5t-59.5 -39t-74 -15.5v23z" />
    <glyph glyph-name="uni0123" unicode="&#x123;" horiz-adv-x="536" 
d="M407 563q0 24 14 51.5t39.5 51t60.5 39t75 15.5v-22q-37 0 -65 -12.5t-47 -28.5t-28.5 -29.5t-9.5 -16.5q28 3 45.5 -12t17.5 -38q0 -20 -14 -35t-36 -16q-24 0 -37.5 15t-14.5 38zM453 327q11 20 21 38.5t20 36.5h77q-74 -129 -148 -255.5t-146 -256.5
q-52 -93 -122 -140.5t-142 -47.5q-54 0 -82 19.5t-28 49.5q0 28 20 55t54 48.5t79.5 35t96.5 13.5v-24q-44 0 -81.5 -10.5t-65.5 -28t-44 -39.5t-16 -46q0 -20 15 -33.5t46 -13.5q23 0 48.5 12t51.5 34t50.5 53t45.5 69q25 45 51.5 90t53.5 91q-45 -41 -94 -63.5t-98 -22.5
q-51 0 -77 23.5t-26 65.5q0 51 31 109t80.5 107.5t111 82t121.5 32.5q55 0 77 -24t20 -62zM161 33q27 0 56.5 13t58 35.5t54.5 53.5t47 67q18 31 29 61.5t10.5 55t-14.5 39.5t-47 15q-46 0 -92.5 -29.5t-83.5 -72.5t-60.5 -91t-23.5 -84q0 -30 17 -46.5t49 -16.5z" />
    <glyph glyph-name="Hbar" unicode="&#x126;" horiz-adv-x="885" 
d="M1094 657q0 -38 -32 -76t-88 -74t-131.5 -67.5t-161.5 -55.5q-30 -50 -50.5 -89.5t-33 -71.5t-18 -58.5t-5.5 -49.5q0 -46 24 -71t72 -25q34 0 71.5 12t75 33.5t73 52t65.5 67.5l20 -13q-32 -40 -71 -73t-81 -56t-85 -36t-83 -13q-75 0 -113 35t-38 98q0 45 20.5 104
t66.5 137q-3 -1 -42 -11.5t-100 -27.5q-51 -94 -96.5 -158t-88 -103t-83.5 -56t-83 -17q-51 0 -78.5 22.5t-27.5 57.5q0 46 38 86t95.5 72.5t125 58t127.5 44.5q14 26 29 55.5t32 61.5h-1q-65 0 -117 9t-88 25t-55 38.5t-19 49.5q0 33 21.5 61.5t61.5 50.5t96.5 34.5
t126.5 12.5q43 0 81 -5t73 -11t67.5 -11t64.5 -5v-36q-32 0 -58 -8.5t-50.5 -29t-50.5 -55.5t-56 -89q66 11 119 31t82 34q76 78 153.5 120.5t138.5 42.5q35 0 52.5 -16t17.5 -41zM449 479q18 33 39 65t45 60t51.5 49t58.5 33q-54 11 -101.5 17t-79.5 6q-58 0 -101.5 -10
t-72 -27t-43 -40t-14.5 -50q0 -46 58 -75t159 -29zM1019 688q-28 0 -65.5 -19.5t-79.5 -54.5t-86 -84.5t-85 -110.5q73 22 137 50.5t111.5 59.5t74.5 63.5t27 62.5q0 14 -8 23.5t-26 9.5zM466 364q40 11 80 21t66 17q19 29 39.5 56t42.5 52q-35 -14 -80 -28t-97 -22
q-12 -22 -24.5 -46t-26.5 -51v1zM98 22q51 0 113.5 67t145.5 215q-53 -17 -110.5 -40t-105 -51t-78 -61t-30.5 -70q0 -26 17.5 -43t47.5 -17z" />
    <glyph glyph-name="hbar" unicode="&#x127;" horiz-adv-x="532" 
d="M626 162q-23 -39 -52.5 -71.5t-62 -55.5t-67.5 -35.5t-68 -12.5q-46 0 -70 19.5t-24 55.5q0 39 18.5 73t40 65t40 59t18.5 55q0 25 -17.5 39t-43.5 14q-41 0 -85 -35t-76 -92l-139 -243h-78q52 90 83.5 145.5t50.5 88.5t29 50.5t18.5 32t18.5 32t30 51.5q14 23 27 45.5
t26 44.5h-76l24 42h76q35 61 59.5 105t33.5 63h77q-17 -33 -41 -76t-51 -91h110l-24 -42h-110q-14 -23 -27 -45.5t-27 -44.5q-3 -5 -9.5 -15t-14.5 -24q62 50 130 50q48 0 75.5 -24t27.5 -61q0 -34 -18 -63.5t-39.5 -58t-39.5 -57.5t-18 -62q0 -24 14.5 -39t43.5 -15
q22 0 47 10.5t49 30t47 46.5t42 60z" />
    <glyph glyph-name="Imacron" unicode="&#x12a;" horiz-adv-x="511" 
d="M475 825l24 42h264l-24 -42h-264zM783 658q-34 0 -68.5 -14.5t-69 -45.5t-69 -81t-70.5 -121q-58 -116 -109.5 -194.5t-99 -126.5t-92.5 -68.5t-90 -20.5q-44 0 -70 24.5t-26 62.5q0 26 15 56t48 59l18 -19q-28 -26 -40 -49t-12 -43q0 -28 20 -45t49 -17q28 0 60.5 21
t70.5 66.5t82.5 118t96.5 176.5q61 123 124.5 190t131.5 93q-54 10 -108 17t-99 7q-61 0 -110.5 -17.5t-84 -45t-53.5 -61t-19 -64.5q0 -24 15.5 -39t47.5 -15q38 0 75 24t60 63l22 -14q-26 -45 -72.5 -71.5t-98.5 -26.5q-62 0 -93.5 23t-31.5 60q0 38 26 75.5t72.5 67.5
t111.5 49t143 19q45 0 86.5 -5t80 -11t72 -11t61.5 -5v-36z" />
    <glyph glyph-name="imacron" unicode="&#x12b;" horiz-adv-x="231" 
d="M369 525h-264l24 42h264zM229 399q-8 -13 -20 -33.5t-26 -45t-28.5 -50t-27.5 -48t-23 -40t-14 -25.5q-26 -49 -26 -81q0 -46 52 -46q23 0 47.5 10.5t49 29.5t47.5 46t42 60l22 -11q-23 -39 -52 -71.5t-60.5 -55.5t-65 -35.5t-65.5 -12.5q-17 0 -34 4.5t-31 14t-22.5 25
t-8.5 37.5q0 17 6.5 38.5t20.5 47.5q7 14 23 42t36 62t41 70.5t39 68.5z" />
    <glyph glyph-name="Iogonek" unicode="&#x12e;" horiz-adv-x="511" 
d="M784 659q-34 0 -68.5 -14.5t-69 -45.5t-69 -81t-70.5 -121q-49 -98 -93 -169t-85 -119.5t-80 -76t-77 -38.5q-39 -13 -64 -34t-34.5 -41t-2.5 -34.5t31 -14.5q19 0 41 10t39 27l13 -15q-26 -26 -57.5 -42.5t-60.5 -16.5q-37 0 -51 17.5t-8 42.5t31 50.5t66 42.5
q-43 1 -69 25.5t-26 61.5q0 26 15 56t48 59l18 -19q-28 -26 -40 -49t-12 -43q0 -28 20 -45t49 -17q28 0 60.5 21t70.5 66.5t82.5 118t96.5 176.5q61 123 124.5 190t131.5 93q-54 10 -108 17t-99 7q-61 0 -110.5 -17.5t-84 -45t-53.5 -61t-19 -64.5q0 -24 15.5 -39t47.5 -15
q38 0 75 24t60 63l22 -14q-26 -45 -72.5 -71.5t-98.5 -26.5q-62 0 -93.5 23t-31.5 60q0 38 26 75.5t72.5 67.5t111.5 49t143 19q45 0 86.5 -5t80 -11t72 -11t61.5 -5v-36z" />
    <glyph glyph-name="iogonek" unicode="&#x12f;" horiz-adv-x="231" 
d="M279 510q-22 0 -36.5 15t-14.5 36t14.5 36t36.5 15q21 0 36 -14.5t15 -36.5q0 -21 -15 -36t-36 -15zM115 29q23 0 47.5 10.5t49 29.5t47.5 46t42 60l22 -11q-38 -65 -90 -109.5t-106 -59.5q-38 -14 -61.5 -34.5t-32 -39.5t-1.5 -33t31 -14q19 0 41 10t39 27l13 -15
q-26 -26 -57.5 -42.5t-60.5 -16.5q-37 0 -51 17.5t-8.5 42t30 50t65.5 42.5q-16 1 -32 5.5t-28.5 14.5t-20.5 25t-8 36q0 17 6.5 38.5t20.5 47.5q7 14 23 42t36 62t41 70.5t39 68.5h77q-8 -13 -20 -33.5t-26 -45t-28.5 -50t-27.5 -48t-23 -40t-14 -25.5q-26 -49 -26 -81
q0 -46 52 -46v-1z" />
    <glyph glyph-name="Idotaccent" unicode="&#x130;" horiz-adv-x="511" 
d="M649 810q-22 0 -36.5 15t-14.5 36t14.5 36t36.5 15q21 0 36 -14.5t15 -36.5q0 -21 -15 -36t-36 -15zM784 659q-34 0 -68.5 -14.5t-69 -45.5t-69 -81t-70.5 -121q-58 -116 -109.5 -194.5t-99 -126.5t-92.5 -68.5t-90 -20.5q-44 0 -70 24.5t-26 62.5q0 26 15 56t48 59
l18 -19q-28 -26 -40 -49t-12 -43q0 -28 20 -45t49 -17q28 0 60.5 21t70.5 66.5t82.5 118t96.5 176.5q61 123 124.5 190t131.5 93q-54 10 -108 17t-99 7q-61 0 -110.5 -17.5t-84 -45t-53.5 -61t-19 -64.5q0 -24 15.5 -39t47.5 -15q38 0 75 24t60 63l22 -14
q-26 -45 -72.5 -71.5t-98.5 -26.5q-62 0 -93.5 23t-31.5 60q0 38 26 75.5t72.5 67.5t111.5 49t143 19q45 0 86.5 -5t80 -11t72 -11t61.5 -5v-36z" />
    <glyph glyph-name="dotlessi" unicode="&#x131;" horiz-adv-x="231" 
d="M229 399q-8 -13 -20 -33.5t-26 -45t-28.5 -50t-27.5 -48t-23 -40t-14 -25.5q-26 -49 -26 -81q0 -46 52 -46q23 0 47.5 10.5t49 29.5t47.5 46t42 60l22 -11q-23 -39 -52 -71.5t-60.5 -55.5t-65 -35.5t-65.5 -12.5q-17 0 -34 4.5t-31 14t-22.5 25t-8.5 37.5q0 17 6.5 38.5
t20.5 47.5q7 14 23 42t36 62t41 70.5t39 68.5z" />
    <glyph glyph-name="IJ" unicode="&#x132;" horiz-adv-x="1044" 
d="M1278 655q-34 0 -68 -14.5t-68.5 -45.5t-69.5 -81t-70 -121q-46 -93 -93 -190.5t-99 -187.5q46 5 89.5 15t82 28t71.5 45t58 67l22 -10q-28 -47 -65.5 -78t-82 -51t-93 -30t-99.5 -15q-38 -62 -78 -115.5t-84.5 -93t-93.5 -62t-103 -22.5q-39 0 -69 10t-50.5 26.5
t-31 38.5t-10.5 47q0 34 19 66q27 47 73 71.5t103.5 36t123.5 14t134 6.5q54 93 103 193.5t94 191.5q61 123 124.5 189.5t131.5 92.5q-59 10 -114.5 17t-90.5 7q-62 0 -112.5 -17t-86 -44t-54.5 -60t-19 -66q0 -25 17 -39.5t50 -14.5q38 0 75 24t60 63l22 -15
q-26 -45 -73 -71.5t-99 -26.5q-63 0 -95.5 22.5t-32.5 60.5q0 28 14.5 56t40.5 54q-43 -29 -86.5 -84t-88.5 -145q-58 -116 -109.5 -194.5t-99 -126.5t-92.5 -68.5t-90 -20.5q-44 0 -70 24.5t-26 62.5q0 26 15 56t48 59l18 -19q-28 -26 -40 -49t-12 -43q0 -28 20 -45t49 -17
q28 0 60.5 21t70.5 66.5t82.5 118t96.5 176.5q61 123 124.5 190t131.5 93q-54 10 -108 17t-99 7q-61 0 -110.5 -17.5t-84 -45t-53.5 -61t-19 -64.5q0 -24 15.5 -39t47.5 -15q38 0 75 24t60 63l22 -14q-26 -45 -72.5 -71.5t-98.5 -26.5q-62 0 -93.5 23t-31.5 60q0 38 26 75.5
t72.5 67.5t111.5 49t143 19q45 0 86.5 -5t80 -11t72 -11t61.5 -5v-4q40 17 88 26.5t102 9.5q44 0 87.5 -5t83.5 -11t75.5 -11t63.5 -5zM426 -282q37 0 73 20t71 54.5t69.5 82t67.5 102.5q-62 -3 -120 -5t-108 -10.5t-88 -27.5t-59 -55q-18 -30 -18 -61q0 -40 28.5 -69.5
t82.5 -29.5z" />
    <glyph glyph-name="ij" unicode="&#x133;" horiz-adv-x="523" 
d="M303 510q-22 0 -36.5 15t-14.5 36t14.5 36t36.5 15q21 0 36 -14.5t15 -36.5q0 -21 -15 -36t-36 -15zM579 612q21 0 36 -14.5t15 -36.5q0 -21 -15 -36t-36 -15q-22 0 -36.5 15t-14.5 36t14.5 36t36.5 15zM319 136q38 66 76 131t76 131h77q-74 -129 -148 -255.5
t-146 -256.5q-52 -93 -122 -140.5t-142 -47.5q-54 0 -81.5 19.5t-27.5 49.5q0 28 19.5 55.5t53.5 49t79.5 34.5t97.5 13v-24q-45 0 -82.5 -10t-65.5 -27.5t-43.5 -40t-15.5 -46.5q0 -20 15 -33.5t46 -13.5q23 0 48.5 12t51.5 34t50.5 53t45.5 69q22 39 43.5 77.5t44.5 76.5
q-35 -28 -72 -43t-72 -15q-17 0 -34 4.5t-31 14t-22.5 25t-8.5 37.5q0 17 6.5 38.5t20.5 47.5q7 14 23 42t36 62t41 70.5t39 68.5h77q-7 -13 -19.5 -33.5t-26.5 -45t-28.5 -50t-27.5 -48t-23 -40t-14 -25.5q-26 -49 -26 -81q0 -46 52 -46q38 0 81 29t79 79v-1z" />
    <glyph glyph-name="uni0136" unicode="&#x136;" horiz-adv-x="834" 
d="M765 660q-34 0 -65 -14.5t-62 -45.5t-62.5 -81t-67.5 -121q-58 -116 -109.5 -194.5t-99 -126.5t-92.5 -68.5t-90 -20.5q-44 0 -70 24.5t-26 62.5q0 26 15 56t48 59l18 -19q-28 -26 -40 -49t-12 -43q0 -28 20 -45t49 -17q28 0 60.5 21t70.5 66.5t82.5 118t96.5 176.5
q63 124 121 191.5t123 92.5q-47 9 -98.5 15.5t-105.5 6.5q-56 0 -103.5 -17t-82.5 -43.5t-54.5 -59.5t-19.5 -65q0 -26 16.5 -41.5t49.5 -15.5q38 0 75 24t60 63l22 -14q-26 -45 -72.5 -71.5t-98.5 -26.5q-63 0 -95.5 23.5t-32.5 61.5t26.5 75.5t73 67t110 48t136.5 18.5
q48 0 92 -5t81 -11t66.5 -11t50.5 -5zM995 702q44 0 70.5 -24.5t26.5 -64.5l-54 -1q0 29 -12.5 46t-35.5 17q-25 0 -45 -15.5t-39 -40.5t-39.5 -56.5t-45.5 -63.5q-32 -41 -73.5 -77t-101.5 -56q43 -9 60 -25t17 -36q0 -27 -17.5 -54t-38.5 -55.5t-38.5 -58.5t-17.5 -61
q0 -23 15.5 -36.5t44.5 -13.5q26 0 55.5 9.5t58.5 26.5t57.5 40.5t52.5 52.5l22 -12q-28 -35 -62.5 -64t-72 -49.5t-77 -32t-76.5 -11.5q-48 0 -72 20t-24 55q0 38 18.5 72.5t41 64.5t41 56t18.5 48q0 20 -28 32t-100 12l16 28q52 0 90.5 20.5t70 52t58.5 69.5t55 74
q18 23 37.5 43.5t42 36t48.5 24.5t57 9zM330 -85q24 0 37 -15t14 -38q0 -24 -14 -51.5t-39.5 -51t-60 -39t-74.5 -15.5v22q36 0 64 12.5t47 28.5t29 29.5t10 16.5q-28 -3 -46 12t-17 38q0 20 14 35t36 16z" />
    <glyph glyph-name="uni0137" unicode="&#x137;" horiz-adv-x="503" 
d="M435 699q-15 -28 -34 -63.5t-41 -75t-46 -81t-47 -80.5q-12 -21 -32 -55.5t-42.5 -74.5t-46.5 -82t-45.5 -79t-37.5 -66t-23 -42l-76 -1q12 23 38 69t58 102.5t66.5 117t64.5 112.5q31 54 59 102t50.5 87.5t38 68t21.5 42.5zM237 218q51 -16 77 -48.5t26 -75.5
q0 -23 -7 -47t-22 -50h-79q28 49 28 95q0 42 -22.5 75.5t-66.5 53.5q57 17 103 35.5t94 42.5q-4 6 -7 16t-3 22q0 26 17.5 47t47.5 21q25 0 39 -13.5t14 -32.5q0 -23 -16.5 -39.5t-42.5 -27.5q11 -13 34 -21t52 -8q45 0 92 17.5t76 44.5l16 -17q-17 -16 -39 -28.5
t-46.5 -21.5t-50 -14t-48.5 -5q-37 0 -68 11.5t-48 30.5q-23 -11 -63 -27.5t-85 -33.5zM92 -184q-28 -3 -46 12t-17 38q0 20 14 35t36 16q24 0 37 -15t14 -38q0 -24 -14 -51.5t-39.5 -51t-60 -39t-74.5 -15.5v22q36 0 64 12.5t47 28.5t29 29.5t10 16.5z" />
    <glyph glyph-name="Lacute" unicode="&#x139;" horiz-adv-x="831" 
d="M968 906q-32 -40 -73 -73t-97 -62l-13 20q33 23 67 60t72 93zM820 709q59 0 83.5 -20.5t24.5 -50.5q0 -38 -30 -77.5t-82.5 -74.5t-123 -60.5t-152.5 -34.5q-88 -174 -162 -266q30 -13 54 -25.5t48 -22t50 -15.5t59 -6q64 0 114.5 24t69.5 63l24 -12q-15 -31 -37 -56
t-49 -43t-57.5 -27.5t-61.5 -9.5q-36 0 -66.5 8.5t-59 22.5t-56.5 31t-61 34q-53 -55 -99.5 -78t-95.5 -23q-33 0 -56 8.5t-37.5 21.5t-20.5 29.5t-6 33.5q0 45 38.5 74t101.5 29q70 0 147 -33q62 82 141 236q-68 0 -126 8.5t-101 24.5t-67 39.5t-24 54.5t20 61t55 53.5
t82 37.5t101 14v-26q-38 0 -71 -13t-57 -32.5t-38 -43t-14 -43.5q0 -26 19.5 -46t53.5 -34t80.5 -21.5t99.5 -7.5q46 89 89 146t85.5 90t85 46t86.5 13zM554 418q69 10 125.5 34.5t96.5 56t62 66t22 63.5q0 19 -11.5 31.5t-37.5 12.5q-27 0 -55 -11t-59 -40t-66 -80
t-77 -132v-1zM137 19q22 0 43 8.5t40.5 22t37 31t34.5 36.5q-35 18 -70.5 28t-66.5 10q-45 0 -71 -19t-26 -51q0 -24 19 -45t61 -21h-1z" />
    <glyph glyph-name="lacute" unicode="&#x13a;" horiz-adv-x="270" 
d="M403 790q33 23 67 60t72 93l45 -37q-32 -40 -73 -73t-97 -62zM438 698q-15 -28 -34.5 -63.5t-41.5 -75t-46 -81t-47 -80.5q-8 -13 -20 -33.5t-26 -45t-28.5 -50t-27.5 -48t-23 -40t-14 -25.5q-26 -49 -26 -81q0 -46 52 -46q22 0 47 10.5t49 29.5t47 46t42 60l22 -11
q-23 -39 -51.5 -71.5t-60 -55.5t-65 -35.5t-64.5 -12.5q-17 0 -34 4.5t-31 14t-22.5 25t-8.5 37.5q0 17 6.5 38.5t20.5 47.5q7 14 23 42t36 62t41 70.5t39 68.5q31 54 59 102t50.5 87.5t38 68t21.5 42.5z" />
    <glyph glyph-name="uni013B" unicode="&#x13b;" horiz-adv-x="831" 
d="M928 639q0 -38 -30 -77.5t-82.5 -74.5t-123 -60.5t-152.5 -34.5q-88 -174 -162 -266q30 -13 54 -25.5t48 -22t50 -15.5t59 -6q64 0 114.5 24t69.5 63l24 -12q-15 -31 -37 -56t-49 -43t-57.5 -27.5t-61.5 -9.5q-36 0 -66.5 8.5t-59 22.5t-56.5 31t-61 34
q-53 -55 -99.5 -78t-95.5 -23q-33 0 -56 8.5t-37.5 21.5t-20.5 29.5t-6 33.5q0 45 38.5 74t101.5 29q70 0 147 -33q62 82 141 236q-68 0 -126 8.5t-101 24.5t-67 39.5t-24 54.5t20 61t55 53.5t82 37.5t101 14v-26q-38 0 -71 -13t-57 -32.5t-38 -43t-14 -43.5q0 -26 19.5 -46
t53.5 -34t80.5 -21.5t99.5 -7.5q46 89 89 146t85.5 90t85 46t86.5 13q59 0 83.5 -20.5t24.5 -50.5zM811 682q-27 0 -55 -11t-59 -40t-66 -80t-77 -132q69 10 125.5 34.5t96.5 56t62 66t22 63.5q0 19 -11.5 31.5t-37.5 12.5v-1zM137 19q22 0 43 8.5t40.5 22t37 31t34.5 36.5
q-35 18 -70.5 28t-66.5 10q-45 0 -71 -19t-26 -51q0 -24 19 -45t61 -21h-1zM332 -82q24 0 37 -15t14 -38q0 -24 -14 -51.5t-39.5 -51t-60 -39t-74.5 -15.5v22q36 0 64 12.5t47 28.5t29 29.5t10 16.5q-28 -3 -46 12t-17 38q0 20 14 35t36 16z" />
    <glyph glyph-name="uni013C" unicode="&#x13c;" horiz-adv-x="270" 
d="M439 699q-15 -28 -34.5 -63.5t-41.5 -75t-46 -81t-47 -80.5q-8 -13 -20 -33.5t-26 -45t-28.5 -50t-27.5 -48t-23 -40t-14 -25.5q-26 -49 -26 -81q0 -46 52 -46q22 0 47 10.5t49 29.5t47 46t42 60l22 -11q-23 -39 -51.5 -71.5t-60 -55.5t-65 -35.5t-64.5 -12.5
q-17 0 -34 4.5t-31 14t-22.5 25t-8.5 37.5q0 17 6.5 38.5t20.5 47.5q7 14 23 42t36 62t41 70.5t39 68.5q31 54 59 102t50.5 87.5t38 68t21.5 42.5zM66 -182q-28 -3 -46 12t-17 38q0 20 14 35t36 16q24 0 37 -15t14 -38q0 -24 -14 -51.5t-39.5 -51t-60 -39t-74.5 -15.5v22
q36 0 64 12.5t47 28.5t29 29.5t10 16.5z" />
    <glyph glyph-name="Lcaron" unicode="&#x13d;" horiz-adv-x="831" 
d="M928 639q0 -38 -30 -77.5t-82.5 -74.5t-123 -60.5t-152.5 -34.5q-88 -174 -162 -266q30 -13 54 -25.5t48 -22t50 -15.5t59 -6q64 0 114.5 24t69.5 63l24 -12q-15 -31 -37 -56t-49 -43t-57.5 -27.5t-61.5 -9.5q-36 0 -66.5 8.5t-59 22.5t-56.5 31t-61 34
q-53 -55 -99.5 -78t-95.5 -23q-33 0 -56 8.5t-37.5 21.5t-20.5 29.5t-6 33.5q0 45 38.5 74t101.5 29q70 0 147 -33q62 82 141 236q-68 0 -126 8.5t-101 24.5t-67 39.5t-24 54.5t20 61t55 53.5t82 37.5t101 14v-26q-38 0 -71 -13t-57 -32.5t-38 -43t-14 -43.5q0 -26 19.5 -46
t53.5 -34t80.5 -21.5t99.5 -7.5q46 89 89 146t85.5 90t85 46t86.5 13q59 0 83.5 -20.5t24.5 -50.5zM554 419q69 10 125.5 34.5t96.5 56t62 66t22 63.5q0 19 -11.5 31.5t-37.5 12.5q-27 0 -55 -11t-59 -40t-66 -80t-77 -132v-1zM601 176q35 45 59.5 91t30.5 77h70
q-11 -37 -49 -87t-91 -96zM137 20q22 0 43 8.5t40.5 22t37 31t34.5 36.5q-35 18 -70.5 28t-66.5 10q-45 0 -71 -19t-26 -51q0 -24 19 -45t61 -21h-1z" />
    <glyph glyph-name="lcaron" unicode="&#x13e;" horiz-adv-x="270" 
d="M439 699q-15 -28 -34.5 -63.5t-41.5 -75t-46 -81t-47 -80.5q-8 -13 -20 -33.5t-26 -45t-28.5 -50t-27.5 -48t-23 -40t-14 -25.5q-26 -49 -26 -81q0 -46 52 -46q22 0 47 10.5t49 29.5t47 46t42 60l22 -11q-23 -39 -51.5 -71.5t-60 -55.5t-65 -35.5t-64.5 -12.5
q-17 0 -34 4.5t-31 14t-22.5 25t-8.5 37.5q0 17 6.5 38.5t20.5 47.5q7 14 23 42t36 62t41 70.5t39 68.5q31 54 59 102t50.5 87.5t38 68t21.5 42.5zM565 699q-11 -37 -49 -87t-91 -96l-19 15q35 45 59.5 91t30.5 77h69z" />
    <glyph glyph-name="Ldot" unicode="&#x13f;" horiz-adv-x="831" 
d="M588 56q64 0 114.5 24t69.5 63l24 -12q-15 -31 -37 -56t-49 -43t-57.5 -27.5t-61.5 -9.5q-36 0 -66.5 8.5t-59 22.5t-56.5 31t-61 34q-53 -55 -99.5 -78t-95.5 -23q-33 0 -56 8.5t-37.5 21.5t-20.5 29.5t-6 33.5q0 45 38.5 74t101.5 29q70 0 147 -33q62 82 141 236
q-68 0 -126 8.5t-101 24.5t-67 39.5t-24 54.5t20 61t55 53.5t82 37.5t101 14v-26q-38 0 -71 -13t-57 -32.5t-38 -43t-14 -43.5q0 -26 19.5 -46t53.5 -34t80.5 -21.5t99.5 -7.5q46 89 89 146t85.5 90t85 46t86.5 13q59 0 83.5 -20.5t24.5 -50.5q0 -38 -30 -77.5t-82.5 -74.5
t-123 -60.5t-152.5 -34.5q-88 -174 -162 -266q30 -13 54 -25.5t48 -22t50 -15.5t59 -6zM811 682q-27 0 -55 -11t-59 -40t-66 -80t-77 -132q69 10 125.5 34.5t96.5 56t62 66t22 63.5q0 19 -11.5 31.5t-37.5 12.5v-1zM839 313q21 0 36 -14.5t15 -36.5q0 -21 -15 -36t-36 -15
q-22 0 -36.5 15t-14.5 36t14.5 36t36.5 15zM137 20q22 0 43 8.5t40.5 22t37 31t34.5 36.5q-35 18 -70.5 28t-66.5 10q-45 0 -71 -19t-26 -51q0 -24 19 -45t61 -21h-1z" />
    <glyph glyph-name="ldot" unicode="&#x140;" horiz-adv-x="270" 
d="M439 699q-15 -28 -34.5 -63.5t-41.5 -75t-46 -81t-47 -80.5q-8 -13 -20 -33.5t-26 -45t-28.5 -50t-27.5 -48t-23 -40t-14 -25.5q-26 -49 -26 -81q0 -46 52 -46q22 0 47 10.5t49 29.5t47 46t42 60l22 -11q-23 -39 -51.5 -71.5t-60 -55.5t-65 -35.5t-64.5 -12.5
q-17 0 -34 4.5t-31 14t-22.5 25t-8.5 37.5q0 17 6.5 38.5t20.5 47.5q7 14 23 42t36 62t41 70.5t39 68.5q31 54 59 102t50.5 87.5t38 68t21.5 42.5zM340 299q-22 0 -36.5 15t-14.5 36t14.5 36t36.5 15q21 0 36 -14.5t15 -36.5q0 -21 -15 -36t-36 -15z" />
    <glyph glyph-name="Lslash" unicode="&#x141;" horiz-adv-x="815" 
d="M914 641q0 -38 -30 -77.5t-82.5 -74.5t-123 -60.5t-152.5 -34.5q-17 -33 -33 -63l115 32l11 -38l-153 -43q-27 -48 -52.5 -86.5t-50.5 -69.5q30 -13 54 -25.5t48 -22t50 -15.5t59 -6q64 0 114.5 24t69.5 63l24 -12q-15 -31 -37 -56t-49 -43t-57.5 -27.5t-61.5 -9.5
q-36 0 -66.5 8.5t-59 22.5t-56.5 31t-61 34q-53 -55 -99.5 -78t-95.5 -23q-33 0 -56 8.5t-37.5 21.5t-20.5 29.5t-6 33.5q0 45 38.5 74t101.5 29q70 0 147 -33q16 22 33 47.5t35 56.5l-120 -34l-11 38l159 44q11 20 22 40.5t22 43.5q-68 0 -126 8.5t-101 24.5t-67 39.5
t-24 54.5t20 61t55 53.5t82 37.5t101 14v-26q-38 0 -71 -13t-57 -32.5t-38 -43t-14 -43.5q0 -26 19.5 -46t53.5 -34t80.5 -21.5t99.5 -7.5q46 89 89 146t85.5 90t85 46t86.5 13q59 0 83.5 -20.5t24.5 -50.5zM797 684q-27 0 -55 -11t-59 -40t-66 -80t-77 -132
q69 10 125.5 34.5t96.5 56t62 66t22 63.5q0 19 -11.5 31.5t-37.5 12.5v-1zM123 21q22 0 43 8.5t40.5 22t37 31t34.5 36.5q-35 18 -70.5 28t-66.5 10q-45 0 -71 -19t-26 -51q0 -24 19 -45t61 -21h-1z" />
    <glyph glyph-name="lslash" unicode="&#x142;" horiz-adv-x="271" 
d="M239 346q-15 -26 -31.5 -55t-32 -55.5t-27.5 -48t-17 -30.5q-34 -65 -24.5 -96.5t50.5 -31.5q22 0 47 10.5t49 29.5t47 46t42 60l22 -11q-23 -39 -51.5 -71.5t-60 -55.5t-65 -35.5t-64.5 -12.5q-23 0 -46 8.5t-36.5 28.5t-12.5 51.5t26 78.5q10 18 33 57.5t49 85.5
l-101 -46l-17 36l152 69l23 41q31 54 59 102t50.5 87.5t38 68t21.5 42.5h77q-14 -28 -33 -62.5t-41 -73t-45 -78.5t-46 -79l104 47l17 -36z" />
    <glyph glyph-name="Nacute" unicode="&#x143;" horiz-adv-x="871" 
d="M1064 906q-32 -40 -73 -73t-97 -62l-13 20q33 23 67 60t72 93zM1124 707q53 0 76.5 -23t23.5 -58q0 -36 -23 -76l-37 20q16 28 16 54q0 25 -16.5 41t-48.5 16q-67 0 -133 -74.5t-132 -207.5q-45 -90 -75.5 -148t-57.5 -99.5t-56 -75.5t-72 -77h-40q26 92 36.5 159
t13.5 119t3 94t5 85t19 91t45 113q-29 -18 -78.5 -79t-109.5 -180q-58 -116 -106 -194.5t-90.5 -126.5t-82 -68.5t-81.5 -20.5q-52 0 -75.5 22t-23.5 55q0 36 24 75l36 -16q-16 -28 -16 -53t16.5 -41t48.5 -16t65.5 21t72 67t82.5 118.5t96 176.5q42 83 80.5 140.5
t70.5 92.5t56 51t38 16h48q-26 -70 -38 -128.5t-17 -110t-6 -97.5t-4.5 -91t-13 -91t-30.5 -98q21 28 41.5 58t42 67.5t45.5 83.5t54 106q39 78 76 136t74.5 96.5t76.5 57.5t82 19z" />
    <glyph glyph-name="nacute" unicode="&#x144;" horiz-adv-x="538" 
d="M546 606q-32 -40 -73 -73t-97 -62l-13 20q33 23 67 60t72 93zM629 166q-23 -39 -52.5 -71.5t-62 -55.5t-67.5 -35.5t-68 -12.5q-46 0 -70 19.5t-24 55.5q0 39 18.5 73t40 65t40 59t18.5 55q0 25 -17 39t-45 14q-39 0 -82 -33t-75 -88l-143 -250h-77q33 57 56 97.5
t40.5 70.5t30 51.5t23.5 39.5q5 9 15.5 28.5t22 41.5t20.5 42t12 28h51l-17 -67q35 36 75.5 56.5t82.5 20.5q51 0 78.5 -24t27.5 -61q0 -34 -18 -63.5t-39 -58t-39 -57.5t-18 -62q0 -24 14.5 -39t43.5 -15q22 0 47 10.5t49 30t47 46.5t42 60z" />
    <glyph glyph-name="uni0145" unicode="&#x145;" horiz-adv-x="871" 
d="M1126 708q53 0 76.5 -23t23.5 -58q0 -36 -23 -76l-37 20q16 28 16 54q0 25 -16.5 41t-48.5 16q-67 0 -133 -74.5t-132 -207.5q-45 -90 -75.5 -148t-57.5 -99.5t-56 -75.5t-72 -77h-40q26 92 36.5 159t13.5 119t3 94t5 85t19 91t45 113q-29 -18 -78.5 -79t-109.5 -180
q-58 -116 -106 -194.5t-90.5 -126.5t-82 -68.5t-81.5 -20.5q-52 0 -75.5 22t-23.5 55q0 36 24 75l36 -16q-16 -28 -16 -53t16.5 -41t48.5 -16t65.5 21t72 67t82.5 118.5t96 176.5q42 83 80.5 140.5t70.5 92.5t56 51t38 16h48q-26 -70 -38 -128.5t-17 -110t-6 -97.5t-4.5 -91
t-13 -91t-30.5 -98q21 28 41.5 58t42 67.5t45.5 83.5t54 106q39 78 76 136t74.5 96.5t76.5 57.5t82 19zM358 -81q24 0 37 -15t14 -38q0 -24 -14 -51.5t-39.5 -51t-60 -39t-74.5 -15.5v22q36 0 64 12.5t47 28.5t29 29.5t10 16.5q-28 -3 -46 12t-17 38q0 20 14 35t36 16z" />
    <glyph glyph-name="uni0146" unicode="&#x146;" horiz-adv-x="538" 
d="M630 166q-23 -39 -52.5 -71.5t-62 -55.5t-67.5 -35.5t-68 -12.5q-46 0 -70 19.5t-24 55.5q0 39 18.5 73t40 65t40 59t18.5 55q0 25 -17 39t-45 14q-39 0 -82 -33t-75 -88l-143 -250h-77q33 57 56 97.5t40.5 70.5t30 51.5t23.5 39.5q5 9 15.5 28.5t22 41.5t20.5 42t12 28
h51l-17 -67q35 36 75.5 56.5t82.5 20.5q51 0 78.5 -24t27.5 -61q0 -34 -18 -63.5t-39 -58t-39 -57.5t-18 -62q0 -24 14.5 -39t43.5 -15q22 0 47 10.5t49 30t47 46.5t42 60zM119 -79q24 0 37 -15t14 -38q0 -24 -14 -51.5t-39.5 -51t-60 -39t-74.5 -15.5v22q36 0 64 12.5
t47 28.5t29 29.5t10 16.5q-28 -3 -46 12t-17 38q0 20 14 35t36 16z" />
    <glyph glyph-name="Ncaron" unicode="&#x147;" horiz-adv-x="871" 
d="M1093 932q-12 -21 -32 -43t-46.5 -43.5t-57.5 -41t-64 -34.5q0 39 -13 76t-34 60l45 35q23 -23 36.5 -53.5t13.5 -58.5q42 24 76.5 56t50.5 61zM1124 707q53 0 76.5 -23t23.5 -58q0 -36 -23 -76l-37 20q16 28 16 54q0 25 -16.5 41t-48.5 16q-67 0 -133 -74.5t-132 -207.5
q-45 -90 -75.5 -148t-57.5 -99.5t-56 -75.5t-72 -77h-40q26 92 36.5 159t13.5 119t3 94t5 85t19 91t45 113q-29 -18 -78.5 -79t-109.5 -180q-58 -116 -106 -194.5t-90.5 -126.5t-82 -68.5t-81.5 -20.5q-52 0 -75.5 22t-23.5 55q0 36 24 75l36 -16q-16 -28 -16 -53t16.5 -41
t48.5 -16t65.5 21t72 67t82.5 118.5t96 176.5q42 83 80.5 140.5t70.5 92.5t56 51t38 16h48q-26 -70 -38 -128.5t-17 -110t-6 -97.5t-4.5 -91t-13 -91t-30.5 -98q21 28 41.5 58t42 67.5t45.5 83.5t54 106q39 78 76 136t74.5 96.5t76.5 57.5t82 19z" />
    <glyph glyph-name="ncaron" unicode="&#x148;" horiz-adv-x="538" 
d="M574 632q-12 -21 -32 -43t-46.5 -43.5t-57.5 -41t-64 -34.5q0 39 -13 76t-34 60l45 35q23 -23 36.5 -53.5t13.5 -58.5q42 24 76.5 56t50.5 61zM629 166q-23 -39 -52.5 -71.5t-62 -55.5t-67.5 -35.5t-68 -12.5q-46 0 -70 19.5t-24 55.5q0 39 18.5 73t40 65t40 59t18.5 55
q0 25 -17 39t-45 14q-39 0 -82 -33t-75 -88l-143 -250h-77q33 57 56 97.5t40.5 70.5t30 51.5t23.5 39.5q5 9 15.5 28.5t22 41.5t20.5 42t12 28h51l-17 -67q35 36 75.5 56.5t82.5 20.5q51 0 78.5 -24t27.5 -61q0 -34 -18 -63.5t-39 -58t-39 -57.5t-18 -62q0 -24 14.5 -39
t43.5 -15q22 0 47 10.5t49 30t47 46.5t42 60z" />
    <glyph glyph-name="Eng" unicode="&#x14a;" horiz-adv-x="871" 
d="M1124 709q53 0 76.5 -23t23.5 -58q0 -36 -23 -76l-37 20q16 28 16 54q0 25 -16.5 41t-48.5 16q-33 0 -68 -21t-69 -58.5t-66.5 -89t-61.5 -113.5q-32 -69 -59.5 -123t-55 -97.5t-56.5 -78.5t-65 -66q-6 -15 -12.5 -29t-13.5 -28q-29 -58 -65 -116.5t-79.5 -105.5
t-95.5 -76.5t-114 -29.5q-53 0 -81 24.5t-28 61.5q0 29 18 59q22 38 68 64t101.5 48.5t114.5 46.5t108 57l18 12q16 43 26 81.5t15 76.5t6.5 77t1.5 82q0 51 4.5 94.5t13.5 82t22 73.5t30 70q-29 -18 -78.5 -79t-109.5 -181q-58 -116 -106 -194.5t-90.5 -126.5t-82 -68.5
t-81.5 -20.5q-53 0 -76.5 22t-23.5 55q0 34 25 75l36 -16q-16 -28 -16 -53t16.5 -41t48.5 -16t65.5 21t72 67t82.5 118.5t96 176.5q42 83 80.5 140.5t70.5 92.5t56 51t38 16h48q-12 -33 -22.5 -65.5t-18.5 -69t-12.5 -79t-4.5 -96.5q0 -86 -11.5 -158t-31.5 -133
q24 26 44.5 56.5t41 66.5t42 80t47.5 97q33 67 68 124t73 98.5t80 64.5t89 23h-3zM244 -324q45 0 87.5 28.5t79.5 71.5t67 93.5t50 94.5l5 11q-48 -29 -103 -51.5t-105.5 -43.5t-89.5 -42.5t-54 -47.5q-13 -22 -13 -46q0 -28 19.5 -48t56.5 -20z" />
    <glyph glyph-name="eng" unicode="&#x14b;" horiz-adv-x="517" 
d="M380 409q51 0 78 -23t27 -59q0 -32 -21 -69q-25 -45 -83.5 -136t-139.5 -235q-52 -93 -122 -140.5t-142 -47.5q-54 0 -82 20t-28 50q0 28 19.5 55.5t53 48.5t79 34t97.5 13v-24q-42 0 -80 -10t-66 -27t-44.5 -39.5t-16.5 -46.5q0 -20 15 -33.5t46 -13.5q23 0 48.5 12
t51.5 34t50.5 53t45.5 69q33 60 67 116.5t64.5 105.5t54.5 87.5t37 61.5q17 30 17 54t-16.5 37.5t-45.5 13.5q-41 0 -82 -31.5t-75 -88.5l-143 -250h-77q32 55 54.5 95t39.5 69.5t30 52t26 43.5q5 9 15.5 28.5t22 41.5t20.5 42t12 28h51l-15 -61q32 32 71 51.5t84 19.5z" />
    <glyph glyph-name="Omacron" unicode="&#x14c;" horiz-adv-x="879" 
d="M938 825h-264l24 42h264zM679 365q-71 0 -108.5 33t-37.5 84q0 39 21 79.5t57 73t83.5 53.5t100.5 21q69 -1 103.5 -37t34.5 -99q0 -56 -24 -121t-65.5 -130t-98 -125.5t-121.5 -106.5t-136 -74t-141 -28q-91 0 -142.5 45t-51.5 125q0 47 18.5 99t50.5 105.5t76.5 105.5
t96.5 97t110 81t117 58l9 -20q-47 -19 -94.5 -54t-91.5 -80t-83 -97.5t-68 -105.5t-45.5 -103.5t-16.5 -92.5q0 -64 35 -99t96 -35q57 0 116 29t115 76t104.5 108t85.5 124.5t58 125.5t21 111q0 45 -18.5 69t-50.5 24q-36 0 -69.5 -21t-59 -52t-41 -67t-15.5 -66
q0 -40 22 -63.5t56 -23.5z" />
    <glyph glyph-name="omacron" unicode="&#x14d;" horiz-adv-x="506" 
d="M263 525l24 42h264l-24 -42h-264zM667 293q-31 -53 -84.5 -82t-110.5 -29q-41 0 -66 14q-23 -39 -56 -76t-71 -65.5t-80.5 -46t-84.5 -17.5q-50 0 -76 23.5t-26 65.5q0 34 14.5 71.5t39.5 74.5t59 70.5t72 59t79 40.5t81 15q45 0 69 -19.5t26 -57.5q22 -4 32 -18t10 -31
q0 -23 -16.5 -43t-47.5 -20q1 -6 14.5 -11.5t36.5 -5.5q47 0 93 25.5t74 73.5zM159 33q32 0 65 16t63 42t55 58.5t43 65.5q-17 18 -17 46q0 23 12.5 43t33.5 28q-9 39 -59 39q-31 0 -62 -14t-60 -36.5t-54.5 -51.5t-44 -60t-29.5 -61t-11 -54q0 -30 17 -46.5t48 -16.5v2z
" />
    <glyph glyph-name="Ohungarumlaut" unicode="&#x150;" horiz-adv-x="879" 
d="M693 790q33 23 67 60t72 93l45 -37q-32 -40 -73 -73t-97 -62zM832 789q33 23 67 60t72 93l45 -37q-32 -40 -73 -73t-97 -62zM677 364q-71 0 -108.5 33t-37.5 84q0 39 21 79.5t57 73t83.5 53.5t100.5 21q69 -1 103.5 -37t34.5 -99q0 -56 -24 -121t-65.5 -130t-98 -125.5
t-121.5 -106.5t-136 -74t-141 -28q-91 0 -142.5 45t-51.5 125q0 46 18.5 98.5t50.5 106t76.5 105.5t96.5 97t110 81t117 58l9 -20q-47 -19 -94.5 -54t-91.5 -80t-83 -97.5t-68 -105.5t-45.5 -103.5t-16.5 -92.5q0 -64 35 -99t96 -35q57 0 116 29t115 76t104.5 108
t85.5 124.5t58 125.5t21 111q0 45 -18.5 69t-50.5 24q-36 0 -69.5 -21t-59 -52t-41 -67t-15.5 -66q0 -40 22 -63.5t56 -23.5z" />
    <glyph glyph-name="ohungarumlaut" unicode="&#x151;" horiz-adv-x="506" 
d="M465 606q-32 -40 -73 -73t-97 -62l-13 20q33 23 67 60t72 93zM421 489q33 23 67 60t72 93l45 -37q-32 -40 -73 -73t-97 -62zM666 291q-31 -53 -84.5 -82t-110.5 -29q-41 0 -66 14q-23 -39 -56 -76t-71 -65.5t-80.5 -46t-84.5 -17.5q-50 0 -76 23.5t-26 65.5
q0 34 14.5 71.5t39.5 74.5t59 70.5t72 59t79 40.5t81 15q45 0 69 -19.5t26 -57.5q22 -4 32 -18t10 -31q0 -23 -16.5 -43t-47.5 -20q1 -6 14.5 -11.5t36.5 -5.5q47 0 93 25.5t74 73.5zM158 31q32 0 65 16t63 42t55 58.5t43 65.5q-17 18 -17 46q0 23 12.5 43t33.5 28
q-9 39 -59 39q-31 0 -62 -14t-60 -36.5t-54.5 -51.5t-44 -60t-29.5 -61t-11 -54q0 -30 17 -46.5t48 -16.5v2z" />
    <glyph glyph-name="OE" unicode="&#x152;" horiz-adv-x="1273" 
d="M1177 409q-1 -25 -22 -46.5t-52.5 -42t-68 -41.5t-67.5 -46t-52 -56t-21 -70q0 -40 33 -66t99 -26q49 0 98.5 16t95 44.5t85 69t68.5 90.5l22 -15q-30 -52 -72.5 -95t-93 -73.5t-106.5 -47t-112 -16.5q-97 0 -146 33t-49 84q0 38 18 66.5t46.5 51.5t62 42t65 37t56 37.5
t34.5 44.5q-58 -16 -118 -26t-120 -12q-40 -69 -97.5 -133.5t-125 -114.5t-141.5 -80.5t-148 -30.5q-91 0 -142.5 45t-51.5 125q0 46 18.5 98.5t50.5 106t76.5 105.5t96.5 97t110 81t117 58l9 -20q-47 -19 -94.5 -54t-91.5 -80t-83 -97.5t-68 -105.5t-45.5 -103.5
t-16.5 -92.5q0 -64 35 -99t96 -35q57 0 115.5 28.5t114 75t104 106.5t85.5 123q-56 4 -98.5 18.5t-71 36t-43 49t-14.5 58.5q0 37 18.5 73t50.5 64t76.5 45t97.5 17q69 -1 103.5 -37t34.5 -99q0 -46 -15.5 -97.5t-44.5 -105.5q59 3 117 13.5t113 27.5q0 20 -4.5 39t-4.5 42
q0 44 24.5 83.5t66 69t95.5 47t114 17.5q59 0 83 -20t24 -44q0 -28 -25 -59.5t-69 -63t-103 -60.5t-128 -53zM1171 509q-3 -24 0 -39t5 -34q58 22 108 48t86.5 53.5t57 55t20.5 51.5q0 17 -14 28.5t-46 11.5q-45 0 -83 -15.5t-67 -41t-46.5 -57t-21.5 -62.5zM627 514
q0 -52 41.5 -91.5t124.5 -48.5q32 59 49.5 114.5t17.5 100.5q0 46 -19 70.5t-53 24.5t-63 -16.5t-50.5 -42t-34 -55.5t-12.5 -56h-1z" />
    <glyph glyph-name="oe" unicode="&#x153;" horiz-adv-x="755" 
d="M844 158q-33 -40 -76.5 -71.5t-91.5 -53.5t-98.5 -33.5t-96.5 -11.5q-67 0 -102.5 24t-35.5 72q0 13 3 27q-51 -57 -110 -90t-119 -33q-50 0 -76 23.5t-26 65.5q0 34 14.5 72t39.5 74.5t58.5 70t71.5 59t79.5 40.5t81.5 15q45 0 69.5 -20.5t24.5 -59.5q0 -14 -5 -36
q24 25 51.5 46t57.5 37t61 25t63 9q43 0 62 -16.5t19 -39.5q0 -30 -28 -62.5t-73.5 -61.5t-105 -52t-122.5 -35q-6 -21 -6 -40q0 -36 26 -54t75 -18q38 0 79 10.5t80 29.5t74.5 46t63.5 59zM161 26q27 0 56.5 12.5t57.5 34.5t54 52t47 66q2 4 4 7.5t4 7.5q33 61 33 104
q0 27 -15 42.5t-45 15.5q-31 0 -62 -14t-60 -36.5t-54.5 -51.5t-44 -60t-29.5 -61t-11 -54q0 -30 17 -46.5t48 -16.5v-2zM675 366q-34 0 -68.5 -18.5t-66 -47.5t-56.5 -64.5t-40 -69.5q51 11 99.5 31t86.5 43.5t61.5 49t23.5 46.5q0 14 -11.5 22t-29.5 8h1z" />
    <glyph glyph-name="Racute" unicode="&#x154;" horiz-adv-x="838" 
d="M956 906q-32 -40 -73 -73t-97 -62l-13 20q33 23 67 60t72 93zM677 21q25 0 53 9.5t56.5 26.5t56.5 40.5t52 52.5l22 -12q-28 -35 -62 -64t-71 -49.5t-75 -32t-74 -11.5q-48 0 -72 20t-24 55q0 39 30 92q13 22 28.5 43.5t29 41t22.5 36t9 30.5q0 20 -27 31.5t-97 11.5
l16 28q55 0 101.5 11t80.5 32.5t53 53t19 72.5q0 64 -59 106q-71 -26 -124.5 -87.5t-104.5 -163.5q-58 -116 -109.5 -194.5t-99 -126.5t-92.5 -68.5t-90 -20.5q-44 0 -70 24.5t-26 62.5q0 26 15 56t48 59l18 -19q-28 -26 -40 -49t-12 -43q0 -28 20 -45t49 -17q28 0 60.5 21
t70.5 66.5t82.5 118t96.5 176.5q29 58 59 103t62.5 78.5t68.5 56.5t78 37q-33 14 -76 22t-97 8q-67 0 -124.5 -15.5t-99.5 -41t-65.5 -59.5t-23.5 -71q0 -24 15.5 -39t47.5 -15q38 0 75 24t60 63l22 -14q-26 -45 -72.5 -71.5t-98.5 -26.5q-62 0 -93.5 23t-31.5 60
q0 41 30 79t82.5 67.5t123.5 47t154 17.5q66 0 120 -12t96 -32q57 12 125 12v-26q-46 0 -85 -9q43 -29 65.5 -64.5t22.5 -73.5q0 -33 -14 -59t-39.5 -46.5t-61 -34.5t-78.5 -23q28 -9 39.5 -22.5t11.5 -30.5q0 -18 -10.5 -38.5t-24.5 -41.5t-29 -41t-25 -37q-24 -41 -24 -70
q0 -23 15.5 -36.5t44.5 -13.5z" />
    <glyph glyph-name="racute" unicode="&#x155;" horiz-adv-x="387" 
d="M495 606q-32 -40 -73 -73t-97 -62l-13 20q33 23 67 60t72 93zM361 406q39 0 57.5 -24.5t18.5 -54.5q0 -15 -5 -30t-14 -27t-22.5 -19t-31.5 -7q-23 0 -34 13t-11 30q0 20 16 37t50 16q2 11 -6.5 21.5t-30.5 10.5q-40 0 -89.5 -44.5t-96.5 -119.5l-120 -210h-77
q57 98 93 160t57 100q13 24 24.5 47l21 42t15.5 32.5t9 18.5h51l-18 -73q36 40 73 62t70 22v-3z" />
    <glyph glyph-name="uni0156" unicode="&#x156;" horiz-adv-x="838" 
d="M917 139q-28 -35 -62 -64t-71 -49.5t-75 -32t-74 -11.5q-48 0 -72 20t-24 55q0 39 30 92q13 22 28.5 43.5t29 41t22.5 36t9 30.5q0 20 -27 31.5t-97 11.5l16 28q55 0 101.5 11t80.5 32.5t53 53t19 72.5q0 64 -59 106q-71 -26 -124.5 -87.5t-104.5 -163.5
q-58 -116 -109.5 -194.5t-99 -126.5t-92.5 -68.5t-90 -20.5q-44 0 -70 24.5t-26 62.5q0 26 15 56t48 59l18 -19q-28 -26 -40 -49t-12 -43q0 -28 20 -45t49 -17q28 0 60.5 21t70.5 66.5t82.5 118t96.5 176.5q29 58 59 103t62.5 78.5t68.5 56.5t78 37q-33 14 -76 22t-97 8
q-67 0 -124.5 -15.5t-99.5 -41t-65.5 -59.5t-23.5 -71q0 -24 15.5 -39t47.5 -15q38 0 75 24t60 63l22 -14q-26 -45 -72.5 -71.5t-98.5 -26.5q-62 0 -93.5 23t-31.5 60q0 41 30 79t82.5 67.5t123.5 47t154 17.5q66 0 120 -12t96 -32q57 12 125 12v-26q-46 0 -85 -9
q43 -29 65.5 -64.5t22.5 -73.5q0 -33 -14 -59t-39.5 -46.5t-61 -34.5t-78.5 -23q28 -9 39.5 -22.5t11.5 -30.5q0 -18 -10.5 -38.5t-24.5 -41.5t-29 -41t-25 -37q-24 -41 -24 -70q0 -23 15.5 -36.5t44.5 -13.5q25 0 53 9.5t56.5 26.5t56.5 40.5t52 52.5zM352 -88q24 0 37 -15
t14 -38q0 -24 -14 -51.5t-39.5 -51t-60 -39t-74.5 -15.5v22q36 0 64 12.5t47 28.5t29 29.5t10 16.5q-28 -3 -46 12t-17 38q0 20 14 35t36 16z" />
    <glyph glyph-name="uni0157" unicode="&#x157;" horiz-adv-x="387" 
d="M362 407q39 0 57.5 -24.5t18.5 -54.5q0 -15 -5 -30t-14 -27t-22.5 -19t-31.5 -7q-23 0 -34 13t-11 30q0 20 16 37t50 16q2 11 -6.5 21.5t-30.5 10.5q-40 0 -89.5 -44.5t-96.5 -119.5l-120 -210h-77q57 98 93 160t57 100q13 24 24.5 47l21 42t15.5 32.5t9 18.5h51l-18 -73
q36 40 73 62t70 22v-3zM-39 -83q24 0 37 -15t14 -38q0 -24 -14 -51.5t-39.5 -51t-60 -39t-74.5 -15.5v22q36 0 64 12.5t47 28.5t29 29.5t10 16.5q-28 -3 -46 12t-17 38q0 20 14 35t36 16z" />
    <glyph glyph-name="Rcaron" unicode="&#x158;" horiz-adv-x="838" 
d="M984 932q-12 -21 -32 -43t-46.5 -43.5t-57.5 -41t-64 -34.5q0 39 -13 76t-34 60l45 35q23 -23 36.5 -53.5t13.5 -58.5q42 24 76.5 56t50.5 61zM676 21q25 0 53 9.5t56.5 26.5t56.5 40.5t52 52.5l22 -12q-28 -35 -62 -64t-71 -49.5t-75 -32t-74 -11.5q-48 0 -72 20t-24 55
q0 39 30 92q13 22 28.5 43.5t29 41t22.5 36t9 30.5q0 20 -27 31.5t-97 11.5l16 28q55 0 101.5 11t80.5 32.5t53 53t19 72.5q0 64 -59 106q-71 -26 -124.5 -87.5t-104.5 -163.5q-58 -116 -109.5 -194.5t-99 -126.5t-92.5 -68.5t-90 -20.5q-44 0 -70 24.5t-26 62.5q0 26 15 56
t48 59l18 -19q-28 -26 -40 -49t-12 -43q0 -28 20 -45t49 -17q28 0 60.5 21t70.5 66.5t82.5 118t96.5 176.5q29 58 59 103t62.5 78.5t68.5 56.5t78 37q-33 14 -76 22t-97 8q-67 0 -124.5 -15.5t-99.5 -41t-65.5 -59.5t-23.5 -71q0 -24 15.5 -39t47.5 -15q38 0 75 24t60 63
l22 -14q-26 -45 -72.5 -71.5t-98.5 -26.5q-62 0 -93.5 23t-31.5 60q0 41 30 79t82.5 67.5t123.5 47t154 17.5q66 0 120 -12t96 -32q57 12 125 12v-26q-46 0 -85 -9q43 -29 65.5 -64.5t22.5 -73.5q0 -33 -14 -59t-39.5 -46.5t-61 -34.5t-78.5 -23q28 -9 39.5 -22.5
t11.5 -30.5q0 -18 -10.5 -38.5t-24.5 -41.5t-29 -41t-25 -37q-24 -41 -24 -70q0 -23 15.5 -36.5t44.5 -13.5z" />
    <glyph glyph-name="rcaron" unicode="&#x159;" horiz-adv-x="387" 
d="M523 632q-12 -21 -32 -43t-46.5 -43.5t-57.5 -41t-64 -34.5q0 39 -13 76t-34 60l45 35q23 -23 36.5 -53.5t13.5 -58.5q42 24 76.5 56t50.5 61zM360 406q39 0 57.5 -24.5t18.5 -54.5q0 -15 -5 -30t-14 -27t-22.5 -19t-31.5 -7q-23 0 -34 13t-11 30q0 20 16 37t50 16
q2 11 -6.5 21.5t-30.5 10.5q-40 0 -89.5 -44.5t-96.5 -119.5l-120 -210h-77q57 98 93 160t57 100q13 24 24.5 47l21 42t15.5 32.5t9 18.5h51l-18 -73q36 40 73 62t70 22v-3z" />
    <glyph glyph-name="Sacute" unicode="&#x15a;" horiz-adv-x="670" 
d="M1026 906q-32 -40 -73 -73t-97 -62l-13 20q33 23 67 60t72 93zM864 709q48 0 71.5 -18.5t23.5 -45.5q0 -36 -33.5 -78t-92 -79t-137.5 -64t-170 -34q-57 -113 -107.5 -189.5t-98.5 -123.5t-94.5 -67t-95.5 -20q-47 0 -75 26t-28 64q0 26 14 54.5t46 57.5l18 -19
q-26 -24 -37.5 -46.5t-11.5 -42.5q0 -29 22.5 -47.5t54.5 -18.5q31 0 65 20.5t72 65t81.5 115t93.5 171.5q-109 4 -166.5 37t-57.5 83q0 34 21.5 65t58.5 55t86 38t104 14v-24q-38 0 -72.5 -13t-61 -34t-42.5 -47t-16 -51q0 -39 40.5 -66t118.5 -32q33 62 78.5 116
t98.5 93.5t111.5 62.5t117.5 23v-1zM539 417q75 7 141.5 32t116 58t78.5 69.5t29 66.5q0 17 -11.5 28.5t-35.5 11.5q-44 0 -88 -21t-85.5 -57t-78 -85t-65.5 -104z" />
    <glyph glyph-name="sacute" unicode="&#x15b;" horiz-adv-x="386" 
d="M311 490q33 23 67 60t72 93l45 -37q-32 -40 -73 -73t-97 -62zM279 404q28 0 48.5 -7.5t33.5 -19t19 -26.5t6 -30q0 -26 -16 -46.5t-43 -20.5q-20 0 -30 11t-10 25t10 26.5t30 12.5q25 0 33 -13q1 3 1 9q0 19 -18 33.5t-50 14.5q-27 0 -44 -10t-26.5 -23.5t-13.5 -28
t-4 -23.5q0 -26 14 -48.5t30.5 -44.5t30.5 -45t14 -48q0 -24 -13 -45t-35 -36.5t-51.5 -24.5t-61.5 -9q-36 0 -62 10t-42.5 26t-24.5 35.5t-8 39.5q0 31 18.5 54.5t51.5 23.5q20 0 30 -10.5t10 -24.5q0 -17 -13.5 -30.5t-36.5 -13.5q-17 0 -31 8q-3 -8 -3 -15q0 -13 7 -26.5
t19.5 -24t30.5 -17t40 -6.5q29 0 48.5 8t31 19.5t16 24.5t4.5 23q0 22 -13 44.5t-29 46.5t-29 49t-13 54q0 25 10.5 47.5t29.5 39.5t45.5 27t58.5 10v-5z" />
    <glyph glyph-name="Scedilla" unicode="&#x15e;" horiz-adv-x="670" 
d="M960 646q0 -36 -33.5 -78t-92 -79t-137.5 -64t-170 -34q-53 -105 -100.5 -178t-92 -120.5t-87.5 -71t-87 -28.5l-44 -63q24 -8 32 -34.5t-11 -58.5t-48.5 -43.5t-55.5 -11.5q-47 0 -62 30.5t11 76.5l35 -15q-15 -24 -10 -46t34 -22q15 0 34 8t33 31q7 11 9 22.5
t-2.5 21.5t-15 16.5t-29.5 7.5l54 78q-44 2 -70 27.5t-26 62.5q0 26 14 54.5t46 57.5l18 -19q-26 -24 -37.5 -46.5t-11.5 -42.5q0 -29 22.5 -47.5t54.5 -18.5q31 0 65 20.5t72 65t81.5 115t93.5 171.5q-109 4 -166.5 37t-57.5 83q0 34 21.5 65t58.5 55t86 38t104 14v-24
q-38 0 -72.5 -13t-61 -34t-42.5 -47t-16 -51q0 -39 40.5 -66t118.5 -32q33 62 78.5 116t98.5 93.5t111.5 62.5t117.5 23q48 0 71.5 -18.5t23.5 -45.5v-1zM540 419q75 7 141.5 32t116 58t78.5 69.5t29 66.5q0 17 -11.5 28.5t-35.5 11.5q-44 0 -88 -21t-85.5 -57t-78 -85
t-65.5 -104z" />
    <glyph glyph-name="scedilla" unicode="&#x15f;" horiz-adv-x="386" 
d="M279 405q28 0 48.5 -7.5t33.5 -19t19 -26.5t6 -30q0 -26 -16 -46.5t-43 -20.5q-20 0 -30 11t-10 25t10 26.5t30 12.5q25 0 33 -13q1 3 1 9q0 19 -18 33.5t-50 14.5q-27 0 -44 -10t-26.5 -23.5t-13.5 -28t-4 -23.5q0 -26 14 -48.5t30.5 -44.5t30.5 -45t14 -48
q0 -23 -11.5 -43.5t-32 -35.5t-47 -24.5t-56.5 -11.5l-43 -60q24 -8 32 -34.5t-11 -58.5t-48.5 -43.5t-55.5 -11.5q-47 0 -62 30.5t11 76.5l35 -15q-15 -24 -10 -46t34 -22q15 0 34 8t33 31q7 11 9 22.5t-2.5 21.5t-15 16.5t-29.5 7.5l54 78q-30 3 -52 14t-36.5 26t-21 33.5
t-6.5 36.5q0 31 18.5 54.5t51.5 23.5q20 0 30 -10.5t10 -24.5q0 -17 -13.5 -30.5t-36.5 -13.5q-17 0 -31 8q-3 -8 -3 -15q0 -13 7 -26.5t19.5 -24t30.5 -17t40 -6.5q29 0 48.5 8t31 19.5t16 24.5t4.5 23q0 22 -13 44.5t-29 46.5t-29 49t-13 54q0 25 10.5 47.5t29.5 39.5
t45.5 27t58.5 10v-5z" />
    <glyph glyph-name="Scaron" unicode="&#x160;" horiz-adv-x="670" 
d="M1054 932q-12 -21 -32 -43t-46.5 -43.5t-57.5 -41t-64 -34.5q0 39 -13 76t-34 60l45 35q23 -23 36.5 -53.5t13.5 -58.5q42 24 76.5 56t50.5 61zM863 709q48 0 71.5 -18.5t23.5 -45.5q0 -36 -33.5 -78t-92 -79t-137.5 -64t-170 -34q-57 -113 -107.5 -189.5t-98.5 -123.5
t-94.5 -67t-95.5 -20q-47 0 -75 26t-28 64q0 26 14 54.5t46 57.5l18 -19q-26 -24 -37.5 -46.5t-11.5 -42.5q0 -29 22.5 -47.5t54.5 -18.5q31 0 65 20.5t72 65t81.5 115t93.5 171.5q-109 4 -166.5 37t-57.5 83q0 34 21.5 65t58.5 55t86 38t104 14v-24q-38 0 -72.5 -13
t-61 -34t-42.5 -47t-16 -51q0 -39 40.5 -66t118.5 -32q33 62 78.5 116t98.5 93.5t111.5 62.5t117.5 23v-1zM538 417q75 7 141.5 32t116 58t78.5 69.5t29 66.5q0 17 -11.5 28.5t-35.5 11.5q-44 0 -88 -21t-85.5 -57t-78 -85t-65.5 -104z" />
    </font>
</defs>
</svg>
